SplineFontDB: 3.0
FontName: TitilliumWeb-BoldItalic
FullName: Titillium WebBold Italic
FamilyName: Titillium Web
Weight: Bold
Copyright: Copyright (c) 2009-2011 by Accademia di Belle Arti di Urbino and students of MA course of Visual design. Some rights reserved.
Version: 1.001;PS 57.000;hotconv 1.0.70;makeotf.lib2.5.55311
ItalicAngle: -13
UnderlinePosition: -70
UnderlineWidth: 30
Ascent: 800
Descent: 200
sfntRevision: 0x00010000
LayerCount: 2
Layer: 0 1 "Back"  1
Layer: 1 1 "Fore"  0
XUID: [1021 238 760316958 4335970]
FSType: 8
OS2Version: 3
OS2_WeightWidthSlopeOnly: 0
OS2_UseTypoMetrics: 1
CreationTime: 1349090879
ModificationTime: 1349108892
PfmFamily: 81
TTFWeight: 700
TTFWidth: 5
LineGap: 0
VLineGap: 0
Panose: 0 0 8 0 0 0 0 0 0 0
OS2TypoAscent: 1133
OS2TypoAOffset: 0
OS2TypoDescent: -388
OS2TypoDOffset: 0
OS2TypoLinegap: 0
OS2WinAscent: 1133
OS2WinAOffset: 0
OS2WinDescent: 388
OS2WinDOffset: 0
HheadAscent: 1133
HheadAOffset: 0
HheadDescent: -388
HheadDOffset: 0
OS2SubXSize: 650
OS2SubYSize: 600
OS2SubXOff: -17
OS2SubYOff: 75
OS2SupXSize: 650
OS2SupYSize: 600
OS2SupXOff: 81
OS2SupYOff: 350
OS2StrikeYSize: 30
OS2StrikeYPos: 299
OS2Vendor: 'UKWN'
OS2CodePages: 20000093.00000000
OS2UnicodeRanges: 00000007.00000001.00000000.00000000
Lookup: 1 0 0 "'locl' Localized Forms in Latin lookup 0"  {"'locl' Localized Forms in Latin lookup 0 subtable"  } ['locl' ('DFLT' <'dflt' > 'latn' <'dflt' > ) ]
Lookup: 1 0 0 "'frac' Diagonal Fractions in Latin lookup 1"  {"'frac' Diagonal Fractions in Latin lookup 1 subtable"  } ['frac' ('DFLT' <'dflt' > 'latn' <'dflt' > ) ]
Lookup: 6 0 0 "'frac' Diagonal Fractions in Latin lookup 2"  {"'frac' Diagonal Fractions in Latin lookup 2 subtable"  } ['frac' ('DFLT' <'dflt' > 'latn' <'dflt' > ) ]
Lookup: 1 0 0 "'frac' Diagonal Fractions in Latin lookup 3"  {"'frac' Diagonal Fractions in Latin lookup 3 subtable"  } ['frac' ('DFLT' <'dflt' > 'latn' <'dflt' > ) ]

StartChar: exclam
Encoding: 33 33 4
Width: 163
GlyphClass: 2
Flags: W
LayerCount: 2
Fore
SplineSet
77 258 m 1,0,-1
 172 700 l 1,1,-1
 315 700 l 1,2,-1
 203 258 l 1,3,-1
 77 258 l 1,0,-1
14 0 m 1,4,-1
 49 153 l 1,5,-1
 185 153 l 1,6,-1
 150 0 l 1,7,-1
 14 0 l 1,4,-1
EndSplineSet
EndChar

StartChar: quotedbl
Encoding: 34 34 5
Width: 306
GlyphClass: 2
Flags: W
LayerCount: 2
Fore
SplineSet
224 437 m 1,0,-1
 109 437 l 1,1,-1
 167 688 l 1,2,-1
 292 688 l 1,3,-1
 224 437 l 1,0,-1
392 437 m 1,4,-1
 277 437 l 1,5,-1
 335 688 l 1,6,-1
 460 688 l 1,7,-1
 392 437 l 1,4,-1
EndSplineSet
EndChar

StartChar: numbersign
Encoding: 35 35 6
Width: 560
GlyphClass: 2
Flags: W
LayerCount: 2
Fore
SplineSet
579 165 m 1,0,-1
 483 165 l 1,1,-1
 442 0 l 1,2,-1
 326 0 l 1,3,-1
 367 165 l 1,4,-1
 263 165 l 1,5,-1
 222 0 l 1,6,-1
 106 0 l 1,7,-1
 147 165 l 1,8,-1
 51 165 l 1,9,-1
 79 277 l 1,10,-1
 175 277 l 1,11,-1
 201 383 l 1,12,-1
 105 383 l 1,13,-1
 133 495 l 1,14,-1
 229 495 l 1,15,-1
 270 660 l 1,16,-1
 386 660 l 1,17,-1
 345 495 l 1,18,-1
 449 495 l 1,19,-1
 490 660 l 1,20,-1
 606 660 l 1,21,-1
 565 495 l 1,22,-1
 661 495 l 1,23,-1
 633 383 l 1,24,-1
 537 383 l 1,25,-1
 511 277 l 1,26,-1
 607 277 l 1,27,-1
 579 165 l 1,0,-1
395 277 m 1,28,-1
 421 383 l 1,29,-1
 317 383 l 1,30,-1
 291 277 l 1,31,-1
 395 277 l 1,28,-1
EndSplineSet
EndChar

StartChar: dollar
Encoding: 36 36 7
Width: 560
GlyphClass: 2
Flags: W
LayerCount: 2
Fore
SplineSet
540 217 m 0,0,1
 540 107 540 107 472 47.5 c 128,-1,2
 404 -12 404 -12 290 -12 c 0,3,4
 274 -12 274 -12 248 -10 c 1,5,-1
 199 -119 l 1,6,-1
 114 -119 l 1,7,-1
 169 3 l 1,8,-1
 88 28 l 1,9,-1
 110 125 l 1,10,11
 162 115 162 115 216 109 c 1,12,-1
 298 292 l 1,13,14
 234 322 234 322 207.5 358 c 128,-1,15
 181 394 181 394 181 456 c 0,16,17
 181 550 181 550 242 611.5 c 128,-1,18
 303 673 303 673 405 673 c 0,19,20
 427 673 427 673 467 669 c 1,21,-1
 513 771 l 1,22,-1
 599 771 l 1,23,-1
 547 654 l 1,24,-1
 609 636 l 1,25,-1
 584 541 l 1,26,27
 545 547 545 547 501 552 c 1,28,-1
 423 380 l 1,29,30
 493 348 493 348 516.5 314 c 128,-1,31
 540 280 540 280 540 217 c 0,0,1
404 201 m 0,32,33
 404 221 404 221 397 232.5 c 128,-1,34
 390 244 390 244 368 257 c 1,35,-1
 299 105 l 1,36,37
 351 107 351 107 377.5 129 c 128,-1,38
 404 151 404 151 404 201 c 0,32,33
317 472 m 0,39,40
 317 451 317 451 324 439.5 c 128,-1,41
 331 428 331 428 353 414 c 1,42,-1
 418 559 l 1,43,-1
 409 559 l 2,44,45
 366 559 366 559 341.5 535 c 128,-1,46
 317 511 317 511 317 472 c 0,39,40
EndSplineSet
EndChar

StartChar: percent
Encoding: 37 37 8
Width: 560
GlyphClass: 2
Flags: W
LayerCount: 2
Fore
SplineSet
266.5 607 m 128,-1,1
 259 593 259 593 250 559 c 128,-1,2
 241 525 241 525 241 507.5 c 128,-1,3
 241 490 241 490 254.5 490 c 128,-1,4
 268 490 268 490 276 505 c 128,-1,5
 284 520 284 520 292.5 553.5 c 128,-1,6
 301 587 301 587 301 604 c 128,-1,7
 301 621 301 621 287.5 621 c 128,-1,0
 274 621 274 621 266.5 607 c 128,-1,1
108 6 m 1,8,-1
 532 720 l 1,9,-1
 611 690 l 1,10,-1
 187 -24 l 1,11,-1
 108 6 l 1,8,-1
143 496 m 0,12,13
 143 522 143 522 151 556 c 0,14,15
 187 701 187 701 307 701 c 0,16,17
 399 701 399 701 399 615 c 0,18,19
 399 589 399 589 391 556 c 0,20,21
 355 410 355 410 235 410 c 0,22,23
 143 410 143 410 143 496 c 0,12,13
487 291 m 0,24,25
 579 291 579 291 579 205 c 0,26,27
 579 179 579 179 571 146 c 0,28,29
 535 0 535 0 415 0 c 0,30,31
 323 0 323 0 323 86 c 0,32,33
 323 112 323 112 331 146 c 0,34,35
 367 291 367 291 487 291 c 0,24,25
446 196.5 m 128,-1,37
 438 182 438 182 429 148 c 128,-1,38
 420 114 420 114 420 97 c 128,-1,39
 420 80 420 80 433.5 80 c 128,-1,40
 447 80 447 80 455.5 95 c 128,-1,41
 464 110 464 110 472.5 143.5 c 128,-1,42
 481 177 481 177 481 194 c 128,-1,43
 481 211 481 211 467.5 211 c 128,-1,36
 454 211 454 211 446 196.5 c 128,-1,37
EndSplineSet
EndChar

StartChar: ampersand
Encoding: 38 38 9
Width: 641
GlyphClass: 2
Flags: W
LayerCount: 2
Fore
SplineSet
430 692 m 0,0,1
 606 692 606 692 606 541 c 0,2,3
 606 470 606 470 569.5 429 c 128,-1,4
 533 388 533 388 430 347 c 1,5,-1
 506 245 l 1,6,7
 518 263 518 263 534.5 302.5 c 128,-1,8
 551 342 551 342 555 366 c 1,9,-1
 678 366 l 1,10,11
 667 321 667 321 634.5 256.5 c 128,-1,12
 602 192 602 192 574 159 c 1,13,-1
 654 66 l 1,14,-1
 561 -14 l 1,15,-1
 489 78 l 1,16,17
 396 -12 396 -12 275 -12 c 128,-1,18
 154 -12 154 -12 108.5 35.5 c 128,-1,19
 63 83 63 83 63 166 c 128,-1,20
 63 249 63 249 111.5 305.5 c 128,-1,21
 160 362 160 362 259 402 c 1,22,23
 229 454 229 454 229 509 c 0,24,25
 229 602 229 602 284 647 c 128,-1,26
 339 692 339 692 430 692 c 0,0,1
297 102 m 0,27,28
 329 102 329 102 366.5 119.5 c 128,-1,29
 404 137 404 137 425 158 c 1,30,-1
 307 325 l 1,31,32
 202 276 202 276 202 179 c 0,33,34
 202 102 202 102 297 102 c 0,27,28
428 580 m 0,35,36
 363 580 363 580 363 494 c 0,37,38
 363 450 363 450 383 419 c 1,39,40
 438 448 438 448 455 470 c 128,-1,41
 472 492 472 492 472 529 c 0,42,43
 472 580 472 580 428 580 c 0,35,36
EndSplineSet
EndChar

StartChar: quotesingle
Encoding: 39 39 10
Width: 138
GlyphClass: 2
Flags: W
LayerCount: 2
Fore
SplineSet
224 437 m 1,0,-1
 109 437 l 1,1,-1
 167 688 l 1,2,-1
 292 688 l 1,3,-1
 224 437 l 1,0,-1
EndSplineSet
EndChar

StartChar: parenleft
Encoding: 40 40 11
Width: 234
GlyphClass: 2
Flags: W
LayerCount: 2
Fore
SplineSet
216 307 m 128,-1,1
 192 212 192 212 192 141 c 0,2,3
 192 7 192 7 204 -90 c 2,4,-1
 208 -123 l 1,5,-1
 80 -123 l 1,6,7
 51 -26 51 -26 51 132 c 0,8,9
 51 221 51 221 75.5 317 c 128,-1,10
 100 413 100 413 134 486 c 0,11,12
 208 643 208 643 262 716 c 1,13,-1
 287 748 l 1,14,-1
 412 748 l 1,15,16
 383 705 383 705 340.5 623.5 c 128,-1,17
 298 542 298 542 269 472 c 128,-1,0
 240 402 240 402 216 307 c 128,-1,1
EndSplineSet
Substitution2: "'case' Case-Sensitive Forms in Latin lookup 4 subtable" parenleft.cap
EndChar

StartChar: parenright
Encoding: 41 41 12
Width: 235
GlyphClass: 2
Flags: W
LayerCount: 2
Fore
SplineSet
164 323 m 128,-1,1
 188 418 188 418 188 489 c 0,2,3
 188 623 188 623 176 720 c 2,4,-1
 172 753 l 1,5,-1
 300 753 l 1,6,7
 329 656 329 656 329 498 c 0,8,9
 329 409 329 409 304.5 313 c 128,-1,10
 280 217 280 217 246 144 c 0,11,12
 172 -13 172 -13 118 -86 c 1,13,-1
 93 -118 l 1,14,-1
 -32 -118 l 1,15,16
 -3 -75 -3 -75 39.5 6.5 c 128,-1,17
 82 88 82 88 111 158 c 128,-1,0
 140 228 140 228 164 323 c 128,-1,1
EndSplineSet
Substitution2: "'case' Case-Sensitive Forms in Latin lookup 4 subtable" parenright.cap
EndChar

StartChar: asterisk
Encoding: 42 42 13
Width: 423
GlyphClass: 2
Flags: W
LayerCount: 2
Fore
SplineSet
511 499 m 1,0,-1
 388 499 l 1,1,-1
 426 379 l 1,2,-1
 353 357 l 1,3,-1
 312 478 l 1,4,-1
 209 399 l 1,5,-1
 162 458 l 1,6,-1
 267 536 l 1,7,-1
 165 609 l 1,8,-1
 211 672 l 1,9,-1
 312 599 l 1,10,-1
 351 720 l 1,11,-1
 426 695 l 1,12,-1
 388 573 l 1,13,-1
 511 573 l 1,14,-1
 511 499 l 1,0,-1
EndSplineSet
EndChar

StartChar: plus
Encoding: 43 43 14
Width: 560
GlyphClass: 2
Flags: W
LayerCount: 2
Fore
SplineSet
107 191 m 1,0,-1
 107 311 l 1,1,-1
 276 311 l 1,2,-1
 276 479 l 1,3,-1
 396 479 l 1,4,-1
 396 311 l 1,5,-1
 567 311 l 1,6,-1
 567 191 l 1,7,-1
 396 191 l 1,8,-1
 396 21 l 1,9,-1
 276 21 l 1,10,-1
 276 191 l 1,11,-1
 107 191 l 1,0,-1
EndSplineSet
EndChar

StartChar: comma
Encoding: 44 44 15
Width: 175
GlyphClass: 2
Flags: W
LayerCount: 2
Fore
SplineSet
58 -130 m 1,0,-1
 -53 -130 l 1,1,-1
 64 153 l 1,2,-1
 211 153 l 1,3,-1
 58 -130 l 1,0,-1
EndSplineSet
EndChar

StartChar: hyphen
Encoding: 45 45 16
Width: 267
GlyphClass: 2
Flags: W
LayerCount: 2
Fore
SplineSet
53 205 m 1,0,-1
 83 325 l 1,1,-1
 336 325 l 1,2,-1
 306 205 l 1,3,-1
 53 205 l 1,0,-1
EndSplineSet
EndChar

StartChar: period
Encoding: 46 46 17
Width: 152
GlyphClass: 2
Flags: W
LayerCount: 2
Fore
SplineSet
8 0 m 1,0,-1
 43 153 l 1,1,-1
 179 153 l 1,2,-1
 144 0 l 1,3,-1
 8 0 l 1,0,-1
EndSplineSet
EndChar

StartChar: slash
Encoding: 47 47 18
Width: 468
GlyphClass: 2
Flags: W
LayerCount: 2
Fore
SplineSet
163 -24 m 1,0,-1
 37 20 l 1,1,-1
 468 718 l 1,2,-1
 594 674 l 1,3,-1
 163 -24 l 1,0,-1
EndSplineSet
Substitution2: "'frac' Diagonal Fractions in Latin lookup 3 subtable" fraction
EndChar

StartChar: zero
Encoding: 48 48 19
Width: 560
GlyphClass: 2
Flags: W
LayerCount: 2
Fore
SplineSet
401 672 m 0,0,1
 617 672 617 672 617 460 c 128,-1,2
 617 248 617 248 530.5 118 c 128,-1,3
 444 -12 444 -12 311 -12 c 0,4,5
 95 -12 95 -12 95 200 c 128,-1,6
 95 412 95 412 181.5 542 c 128,-1,7
 268 672 268 672 401 672 c 0,0,1
459.5 527 m 128,-1,9
 443 554 443 554 396.5 554 c 128,-1,10
 350 554 350 554 311.5 498 c 128,-1,11
 273 442 273 442 254.5 366.5 c 128,-1,12
 236 291 236 291 236 225 c 128,-1,13
 236 159 236 159 252.5 132.5 c 128,-1,14
 269 106 269 106 315 106 c 128,-1,15
 361 106 361 106 399.5 162 c 128,-1,16
 438 218 438 218 457 293 c 128,-1,17
 476 368 476 368 476 434 c 128,-1,8
 476 500 476 500 459.5 527 c 128,-1,9
EndSplineSet
Substitution2: "'frac' Diagonal Fractions in Latin lookup 1 subtable" zerosuperior
EndChar

StartChar: one
Encoding: 49 49 20
Width: 560
GlyphClass: 2
Flags: W
LayerCount: 2
Fore
SplineSet
194 516 m 1,0,-1
 449 660 l 1,1,-1
 568 660 l 1,2,-1
 416 0 l 1,3,-1
 279 0 l 1,4,-1
 394 498 l 1,5,-1
 231 408 l 1,6,-1
 194 516 l 1,0,-1
EndSplineSet
Substitution2: "'frac' Diagonal Fractions in Latin lookup 1 subtable" onesuperior
EndChar

StartChar: two
Encoding: 50 50 21
Width: 560
GlyphClass: 2
Flags: W
LayerCount: 2
Fore
SplineSet
423 410.5 m 128,-1,1
 461 453 461 453 461 488.5 c 128,-1,2
 461 524 461 524 440.5 539 c 128,-1,3
 420 554 420 554 376 554 c 0,4,5
 310 554 310 554 230 542 c 1,6,-1
 205 539 l 1,7,-1
 223 639 l 1,8,9
 319 672 319 672 412.5 672 c 128,-1,10
 506 672 506 672 554 635 c 128,-1,11
 602 598 602 598 602 517 c 128,-1,12
 602 436 602 436 561.5 380 c 128,-1,13
 521 324 521 324 432 256 c 2,14,-1
 250 118 l 1,15,-1
 517 118 l 1,16,-1
 488 0 l 1,17,-1
 63 0 l 1,18,-1
 90 112 l 1,19,-1
 289 285 l 2,20,0
 385 368 385 368 423 410.5 c 128,-1,1
EndSplineSet
Substitution2: "'frac' Diagonal Fractions in Latin lookup 1 subtable" twosuperior
EndChar

StartChar: three
Encoding: 51 51 22
Width: 560
GlyphClass: 2
Flags: W
LayerCount: 2
Fore
SplineSet
212 631 m 1,0,1
 301 672 301 672 402.5 672 c 128,-1,2
 504 672 504 672 552 638 c 128,-1,3
 600 604 600 604 600 532.5 c 128,-1,4
 600 461 600 461 573.5 421 c 128,-1,5
 547 381 547 381 480 347 c 1,6,7
 516 326 516 326 529.5 300.5 c 128,-1,8
 543 275 543 275 543 223 c 0,9,10
 543 118 543 118 465 53 c 128,-1,11
 387 -12 387 -12 259 -12 c 0,12,13
 215 -12 215 -12 165 -3 c 128,-1,14
 115 6 115 6 87 15 c 2,15,-1
 59 24 l 1,16,-1
 88 118 l 1,17,18
 202 106 202 106 264 106 c 128,-1,19
 326 106 326 106 364 135.5 c 128,-1,20
 402 165 402 165 402 217 c 0,21,22
 402 246 402 246 383.5 258.5 c 128,-1,23
 365 271 365 271 316 272 c 2,24,-1
 190 274 l 1,25,-1
 215 376 l 1,26,-1
 344 382 l 2,27,28
 383 384 383 384 421 417 c 128,-1,29
 459 450 459 450 459 492 c 0,30,31
 459 554 459 554 369 554 c 0,32,33
 293 554 293 554 224 544 c 1,34,-1
 198 541 l 1,35,-1
 212 631 l 1,0,1
EndSplineSet
Substitution2: "'frac' Diagonal Fractions in Latin lookup 1 subtable" threesuperior
EndChar

StartChar: four
Encoding: 52 52 23
Width: 560
GlyphClass: 2
Flags: W
LayerCount: 2
Fore
SplineSet
322 -5 m 1,0,-1
 349 112 l 1,1,-1
 70 112 l 1,2,-1
 93 212 l 1,3,-1
 369 660 l 1,4,-1
 519 660 l 1,5,-1
 240 226 l 1,6,-1
 375 226 l 1,7,-1
 416 404 l 1,8,-1
 552 404 l 1,9,-1
 511 226 l 1,10,-1
 572 226 l 1,11,-1
 545 112 l 1,12,-1
 485 112 l 1,13,-1
 458 -5 l 1,14,-1
 322 -5 l 1,0,-1
EndSplineSet
Substitution2: "'frac' Diagonal Fractions in Latin lookup 1 subtable" foursuperior
EndChar

StartChar: five
Encoding: 53 53 24
Width: 560
GlyphClass: 2
Flags: W
LayerCount: 2
Fore
SplineSet
386 418 m 0,0,1
 560 418 560 418 560 258 c 0,2,3
 560 140 560 140 485 64 c 128,-1,4
 410 -12 410 -12 297 -12 c 0,5,6
 245 -12 245 -12 186 -1.5 c 128,-1,7
 127 9 127 9 94 20 c 2,8,-1
 62 31 l 1,9,-1
 93 135 l 1,10,11
 209 106 209 106 275 106 c 128,-1,12
 341 106 341 106 380 142 c 128,-1,13
 419 178 419 178 419 222 c 128,-1,14
 419 266 419 266 401 283 c 128,-1,15
 383 300 383 300 351 300 c 0,16,17
 294 300 294 300 252 284 c 1,18,-1
 237 279 l 1,19,-1
 137 302 l 1,20,-1
 248 661 l 1,21,-1
 641 661 l 1,22,-1
 614 543 l 1,23,-1
 330 543 l 1,24,-1
 271 387 l 1,25,26
 342 418 342 418 386 418 c 0,0,1
EndSplineSet
Substitution2: "'frac' Diagonal Fractions in Latin lookup 1 subtable" fivesuperior
EndChar

StartChar: six
Encoding: 54 54 25
Width: 560
GlyphClass: 2
Flags: W
LayerCount: 2
Fore
SplineSet
440 554 m 0,0,1
 325 554 325 554 267 390 c 1,2,3
 347 425 347 425 402 425 c 0,4,5
 583 425 583 425 583 251 c 0,6,7
 583 132 583 132 512.5 60 c 128,-1,8
 442 -12 442 -12 312 -12 c 0,9,10
 212 -12 212 -12 155.5 46.5 c 128,-1,11
 99 105 99 105 99 223 c 0,12,13
 99 299 99 299 124.5 377 c 128,-1,14
 150 455 150 455 195.5 521.5 c 128,-1,15
 241 588 241 588 313.5 630 c 128,-1,16
 386 672 386 672 472 672 c 0,17,18
 538 672 538 672 614 656 c 1,19,-1
 640 650 l 1,20,-1
 597 539 l 1,21,22
 519 554 519 554 440 554 c 0,0,1
361 307 m 0,23,24
 305 307 305 307 263 289 c 2,25,-1
 249 283 l 1,26,27
 240 245 240 245 240 209 c 128,-1,28
 240 173 240 173 259.5 139.5 c 128,-1,29
 279 106 279 106 321 106 c 0,30,31
 380 106 380 106 411 139.5 c 128,-1,32
 442 173 442 173 442 238 c 0,33,34
 442 307 442 307 361 307 c 0,23,24
EndSplineSet
Substitution2: "'frac' Diagonal Fractions in Latin lookup 1 subtable" sixsuperior
EndChar

StartChar: seven
Encoding: 55 55 26
Width: 560
GlyphClass: 2
Flags: W
LayerCount: 2
Fore
SplineSet
197 542 m 1,0,-1
 224 660 l 1,1,-1
 636 660 l 1,2,-1
 596 487 l 1,3,-1
 242 -18 l 1,4,-1
 117 18 l 1,5,-1
 464 501 l 1,6,-1
 472 542 l 1,7,-1
 197 542 l 1,0,-1
EndSplineSet
Substitution2: "'frac' Diagonal Fractions in Latin lookup 1 subtable" sevensuperior
EndChar

StartChar: eight
Encoding: 56 56 27
Width: 560
GlyphClass: 2
Flags: W
LayerCount: 2
Fore
SplineSet
441 673 m 0,0,1
 535 673 535 673 586.5 634.5 c 128,-1,2
 638 596 638 596 638 540 c 0,3,4
 638 466 638 466 609.5 422.5 c 128,-1,5
 581 379 581 379 523 340 c 1,6,7
 575 301 575 301 575 217 c 0,8,9
 575 116 575 116 485.5 51 c 128,-1,10
 396 -14 396 -14 278 -14 c 128,-1,11
 160 -14 160 -14 112.5 28 c 128,-1,12
 65 70 65 70 65 154 c 0,13,14
 65 253 65 253 195 340 c 1,15,16
 174 361 174 361 164 381 c 128,-1,17
 154 401 154 401 153.5 409.5 c 128,-1,18
 153 418 153 418 153 439 c 0,19,20
 153 533 153 533 231.5 603 c 128,-1,21
 310 673 310 673 441 673 c 0,0,1
233.5 121.5 m 128,-1,23
 253 104 253 104 303.5 104 c 128,-1,24
 354 104 354 104 392 137 c 128,-1,25
 430 170 430 170 430 211 c 0,26,27
 430 236 430 236 421 250 c 128,-1,28
 412 264 412 264 387 275 c 1,29,-1
 299 275 l 1,30,31
 263 262 263 262 238.5 237 c 128,-1,32
 214 212 214 212 214 175.5 c 128,-1,22
 214 139 214 139 233.5 121.5 c 128,-1,23
470.5 536 m 128,-1,34
 451 555 451 555 407.5 555 c 128,-1,35
 364 555 364 555 329 523.5 c 128,-1,36
 294 492 294 492 294 455 c 0,37,38
 294 431 294 431 300.5 418.5 c 128,-1,39
 307 406 307 406 327 389 c 1,40,-1
 415 389 l 1,41,42
 445 406 445 406 467.5 434 c 128,-1,43
 490 462 490 462 490 489.5 c 128,-1,33
 490 517 490 517 470.5 536 c 128,-1,34
EndSplineSet
Substitution2: "'frac' Diagonal Fractions in Latin lookup 1 subtable" eightsuperior
EndChar

StartChar: nine
Encoding: 57 57 28
Width: 560
GlyphClass: 2
Flags: W
LayerCount: 2
Fore
SplineSet
121 129 m 1,0,1
 179 114 179 114 251 114 c 128,-1,2
 323 114 323 114 375 155.5 c 128,-1,3
 427 197 427 197 444 265 c 1,4,-1
 418 259 l 2,5,6
 329 239 329 239 296 239 c 0,7,8
 210 239 210 239 167.5 281 c 128,-1,9
 125 323 125 323 125 416 c 0,10,11
 125 506 125 506 194 584 c 0,12,13
 228 623 228 623 286.5 647.5 c 128,-1,14
 345 672 345 672 418 672 c 0,15,16
 513 672 513 672 559 605.5 c 128,-1,17
 605 539 605 539 605 420 c 0,18,19
 605 218 605 218 495 103 c 128,-1,20
 385 -12 385 -12 227 -12 c 0,21,22
 161 -12 161 -12 100 4 c 1,23,-1
 79 10 l 1,24,-1
 121 129 l 1,0,1
478 436 m 0,25,26
 478 547 478 547 388 547 c 0,27,28
 336 547 336 547 297.5 514 c 128,-1,29
 259 481 259 481 259 435 c 128,-1,30
 259 389 259 389 277 375 c 128,-1,31
 295 361 295 361 329 361 c 0,32,33
 393 361 393 361 451 372 c 2,34,-1
 472 376 l 1,35,36
 478 409 478 409 478 436 c 0,25,26
EndSplineSet
Substitution2: "'frac' Diagonal Fractions in Latin lookup 1 subtable" ninesuperior
EndChar

StartChar: colon
Encoding: 58 58 29
Width: 158
GlyphClass: 2
Flags: W
LayerCount: 2
Fore
SplineSet
80 296 m 1,0,-1
 115 449 l 1,1,-1
 251 449 l 1,2,-1
 216 296 l 1,3,-1
 80 296 l 1,0,-1
10 0 m 1,4,-1
 45 153 l 1,5,-1
 181 153 l 1,6,-1
 146 0 l 1,7,-1
 10 0 l 1,4,-1
EndSplineSet
EndChar

StartChar: semicolon
Encoding: 59 59 30
Width: 175
GlyphClass: 2
Flags: W
LayerCount: 2
Fore
SplineSet
-54 -130 m 1,0,-1
 63 153 l 1,1,-1
 210 153 l 1,2,-1
 57 -130 l 1,3,-1
 -54 -130 l 1,0,-1
95 296 m 1,4,-1
 130 449 l 1,5,-1
 266 449 l 1,6,-1
 231 296 l 1,7,-1
 95 296 l 1,4,-1
EndSplineSet
EndChar

StartChar: less
Encoding: 60 60 31
Width: 560
GlyphClass: 2
Flags: W
LayerCount: 2
Fore
SplineSet
520 353 m 1,0,-1
 259 254 l 1,1,-1
 520 146 l 1,2,-1
 520 10 l 1,3,-1
 114 196 l 1,4,-1
 114 306 l 1,5,-1
 520 489 l 1,6,-1
 520 353 l 1,0,-1
EndSplineSet
EndChar

StartChar: equal
Encoding: 61 61 32
Width: 560
GlyphClass: 2
Flags: W
LayerCount: 2
Fore
SplineSet
116 295 m 1,0,-1
 116 416 l 1,1,-1
 560 416 l 1,2,-1
 560 295 l 1,3,-1
 116 295 l 1,0,-1
116 87 m 1,4,-1
 116 208 l 1,5,-1
 560 208 l 1,6,-1
 560 87 l 1,7,-1
 116 87 l 1,4,-1
EndSplineSet
EndChar

StartChar: greater
Encoding: 62 62 33
Width: 560
GlyphClass: 2
Flags: W
LayerCount: 2
Fore
SplineSet
416 254 m 1,0,-1
 155 353 l 1,1,-1
 155 489 l 1,2,-1
 561 306 l 1,3,-1
 561 196 l 1,4,-1
 155 10 l 1,5,-1
 155 146 l 1,6,-1
 416 254 l 1,0,-1
EndSplineSet
EndChar

StartChar: question
Encoding: 63 63 34
Width: 431
GlyphClass: 2
Flags: W
LayerCount: 2
Fore
SplineSet
522 536 m 0,0,1
 522 468 522 468 490 424.5 c 128,-1,2
 458 381 458 381 371 321 c 0,3,4
 317 284 317 284 309 248 c 2,5,-1
 300 208 l 1,6,-1
 174 208 l 1,7,8
 174 257 174 257 182.5 302 c 128,-1,9
 191 347 191 347 276 408 c 1,10,11
 335 449 335 449 357.5 472.5 c 128,-1,12
 380 496 380 496 380 524.5 c 128,-1,13
 380 553 380 553 362.5 562.5 c 128,-1,14
 345 572 345 572 310 572 c 0,15,16
 244 572 244 572 184 563 c 2,17,-1
 164 560 l 1,18,-1
 178 665 l 1,19,20
 268 692 268 692 338 692 c 0,21,22
 522 692 522 692 522 536 c 0,0,1
120 0 m 1,23,-1
 158 168 l 1,24,-1
 294 168 l 1,25,-1
 256 0 l 1,26,-1
 120 0 l 1,23,-1
EndSplineSet
EndChar

StartChar: at
Encoding: 64 64 35
Width: 959
GlyphClass: 2
Flags: W
LayerCount: 2
Fore
SplineSet
635 727 m 0,0,1
 737 727 737 727 813 704 c 0,2,3
 954 663 954 663 998 548 c 0,4,5
 1020 493 1020 493 1020 431 c 128,-1,6
 1020 369 1020 369 1000 295 c 0,7,8
 957 130 957 130 900 60 c 128,-1,9
 843 -10 843 -10 753 -10 c 128,-1,10
 663 -10 663 -10 634 34 c 1,11,12
 601 18 601 18 544 3 c 128,-1,13
 487 -12 487 -12 441.5 -12 c 128,-1,14
 396 -12 396 -12 363.5 12 c 128,-1,15
 331 36 331 36 319 73 c 0,16,17
 303 121 303 121 303 165 c 128,-1,18
 303 209 303 209 312 242 c 1,19,20
 366 512 366 512 564 512 c 0,21,22
 612 512 612 512 808 479 c 1,23,24
 742 191 742 191 737 150 c 0,25,26
 733 117 733 117 777 117 c 0,27,28
 806 117 806 117 829 159.5 c 128,-1,29
 852 202 852 202 872 282 c 0,30,31
 897 379 897 379 897 417 c 128,-1,32
 897 455 897 455 887 492 c 128,-1,33
 877 529 877 529 847 556 c 0,34,35
 780 615 780 615 613.5 615 c 128,-1,36
 447 615 447 615 351 527 c 128,-1,37
 255 439 255 439 215 271 c 0,38,39
 202 215 202 215 202 171.5 c 128,-1,40
 202 128 202 128 209.5 90 c 128,-1,41
 217 52 217 52 239 18 c 128,-1,42
 261 -16 261 -16 295 -42 c 0,43,44
 366 -95 366 -95 497 -95 c 1,45,-1
 634 -86 l 1,46,-1
 608 -197 l 1,47,48
 511 -207 511 -207 466 -207 c 0,49,50
 373 -207 373 -207 299 -180.5 c 128,-1,51
 225 -154 225 -154 179.5 -108.5 c 128,-1,52
 134 -63 134 -63 106 -2 c 0,53,54
 77 61 77 61 77 131.5 c 128,-1,55
 77 202 77 202 91 271 c 1,56,57
 149 514 149 514 281 620.5 c 128,-1,58
 413 727 413 727 635 727 c 0,0,1
483 102 m 0,59,60
 540 102 540 102 602 140 c 1,61,62
 606 180 606 180 654 384 c 1,63,64
 590 398 590 398 563 398 c 0,65,66
 482 398 482 398 447 242 c 0,67,68
 438 205 438 205 438 182 c 0,69,70
 438 103 438 103 480 102 c 0,71,72
 481 102 481 102 483 102 c 0,59,60
EndSplineSet
EndChar

StartChar: A
Encoding: 65 65 36
Width: 551
GlyphClass: 2
Flags: W
LayerCount: 2
Fore
SplineSet
13 0 m 1,0,-1
 319 680 l 1,1,-1
 557 680 l 1,2,-1
 536 0 l 1,3,-1
 398 0 l 1,4,-1
 402 118 l 1,5,-1
 204 118 l 1,6,-1
 151 0 l 1,7,-1
 13 0 l 1,0,-1
400 560 m 1,8,-1
 256 238 l 1,9,-1
 407 238 l 1,10,-1
 421 560 l 1,11,-1
 400 560 l 1,8,-1
EndSplineSet
Position2: "'cpsp' Capital Spacing in Latin lookup 0 subtable" dx=5 dy=0 dh=10 dv=0
EndChar

StartChar: B
Encoding: 66 66 37
Width: 573
GlyphClass: 2
Flags: W
LayerCount: 2
Fore
SplineSet
458 680 m 2,0,1
 636 680 636 680 636 533 c 0,2,3
 636 468 636 468 608 426 c 128,-1,4
 580 384 580 384 524 350 c 1,5,6
 563 327 563 327 576 300 c 128,-1,7
 589 273 589 273 589 232 c 0,8,9
 589 132 589 132 519.5 66 c 128,-1,10
 450 0 450 0 321 0 c 2,11,-1
 65 0 l 1,12,-1
 222 680 l 1,13,-1
 458 680 l 2,0,1
382 285 m 2,14,-1
 269 285 l 1,15,-1
 230 118 l 1,16,-1
 348 118 l 2,17,18
 393 118 393 118 420 149 c 128,-1,19
 447 180 447 180 447 229 c 0,20,21
 447 285 447 285 382 285 c 2,14,-1
436 562 m 2,22,-1
 333 562 l 1,23,-1
 295 400 l 1,24,-1
 398 400 l 2,25,26
 439 400 439 400 467 429.5 c 128,-1,27
 495 459 495 459 495 505 c 0,28,29
 495 562 495 562 436 562 c 2,22,-1
EndSplineSet
Position2: "'cpsp' Capital Spacing in Latin lookup 0 subtable" dx=5 dy=0 dh=10 dv=0
EndChar

StartChar: C
Encoding: 67 67 38
Width: 494
GlyphClass: 2
Flags: W
LayerCount: 2
Fore
SplineSet
304 -12 m 0,0,1
 99 -12 99 -12 99 185 c 0,2,3
 99 331 99 331 148 454 c 0,4,5
 175 522 175 522 214 574.5 c 128,-1,6
 253 627 253 627 313.5 659.5 c 128,-1,7
 374 692 374 692 449 692 c 0,8,9
 522 692 522 692 596 670 c 1,10,-1
 620 662 l 1,11,-1
 588 560 l 1,12,13
 526 572 526 572 444 572 c 0,14,15
 382 572 382 572 334.5 517 c 128,-1,16
 287 462 287 462 264 377 c 128,-1,17
 241 292 241 292 241 195 c 0,18,19
 241 108 241 108 322 108 c 0,20,21
 399 108 399 108 461 118 c 1,22,-1
 484 121 l 1,23,-1
 473 14 l 1,24,25
 380 -12 380 -12 304 -12 c 0,0,1
EndSplineSet
Position2: "'cpsp' Capital Spacing in Latin lookup 0 subtable" dx=5 dy=0 dh=10 dv=0
EndChar

StartChar: D
Encoding: 68 68 39
Width: 605
GlyphClass: 2
Flags: W
LayerCount: 2
Fore
SplineSet
309 0 m 2,0,-1
 65 0 l 1,1,-1
 222 680 l 1,2,-1
 436 680 l 2,3,4
 660 680 660 680 660 473 c 0,5,6
 660 327 660 327 606 209 c 0,7,8
 545 77 545 77 439 28 c 0,9,10
 380 0 380 0 309 0 c 2,0,-1
507 364.5 m 128,-1,12
 518 422 518 422 518 471.5 c 128,-1,13
 518 521 518 521 490.5 540.5 c 128,-1,14
 463 560 463 560 408 560 c 2,15,-1
 332 560 l 1,16,-1
 231 120 l 1,17,-1
 321 120 l 2,18,19
 372 120 372 120 412 157 c 128,-1,20
 452 194 452 194 474 250.5 c 128,-1,11
 496 307 496 307 507 364.5 c 128,-1,12
EndSplineSet
Position2: "'cpsp' Capital Spacing in Latin lookup 0 subtable" dx=5 dy=0 dh=10 dv=0
EndChar

StartChar: E
Encoding: 69 69 40
Width: 497
GlyphClass: 2
Flags: W
LayerCount: 2
Fore
SplineSet
65 0 m 1,0,-1
 221 680 l 1,1,-1
 620 680 l 1,2,-1
 592 560 l 1,3,-1
 332 560 l 1,4,-1
 295 400 l 1,5,-1
 501 400 l 1,6,-1
 473 280 l 1,7,-1
 268 280 l 1,8,-1
 231 120 l 1,9,-1
 492 120 l 1,10,-1
 465 0 l 1,11,-1
 65 0 l 1,0,-1
EndSplineSet
Position2: "'cpsp' Capital Spacing in Latin lookup 0 subtable" dx=5 dy=0 dh=10 dv=0
EndChar

StartChar: F
Encoding: 70 70 41
Width: 477
GlyphClass: 2
Flags: W
LayerCount: 2
Fore
SplineSet
65 0 m 1,0,-1
 222 680 l 1,1,-1
 614 680 l 1,2,-1
 586 560 l 1,3,-1
 332 560 l 1,4,-1
 285 355 l 1,5,-1
 495 355 l 1,6,-1
 466 235 l 1,7,-1
 257 235 l 1,8,-1
 203 0 l 1,9,-1
 65 0 l 1,0,-1
EndSplineSet
Position2: "'cpsp' Capital Spacing in Latin lookup 0 subtable" dx=5 dy=0 dh=10 dv=0
EndChar

StartChar: G
Encoding: 71 71 42
Width: 568
GlyphClass: 2
Flags: W
LayerCount: 2
Fore
SplineSet
327 -12 m 0,0,1
 102 -12 102 -12 102 202 c 0,2,3
 102 364 102 364 158 484 c 0,4,5
 219 616 219 616 332 666 c 0,6,7
 392 692 392 692 453 692 c 128,-1,8
 514 692 514 692 566 682 c 128,-1,9
 618 672 618 672 646 662 c 2,10,-1
 673 652 l 1,11,-1
 641 552 l 1,12,13
 542 572 542 572 454 572 c 0,14,15
 400 572 400 572 357.5 536.5 c 128,-1,16
 315 501 315 501 292 444 c 0,17,18
 244 329 244 329 244 201 c 0,19,20
 244 108 244 108 344 108 c 1,21,-1
 407 113 l 1,22,-1
 442 264 l 1,23,-1
 378 264 l 1,24,-1
 405 378 l 1,25,-1
 606 378 l 1,26,-1
 521 14 l 1,27,28
 453 -12 453 -12 327 -12 c 0,0,1
EndSplineSet
Position2: "'cpsp' Capital Spacing in Latin lookup 0 subtable" dx=5 dy=0 dh=10 dv=0
EndChar

StartChar: H
Encoding: 72 72 43
Width: 620
GlyphClass: 2
Flags: W
LayerCount: 2
Fore
SplineSet
417 0 m 1,0,-1
 483 288 l 1,1,-1
 269 288 l 1,2,-1
 203 0 l 1,3,-1
 65 0 l 1,4,-1
 222 680 l 1,5,-1
 360 680 l 1,6,-1
 297 408 l 1,7,-1
 511 408 l 1,8,-1
 574 680 l 1,9,-1
 712 680 l 1,10,-1
 555 0 l 1,11,-1
 417 0 l 1,0,-1
EndSplineSet
Position2: "'cpsp' Capital Spacing in Latin lookup 0 subtable" dx=5 dy=0 dh=10 dv=0
EndChar

StartChar: I
Encoding: 73 73 44
Width: 268
GlyphClass: 2
Flags: W
LayerCount: 2
Fore
SplineSet
65 0 m 1,0,-1
 222 680 l 1,1,-1
 360 680 l 1,2,-1
 203 0 l 1,3,-1
 65 0 l 1,0,-1
EndSplineSet
Position2: "'cpsp' Capital Spacing in Latin lookup 0 subtable" dx=5 dy=0 dh=10 dv=0
EndChar

StartChar: J
Encoding: 74 74 45
Width: 283
GlyphClass: 2
Flags: W
LayerCount: 2
Fore
SplineSet
378 680 m 1,0,-1
 252 135 l 2,1,2
 229 34 229 34 198 -15 c 0,3,4
 182 -40 182 -40 155 -50 c 0,5,6
 104 -69 104 -69 6 -69 c 1,7,-1
 29 51 l 1,8,9
 71 53 71 53 86 66 c 128,-1,10
 101 79 101 79 114 135 c 2,11,-1
 240 680 l 1,12,-1
 378 680 l 1,0,-1
EndSplineSet
Position2: "'cpsp' Capital Spacing in Latin lookup 0 subtable" dx=5 dy=0 dh=10 dv=0
EndChar

StartChar: K
Encoding: 75 75 46
Width: 540
GlyphClass: 2
Flags: W
LayerCount: 2
Fore
SplineSet
384 0 m 1,0,-1
 340 273 l 1,1,-1
 264 266 l 1,2,-1
 203 0 l 1,3,-1
 65 0 l 1,4,-1
 222 680 l 1,5,-1
 360 680 l 1,6,-1
 292 386 l 1,7,-1
 356 394 l 1,8,-1
 532 680 l 1,9,-1
 683 680 l 1,10,-1
 466 339 l 1,11,-1
 529 0 l 1,12,-1
 384 0 l 1,0,-1
EndSplineSet
Position2: "'cpsp' Capital Spacing in Latin lookup 0 subtable" dx=5 dy=0 dh=10 dv=0
EndChar

StartChar: L
Encoding: 76 76 47
Width: 422
GlyphClass: 2
Flags: W
LayerCount: 2
Fore
SplineSet
419 0 m 1,0,-1
 65 0 l 1,1,-1
 222 680 l 1,2,-1
 360 680 l 1,3,-1
 231 120 l 1,4,-1
 446 120 l 1,5,-1
 419 0 l 1,0,-1
EndSplineSet
Position2: "'cpsp' Capital Spacing in Latin lookup 0 subtable" dx=5 dy=0 dh=10 dv=0
EndChar

StartChar: M
Encoding: 77 77 48
Width: 789
GlyphClass: 2
Flags: W
LayerCount: 2
Fore
SplineSet
65 0 m 1,0,-1
 222 680 l 1,1,-1
 436 680 l 1,2,-1
 437 185 l 1,3,-1
 663 680 l 1,4,-1
 881 680 l 1,5,-1
 724 0 l 1,6,-1
 586 0 l 1,7,-1
 716 560 l 1,8,-1
 710 560 l 1,9,-1
 467 30 l 1,10,-1
 337 30 l 1,11,-1
 336 560 l 1,12,-1
 331 560 l 1,13,-1
 203 0 l 1,14,-1
 65 0 l 1,0,-1
EndSplineSet
Position2: "'cpsp' Capital Spacing in Latin lookup 0 subtable" dx=5 dy=0 dh=10 dv=0
EndChar

StartChar: N
Encoding: 78 78 49
Width: 651
GlyphClass: 2
Flags: W
LayerCount: 2
Fore
SplineSet
65 0 m 1,0,-1
 222 680 l 1,1,-1
 441 680 l 1,2,-1
 477 147 l 1,3,-1
 489 147 l 1,4,-1
 610 680 l 1,5,-1
 743 680 l 1,6,-1
 586 0 l 1,7,-1
 378 0 l 1,8,-1
 334 543 l 1,9,-1
 322 543 l 1,10,-1
 195 0 l 1,11,-1
 65 0 l 1,0,-1
EndSplineSet
Position2: "'cpsp' Capital Spacing in Latin lookup 0 subtable" dx=5 dy=0 dh=10 dv=0
EndChar

StartChar: O
Encoding: 79 79 50
Width: 615
GlyphClass: 2
Flags: W
LayerCount: 2
Fore
SplineSet
264.5 131.5 m 128,-1,1
 286 108 286 108 337.5 108 c 128,-1,2
 389 108 389 108 423 142 c 0,3,4
 470 189 470 189 498.5 284 c 128,-1,5
 527 379 527 379 527 470 c 0,6,7
 527 525 527 525 506 548.5 c 128,-1,8
 485 572 485 572 433 572 c 128,-1,9
 381 572 381 572 351 542 c 0,10,11
 301 493 301 493 272 393.5 c 128,-1,12
 243 294 243 294 243 224.5 c 128,-1,0
 243 155 243 155 264.5 131.5 c 128,-1,1
628 228.5 m 128,-1,14
 587 110 587 110 508.5 49 c 128,-1,15
 430 -12 430 -12 322 -12 c 0,16,17
 101 -12 101 -12 101 196 c 0,18,19
 101 327 101 327 141 443 c 128,-1,20
 181 559 181 559 258 625.5 c 128,-1,21
 335 692 335 692 448 692 c 0,22,23
 669 692 669 692 669 484 c 0,24,13
 669 347 669 347 628 228.5 c 128,-1,14
EndSplineSet
Position2: "'cpsp' Capital Spacing in Latin lookup 0 subtable" dx=5 dy=0 dh=10 dv=0
EndChar

StartChar: P
Encoding: 80 80 51
Width: 547
GlyphClass: 2
Flags: W
LayerCount: 2
Fore
SplineSet
333 196 m 2,0,-1
 248 196 l 1,1,-1
 203 0 l 1,2,-1
 65 0 l 1,3,-1
 222 680 l 1,4,-1
 418 680 l 2,5,6
 529 680 529 680 578.5 634.5 c 128,-1,7
 628 589 628 589 628 488 c 0,8,9
 628 345 628 345 549.5 270.5 c 128,-1,10
 471 196 471 196 333 196 c 2,0,-1
351 316 m 2,11,12
 414 316 414 316 450 360.5 c 128,-1,13
 486 405 486 405 486 486 c 0,14,15
 486 524 486 524 468 542 c 128,-1,16
 450 560 450 560 408 560 c 2,17,-1
 332 560 l 1,18,-1
 276 316 l 1,19,-1
 351 316 l 2,11,12
EndSplineSet
Position2: "'cpsp' Capital Spacing in Latin lookup 0 subtable" dx=5 dy=0 dh=10 dv=0
EndChar

StartChar: Q
Encoding: 81 81 52
Width: 615
GlyphClass: 2
Flags: W
LayerCount: 2
Fore
SplineSet
315 -12 m 0,0,1
 213 -12 213 -12 157 39.5 c 128,-1,2
 101 91 101 91 101 196 c 0,3,4
 101 327 101 327 141 443 c 128,-1,5
 181 559 181 559 258 625.5 c 128,-1,6
 335 692 335 692 448 692 c 0,7,8
 669 692 669 692 669 484 c 0,9,10
 669 347 669 347 628 228.5 c 128,-1,11
 587 110 587 110 505 46 c 0,12,13
 483 30 483 30 471 24 c 1,14,-1
 519 -111 l 1,15,-1
 388 -154 l 1,16,-1
 345 -10 l 1,17,18
 325 -12 325 -12 315 -12 c 0,0,1
264.5 131.5 m 128,-1,20
 286 108 286 108 337.5 108 c 128,-1,21
 389 108 389 108 423 142 c 0,22,23
 470 189 470 189 498.5 284 c 128,-1,24
 527 379 527 379 527 470 c 0,25,26
 527 525 527 525 506 548.5 c 128,-1,27
 485 572 485 572 433 572 c 128,-1,28
 381 572 381 572 351 542 c 0,29,30
 301 493 301 493 272 393.5 c 128,-1,31
 243 294 243 294 243 224.5 c 128,-1,19
 243 155 243 155 264.5 131.5 c 128,-1,20
EndSplineSet
Position2: "'cpsp' Capital Spacing in Latin lookup 0 subtable" dx=5 dy=0 dh=10 dv=0
EndChar

StartChar: R
Encoding: 82 82 53
Width: 559
GlyphClass: 2
Flags: W
LayerCount: 2
Fore
SplineSet
418 680 m 2,0,1
 526 680 526 680 577 634.5 c 128,-1,2
 628 589 628 589 628 491 c 128,-1,3
 628 393 628 393 585 327 c 128,-1,4
 542 261 542 261 476 235 c 1,5,-1
 531 0 l 1,6,-1
 393 0 l 1,7,-1
 348 216 l 1,8,-1
 253 216 l 1,9,-1
 203 0 l 1,10,-1
 65 0 l 1,11,-1
 222 680 l 1,12,-1
 418 680 l 2,0,1
454.5 377 m 128,-1,14
 486 420 486 420 486 472 c 128,-1,15
 486 524 486 524 469 543 c 128,-1,16
 452 562 452 562 410 562 c 2,17,-1
 333 562 l 1,18,-1
 280 334 l 1,19,-1
 369 334 l 2,20,13
 423 334 423 334 454.5 377 c 128,-1,14
EndSplineSet
Position2: "'cpsp' Capital Spacing in Latin lookup 0 subtable" dx=5 dy=0 dh=10 dv=0
EndChar

StartChar: S
Encoding: 83 83 54
Width: 495
GlyphClass: 2
Flags: W
LayerCount: 2
Fore
SplineSet
381 574 m 0,0,1
 337 574 337 574 311.5 549.5 c 128,-1,2
 286 525 286 525 286 491 c 128,-1,3
 286 457 286 457 302 441.5 c 128,-1,4
 318 426 318 426 390 394 c 128,-1,5
 462 362 462 362 488.5 326.5 c 128,-1,6
 515 291 515 291 515 223 c 0,7,8
 515 110 515 110 445.5 49 c 128,-1,9
 376 -12 376 -12 258 -12 c 0,10,11
 211 -12 211 -12 159 -2 c 128,-1,12
 107 8 107 8 78 18 c 1,13,-1
 50 29 l 1,14,-1
 73 128 l 1,15,16
 186 108 186 108 250.5 108 c 128,-1,17
 315 108 315 108 345 130.5 c 128,-1,18
 375 153 375 153 375 207 c 0,19,20
 375 236 375 236 357.5 251.5 c 128,-1,21
 340 267 340 267 272 298 c 128,-1,22
 204 329 204 329 175 366 c 128,-1,23
 146 403 146 403 146 469 c 0,24,25
 146 566 146 566 209 629 c 128,-1,26
 272 692 272 692 377 692 c 0,27,28
 425 692 425 692 477.5 682.5 c 128,-1,29
 530 673 530 673 558 664 c 2,30,-1
 586 654 l 1,31,-1
 561 556 l 1,32,33
 451 574 451 574 381 574 c 0,0,1
EndSplineSet
Position2: "'cpsp' Capital Spacing in Latin lookup 0 subtable" dx=5 dy=0 dh=10 dv=0
EndChar

StartChar: T
Encoding: 84 84 55
Width: 456
GlyphClass: 2
Flags: W
LayerCount: 2
Fore
SplineSet
138 560 m 1,0,-1
 166 680 l 1,1,-1
 604 680 l 1,2,-1
 576 560 l 1,3,-1
 425 560 l 1,4,-1
 296 0 l 1,5,-1
 158 0 l 1,6,-1
 287 560 l 1,7,-1
 138 560 l 1,0,-1
EndSplineSet
Position2: "'cpsp' Capital Spacing in Latin lookup 0 subtable" dx=5 dy=0 dh=10 dv=0
EndChar

StartChar: U
Encoding: 85 85 56
Width: 595
GlyphClass: 2
Flags: W
LayerCount: 2
Fore
SplineSet
249 231 m 2,0,1
 240 193 240 193 240 162.5 c 128,-1,2
 240 132 240 132 260.5 120 c 128,-1,3
 281 108 281 108 332.5 108 c 128,-1,4
 384 108 384 108 410 135.5 c 128,-1,5
 436 163 436 163 451 231 c 2,6,-1
 555 680 l 1,7,-1
 693 680 l 1,8,-1
 589 231 l 2,9,10
 560 103 560 103 494.5 45.5 c 128,-1,11
 429 -12 429 -12 321 -12 c 0,12,13
 103 -12 103 -12 103 142 c 0,14,15
 103 194 103 194 116 253 c 2,16,-1
 215 680 l 1,17,-1
 353 680 l 1,18,-1
 249 231 l 2,0,1
EndSplineSet
Position2: "'cpsp' Capital Spacing in Latin lookup 0 subtable" dx=5 dy=0 dh=10 dv=0
EndChar

StartChar: V
Encoding: 86 86 57
Width: 555
GlyphClass: 2
Flags: W
LayerCount: 2
Fore
SplineSet
561 680 m 1,0,-1
 699 680 l 1,1,-1
 391 0 l 1,2,-1
 156 0 l 1,3,-1
 170 680 l 1,4,-1
 308 680 l 1,5,-1
 284 120 l 1,6,-1
 317 120 l 1,7,-1
 561 680 l 1,0,-1
EndSplineSet
Position2: "'cpsp' Capital Spacing in Latin lookup 0 subtable" dx=5 dy=0 dh=10 dv=0
EndChar

StartChar: W
Encoding: 87 87 58
Width: 865
GlyphClass: 2
Flags: W
LayerCount: 2
Fore
SplineSet
174 680 m 1,0,-1
 312 680 l 1,1,-1
 270 127 l 1,2,-1
 284 127 l 1,3,-1
 510 670 l 1,4,-1
 662 670 l 1,5,-1
 629 127 l 1,6,-1
 643 127 l 1,7,-1
 867 680 l 1,8,-1
 1005 680 l 1,9,-1
 714 0 l 1,10,-1
 514 0 l 1,11,-1
 547 494 l 1,12,-1
 349 0 l 1,13,-1
 143 0 l 1,14,-1
 174 680 l 1,0,-1
EndSplineSet
Position2: "'cpsp' Capital Spacing in Latin lookup 0 subtable" dx=5 dy=0 dh=10 dv=0
EndChar

StartChar: X
Encoding: 88 88 59
Width: 520
GlyphClass: 2
Flags: W
LayerCount: 2
Fore
SplineSet
313 680 m 1,0,-1
 362 441 l 1,1,-1
 526 680 l 1,2,-1
 671 680 l 1,3,-1
 421 342 l 1,4,-1
 515 0 l 1,5,-1
 370 0 l 1,6,-1
 315 243 l 1,7,-1
 146 0 l 1,8,-1
 1 0 l 1,9,-1
 257 343 l 1,10,-1
 167 680 l 1,11,-1
 313 680 l 1,0,-1
EndSplineSet
Position2: "'cpsp' Capital Spacing in Latin lookup 0 subtable" dx=5 dy=0 dh=10 dv=0
EndChar

StartChar: Y
Encoding: 89 89 60
Width: 504
GlyphClass: 2
Flags: W
LayerCount: 2
Fore
SplineSet
661 680 m 1,0,-1
 381 288 l 1,1,-1
 313 0 l 1,2,-1
 185 0 l 1,3,-1
 253 294 l 1,4,-1
 158 680 l 1,5,-1
 298 680 l 1,6,-1
 346 415 l 1,7,-1
 515 680 l 1,8,-1
 661 680 l 1,0,-1
EndSplineSet
Position2: "'cpsp' Capital Spacing in Latin lookup 0 subtable" dx=5 dy=0 dh=10 dv=0
EndChar

StartChar: Z
Encoding: 90 90 61
Width: 490
GlyphClass: 2
Flags: W
LayerCount: 2
Fore
SplineSet
165 560 m 1,0,-1
 193 680 l 1,1,-1
 611 680 l 1,2,-1
 579 541 l 1,3,-1
 226 144 l 1,4,-1
 220 120 l 1,5,-1
 482 120 l 1,6,-1
 454 0 l 1,7,-1
 36 0 l 1,8,-1
 67 137 l 1,9,-1
 418 536 l 1,10,-1
 423 560 l 1,11,-1
 165 560 l 1,0,-1
EndSplineSet
Position2: "'cpsp' Capital Spacing in Latin lookup 0 subtable" dx=5 dy=0 dh=10 dv=0
EndChar

StartChar: bracketleft
Encoding: 91 91 62
Width: 246
GlyphClass: 2
Flags: W
LayerCount: 2
Fore
SplineSet
187 747 m 1,0,-1
 416 747 l 1,1,-1
 388 633 l 1,2,-1
 300 633 l 1,3,-1
 151 -8 l 1,4,-1
 239 -8 l 1,5,-1
 211 -122 l 1,6,-1
 -15 -122 l 1,7,-1
 187 747 l 1,0,-1
EndSplineSet
Substitution2: "'case' Case-Sensitive Forms in Latin lookup 4 subtable" bracketleft.cap
EndChar

StartChar: backslash
Encoding: 92 92 63
Width: 484
GlyphClass: 2
Flags: W
LayerCount: 2
Fore
SplineSet
458 0 m 1,0,-1
 319 0 l 1,1,-1
 186 702 l 1,2,-1
 326 702 l 1,3,-1
 458 0 l 1,0,-1
EndSplineSet
EndChar

StartChar: bracketright
Encoding: 93 93 64
Width: 245
GlyphClass: 2
Flags: W
LayerCount: 2
Fore
SplineSet
203 -122 m 1,0,-1
 -26 -122 l 1,1,-1
 2 -8 l 1,2,-1
 90 -8 l 1,3,-1
 239 633 l 1,4,-1
 151 633 l 1,5,-1
 179 747 l 1,6,-1
 405 747 l 1,7,-1
 203 -122 l 1,0,-1
EndSplineSet
Substitution2: "'case' Case-Sensitive Forms in Latin lookup 4 subtable" bracketright.cap
EndChar

StartChar: asciicircum
Encoding: 94 94 65
Width: 560
GlyphClass: 2
Flags: W
LayerCount: 2
Fore
SplineSet
417 313 m 1,0,-1
 308 530 l 1,1,-1
 195 313 l 1,2,-1
 55 313 l 1,3,-1
 249 660 l 1,4,-1
 363 660 l 1,5,-1
 557 313 l 1,6,-1
 417 313 l 1,0,-1
EndSplineSet
EndChar

StartChar: underscore
Encoding: 95 95 66
Width: 478
GlyphClass: 2
Flags: W
LayerCount: 2
Fore
SplineSet
-4 -80 m 1,0,-1
 444 -80 l 1,1,-1
 416 -205 l 1,2,-1
 -32 -205 l 1,3,-1
 -4 -80 l 1,0,-1
EndSplineSet
EndChar

StartChar: grave
Encoding: 96 96 67
Width: 518
GlyphClass: 2
Flags: W
LayerCount: 2
Fore
SplineSet
308 772 m 1,0,-1
 529 682 l 1,1,-1
 473 583 l 1,2,-1
 244 662 l 1,3,-1
 308 772 l 1,0,-1
EndSplineSet
EndChar

StartChar: a
Encoding: 97 97 68
Width: 528
GlyphClass: 2
Flags: W
LayerCount: 2
Fore
SplineSet
221 -12 m 0,0,1
 148 -12 148 -12 114 37.5 c 128,-1,2
 80 87 80 87 80 170 c 0,3,4
 80 285 80 285 138 391 c 0,5,6
 167 444 167 444 218 478 c 128,-1,7
 269 512 269 512 334 512 c 0,8,9
 403 512 403 512 538 488 c 1,10,-1
 584 479 l 1,11,-1
 509 156 l 1,12,-1
 482 3 l 1,13,-1
 349 -2 l 1,14,15
 358 59 358 59 362 76 c 1,16,17
 321 21 321 21 266 -2 c 0,18,19
 243 -12 243 -12 221 -12 c 0,0,1
338 398 m 0,20,21
 300 398 300 398 271 359 c 0,22,23
 216 285 216 285 216 170 c 0,24,25
 216 135 216 135 227 118.5 c 128,-1,26
 238 102 238 102 261.5 102 c 128,-1,27
 285 102 285 102 314.5 124 c 128,-1,28
 344 146 344 146 364 168 c 2,29,-1
 384 191 l 1,30,-1
 430 384 l 1,31,32
 364 398 364 398 338 398 c 0,20,21
EndSplineSet
EndChar

StartChar: b
Encoding: 98 98 69
Width: 527
GlyphClass: 2
Flags: W
LayerCount: 2
Fore
SplineSet
412 512 m 0,0,1
 493 512 493 512 527.5 465.5 c 128,-1,2
 562 419 562 419 562 349 c 0,3,4
 562 192 562 192 492 90.5 c 128,-1,5
 422 -11 422 -11 302 -11 c 0,6,7
 254 -11 254 -11 193 -3 c 128,-1,8
 132 5 132 5 95 14 c 2,9,-1
 58 22 l 1,10,-1
 214 700 l 1,11,-1
 348 700 l 1,12,-1
 293 461 l 1,13,14
 316 481 316 481 350.5 496.5 c 128,-1,15
 385 512 385 512 412 512 c 0,0,1
213 113 m 1,16,17
 257 103 257 103 294.5 103 c 128,-1,18
 332 103 332 103 358 128 c 128,-1,19
 384 153 384 153 398 191 c 0,20,21
 425 268 425 268 425 333 c 128,-1,22
 425 398 425 398 372 398 c 0,23,24
 352 398 352 398 326 385.5 c 128,-1,25
 300 373 300 373 284 360 c 1,26,-1
 267 348 l 1,27,-1
 213 113 l 1,16,17
EndSplineSet
EndChar

StartChar: c
Encoding: 99 99 70
Width: 409
GlyphClass: 2
Flags: W
LayerCount: 2
Fore
SplineSet
343 512 m 0,0,1
 403 512 403 512 470 488 c 1,2,-1
 492 481 l 1,3,-1
 458 383 l 1,4,5
 381 396 381 396 337 396 c 0,6,7
 280 396 280 396 249 333.5 c 128,-1,8
 218 271 218 271 218 187.5 c 128,-1,9
 218 104 218 104 294 104 c 1,10,-1
 401 112 l 1,11,-1
 390 13 l 1,12,13
 317 -12 317 -12 244 -12 c 128,-1,14
 171 -12 171 -12 126.5 34 c 128,-1,15
 82 80 82 80 82 162 c 0,16,17
 82 315 82 315 149.5 413.5 c 128,-1,18
 217 512 217 512 343 512 c 0,0,1
EndSplineSet
EndChar

StartChar: d
Encoding: 100 100 71
Width: 528
GlyphClass: 2
Flags: W
LayerCount: 2
Fore
SplineSet
224 -12 m 0,0,1
 153 -12 153 -12 116.5 34 c 128,-1,2
 80 80 80 80 80 165 c 128,-1,3
 80 250 80 250 107.5 327 c 128,-1,4
 135 404 135 404 194 457.5 c 128,-1,5
 253 511 253 511 332 511 c 0,6,7
 366 511 366 511 432 495 c 2,8,-1
 452 490 l 1,9,-1
 501 700 l 1,10,-1
 635 700 l 1,11,-1
 473 0 l 1,12,-1
 343 0 l 1,13,-1
 352 52 l 1,14,15
 332 29 332 29 294 8.5 c 128,-1,16
 256 -12 256 -12 224 -12 c 0,0,1
428 383 m 1,17,18
 370 397 370 397 333.5 397 c 128,-1,19
 297 397 297 397 269.5 357.5 c 128,-1,20
 242 318 242 318 229 266 c 128,-1,21
 216 214 216 214 216 166 c 0,22,23
 216 102 216 102 267 102 c 0,24,25
 283 102 283 102 311.5 120 c 128,-1,26
 340 138 340 138 360 156 c 2,27,-1
 380 174 l 1,28,-1
 428 383 l 1,17,18
EndSplineSet
EndChar

StartChar: e
Encoding: 101 101 72
Width: 476
GlyphClass: 2
Flags: W
LayerCount: 2
Fore
SplineSet
235.5 117 m 128,-1,1
 256 102 256 102 287 102 c 0,2,3
 356 102 356 102 428 112 c 1,4,-1
 454 115 l 1,5,-1
 439 16 l 1,6,7
 346 -12 346 -12 255 -12 c 128,-1,8
 164 -12 164 -12 122.5 29 c 128,-1,9
 81 70 81 70 81 149 c 128,-1,10
 81 228 81 228 97 290 c 128,-1,11
 113 352 113 352 144.5 402 c 128,-1,12
 176 452 176 452 230.5 481.5 c 128,-1,13
 285 511 285 511 355 511 c 0,14,15
 530 511 530 511 530 362 c 0,16,17
 530 267 530 267 466 231 c 128,-1,18
 402 195 402 195 253 195 c 2,19,-1
 218 195 l 1,20,21
 215 183 215 183 215 157.5 c 128,-1,0
 215 132 215 132 235.5 117 c 128,-1,1
274 294 m 2,22,23
 343 294 343 294 370.5 309 c 128,-1,24
 398 324 398 324 398 360 c 0,25,26
 398 403 398 403 348 403 c 0,27,28
 259 403 259 403 233 294 c 1,29,-1
 274 294 l 2,22,23
EndSplineSet
EndChar

StartChar: f
Encoding: 102 102 73
Width: 328
GlyphClass: 2
Flags: W
LayerCount: 2
Fore
SplineSet
378 712 m 0,0,1
 417 712 417 712 460 694 c 1,2,-1
 473 689 l 1,3,-1
 449 591 l 1,4,5
 414 598 414 598 387.5 598 c 128,-1,6
 361 598 361 598 350.5 578.5 c 128,-1,7
 340 559 340 559 330 519 c 2,8,-1
 325 500 l 1,9,-1
 430 500 l 1,10,-1
 402 386 l 1,11,-1
 300 386 l 1,12,-1
 210 0 l 1,13,-1
 147 -211 l 1,14,-1
 26 -211 l 1,15,-1
 166 384 l 1,16,-1
 120 384 l 1,17,-1
 148 500 l 1,18,-1
 191 500 l 1,19,-1
 196 520 l 1,20,21
 220 625 220 625 258.5 668.5 c 128,-1,22
 297 712 297 712 378 712 c 0,0,1
EndSplineSet
EndChar

StartChar: g
Encoding: 103 103 74
Width: 484
GlyphClass: 2
Flags: W
LayerCount: 2
Fore
SplineSet
226 -230 m 0,0,1
 9 -230 9 -230 9 -93 c 0,2,3
 9 -46 9 -46 42.5 -15.5 c 128,-1,4
 76 15 76 15 131 42 c 1,5,6
 111 62 111 62 111 88.5 c 128,-1,7
 111 115 111 115 126 139 c 128,-1,8
 141 163 141 163 156 177 c 2,9,-1
 171 191 l 1,10,11
 103 231 103 231 103 316 c 128,-1,12
 103 401 103 401 160 456.5 c 128,-1,13
 217 512 217 512 310 512 c 0,14,15
 353 512 353 512 412 498 c 1,16,-1
 431 494 l 1,17,-1
 577 500 l 1,18,-1
 552 392 l 1,19,-1
 494 392 l 1,20,21
 498 370 498 370 498 341 c 0,22,23
 498 264 498 264 438.5 210.5 c 128,-1,24
 379 157 379 157 289 157 c 1,25,-1
 246 162 l 1,26,27
 231 142 231 142 231 128 c 128,-1,28
 231 114 231 114 250 108 c 128,-1,29
 269 102 269 102 325 94 c 0,30,31
 467 73 467 73 467 -32 c 0,32,33
 467 -121 467 -121 402.5 -175.5 c 128,-1,34
 338 -230 338 -230 226 -230 c 0,0,1
149.5 -24.5 m 128,-1,36
 131 -44 131 -44 131 -65 c 128,-1,37
 131 -86 131 -86 153 -102 c 128,-1,38
 175 -118 175 -118 223 -118 c 0,39,40
 341 -118 341 -118 341 -48 c 0,41,42
 341 -35 341 -35 331.5 -27 c 128,-1,43
 322 -19 322 -19 310 -16 c 128,-1,44
 298 -13 298 -13 246.5 -4.5 c 128,-1,45
 195 4 195 4 188 6 c 1,46,35
 168 -5 168 -5 149.5 -24.5 c 128,-1,36
296 266 m 0,47,48
 331 266 331 266 353 289.5 c 128,-1,49
 375 313 375 313 375 347 c 0,50,51
 375 403 375 403 305 403 c 0,52,53
 270 403 270 403 248 380 c 128,-1,54
 226 357 226 357 226 322 c 0,55,56
 226 266 226 266 296 266 c 0,47,48
EndSplineSet
EndChar

StartChar: h
Encoding: 104 104 75
Width: 513
GlyphClass: 2
Flags: W
LayerCount: 2
Fore
SplineSet
419 512 m 0,0,1
 541 512 541 512 541 371 c 0,2,3
 541 335 541 335 520 245 c 2,4,-1
 464 0 l 1,5,-1
 330 0 l 1,6,-1
 384 235 l 2,7,8
 402 310 402 310 402 339.5 c 128,-1,9
 402 369 402 369 394.5 382.5 c 128,-1,10
 387 396 387 396 368 396 c 0,11,12
 334 396 334 396 283 351 c 2,13,-1
 266 336 l 1,14,-1
 189 0 l 1,15,-1
 55 0 l 1,16,-1
 216 700 l 1,17,-1
 350 700 l 1,18,-1
 294 453 l 1,19,20
 316 475 316 475 353 493.5 c 128,-1,21
 390 512 390 512 419 512 c 0,0,1
EndSplineSet
EndChar

StartChar: i
Encoding: 105 105 76
Width: 243
GlyphClass: 2
Flags: W
LayerCount: 2
Fore
SplineSet
55 0 m 1,0,-1
 170 500 l 1,1,-1
 304 500 l 1,2,-1
 189 0 l 1,3,-1
 55 0 l 1,0,-1
181 552 m 1,4,-1
 213 689 l 1,5,-1
 348 689 l 1,6,-1
 317 552 l 1,7,-1
 181 552 l 1,4,-1
EndSplineSet
EndChar

StartChar: j
Encoding: 106 106 77
Width: 243
GlyphClass: 2
Flags: W
LayerCount: 2
Fore
SplineSet
55 0 m 2,0,-1
 170 500 l 1,1,-1
 304 500 l 1,2,-1
 189 0 l 2,3,4
 180 -40 180 -40 174.5 -60 c 128,-1,5
 169 -80 169 -80 157 -103.5 c 128,-1,6
 145 -127 145 -127 134 -138.5 c 128,-1,7
 123 -150 123 -150 98 -166 c 1,8,9
 64 -190 64 -190 -28 -230 c 1,10,-1
 -70 -123 l 1,11,12
 7 -83 7 -83 25.5 -64.5 c 128,-1,13
 44 -46 44 -46 55 0 c 2,0,-1
179 543 m 1,14,-1
 211 680 l 1,15,-1
 346 680 l 1,16,-1
 315 543 l 1,17,-1
 179 543 l 1,14,-1
EndSplineSet
EndChar

StartChar: k
Encoding: 107 107 78
Width: 467
GlyphClass: 2
Flags: W
LayerCount: 2
Fore
SplineSet
189 0 m 1,0,-1
 55 0 l 1,1,-1
 216 700 l 1,2,-1
 350 700 l 1,3,-1
 260 311 l 1,4,-1
 294 318 l 1,5,-1
 421 499 l 1,6,-1
 568 499 l 1,7,-1
 394 259 l 1,8,-1
 460 0 l 1,9,-1
 323 0 l 1,10,-1
 275 207 l 1,11,-1
 235 201 l 1,12,-1
 189 0 l 1,0,-1
EndSplineSet
EndChar

StartChar: l
Encoding: 108 108 79
Width: 244
GlyphClass: 2
Flags: W
LayerCount: 2
Fore
SplineSet
55 0 m 1,0,-1
 216 700 l 1,1,-1
 350 700 l 1,2,-1
 189 0 l 1,3,-1
 55 0 l 1,0,-1
EndSplineSet
EndChar

StartChar: m
Encoding: 109 109 80
Width: 776
GlyphClass: 2
Flags: W
LayerCount: 2
Fore
SplineSet
383 235 m 2,0,1
 401 310 401 310 401 339 c 128,-1,2
 401 368 401 368 392.5 382 c 128,-1,3
 384 396 384 396 365 396 c 0,4,5
 332 396 332 396 282 351 c 1,6,-1
 266 336 l 1,7,-1
 189 0 l 1,8,-1
 55 0 l 1,9,-1
 170 500 l 1,10,-1
 298 500 l 1,11,-1
 293 452 l 1,12,13
 331 490 331 490 382 506 c 0,14,15
 403 512 403 512 432 512 c 128,-1,16
 461 512 461 512 487 494 c 128,-1,17
 513 476 513 476 520 458 c 2,18,-1
 527 441 l 1,19,20
 536 449 536 449 551 461 c 128,-1,21
 566 473 566 473 607.5 492.5 c 128,-1,22
 649 512 649 512 683 512 c 0,23,24
 803 512 803 512 803 371 c 0,25,26
 803 326 803 326 784 245 c 2,27,-1
 728 0 l 1,28,-1
 594 0 l 1,29,-1
 650 235 l 2,30,31
 668 310 668 310 668 338 c 128,-1,32
 668 366 668 366 660 381 c 128,-1,33
 652 396 652 396 633.5 396 c 128,-1,34
 615 396 615 396 590.5 381.5 c 128,-1,35
 566 367 566 367 550 352 c 2,36,-1
 534 338 l 1,37,38
 527 278 527 278 519 245 c 2,39,-1
 463 0 l 1,40,-1
 329 0 l 1,41,-1
 383 235 l 2,0,1
EndSplineSet
EndChar

StartChar: n
Encoding: 110 110 81
Width: 513
GlyphClass: 2
Flags: W
LayerCount: 2
Fore
SplineSet
419 512 m 0,0,1
 541 512 541 512 541 371 c 0,2,3
 541 335 541 335 520 245 c 2,4,-1
 464 0 l 1,5,-1
 330 0 l 1,6,-1
 384 235 l 2,7,8
 402 310 402 310 402 339.5 c 128,-1,9
 402 369 402 369 394.5 382.5 c 128,-1,10
 387 396 387 396 367 396 c 0,11,12
 332 396 332 396 282 351 c 1,13,-1
 266 336 l 1,14,-1
 189 0 l 1,15,-1
 55 0 l 1,16,-1
 170 500 l 1,17,-1
 298 500 l 1,18,-1
 292 451 l 1,19,20
 315 474 315 474 352.5 493 c 128,-1,21
 390 512 390 512 419 512 c 0,0,1
EndSplineSet
EndChar

StartChar: o
Encoding: 111 111 82
Width: 496
GlyphClass: 2
Flags: W
LayerCount: 2
Fore
SplineSet
333 511 m 0,0,1
 530 511 530 511 530 322 c 0,2,3
 530 241 530 241 503 167 c 128,-1,4
 476 93 476 93 416.5 40.5 c 128,-1,5
 357 -12 357 -12 277 -12 c 0,6,7
 80 -12 80 -12 80 177 c 0,8,9
 80 257 80 257 109 332 c 128,-1,10
 138 407 138 407 197.5 459 c 128,-1,11
 257 511 257 511 333 511 c 0,0,1
277 102 m 0,12,13
 331 102 331 102 364 170.5 c 128,-1,14
 397 239 397 239 397 324 c 0,15,16
 397 397 397 397 333 397 c 0,17,18
 279 397 279 397 246 328.5 c 128,-1,19
 213 260 213 260 213 175 c 0,20,21
 213 102 213 102 277 102 c 0,12,13
EndSplineSet
EndChar

StartChar: p
Encoding: 112 112 83
Width: 527
GlyphClass: 2
Flags: W
LayerCount: 2
Fore
SplineSet
418 512 m 0,0,1
 491 512 491 512 527 465.5 c 128,-1,2
 563 419 563 419 563 336.5 c 128,-1,3
 563 254 563 254 535.5 175.5 c 128,-1,4
 508 97 508 97 449 43 c 128,-1,5
 390 -11 390 -11 311 -11 c 0,6,7
 266 -11 266 -11 210 4 c 1,8,-1
 190 10 l 1,9,-1
 139 -210 l 1,10,-1
 7 -210 l 1,11,-1
 170 500 l 1,12,-1
 301 500 l 1,13,-1
 291 448 l 1,14,15
 316 473 316 473 352.5 492.5 c 128,-1,16
 389 512 389 512 418 512 c 0,0,1
376 398 m 0,17,18
 360 398 360 398 331.5 380 c 128,-1,19
 303 362 303 362 283 344 c 2,20,-1
 263 326 l 1,21,-1
 215 117 l 1,22,23
 273 103 273 103 309.5 103 c 128,-1,24
 346 103 346 103 373.5 142.5 c 128,-1,25
 401 182 401 182 414 234 c 128,-1,26
 427 286 427 286 427 334 c 0,27,28
 427 398 427 398 376 398 c 0,17,18
EndSplineSet
EndChar

StartChar: q
Encoding: 113 113 84
Width: 526
GlyphClass: 2
Flags: W
LayerCount: 2
Fore
SplineSet
224 -12 m 0,0,1
 154 -12 154 -12 117 34 c 128,-1,2
 80 80 80 80 80 165 c 128,-1,3
 80 250 80 250 108.5 328.5 c 128,-1,4
 137 407 137 407 196 459 c 128,-1,5
 255 511 255 511 332 511 c 0,6,7
 402 511 402 511 539 486 c 2,8,-1
 583 478 l 1,9,-1
 425 -210 l 1,10,-1
 291 -210 l 1,11,-1
 352 53 l 1,12,13
 346 46 346 46 334.5 35 c 128,-1,14
 323 24 323 24 289.5 6 c 128,-1,15
 256 -12 256 -12 224 -12 c 0,0,1
331 397 m 0,16,17
 282 397 282 397 249 322.5 c 128,-1,18
 216 248 216 248 216 166 c 0,19,20
 216 102 216 102 267 102 c 0,21,22
 283 102 283 102 311.5 120 c 128,-1,23
 340 138 340 138 360 156 c 2,24,-1
 380 174 l 1,25,-1
 428 383 l 1,26,27
 369 397 369 397 331 397 c 0,16,17
EndSplineSet
EndChar

StartChar: r
Encoding: 114 114 85
Width: 334
GlyphClass: 2
Flags: W
LayerCount: 2
Fore
SplineSet
55 0 m 1,0,-1
 170 500 l 1,1,-1
 303 500 l 1,2,-1
 285 428 l 1,3,4
 315 455 315 455 362 481.5 c 128,-1,5
 409 508 409 508 442 512 c 1,6,-1
 403 372 l 1,7,8
 355 357 355 357 286 326 c 2,9,-1
 262 315 l 1,10,-1
 189 0 l 1,11,-1
 55 0 l 1,0,-1
EndSplineSet
EndChar

StartChar: s
Encoding: 115 115 86
Width: 432
GlyphClass: 2
Flags: W
LayerCount: 2
Fore
SplineSet
302 397 m 0,0,1
 272 397 272 397 256 383 c 128,-1,2
 240 369 240 369 240 350.5 c 128,-1,3
 240 332 240 332 254 323 c 128,-1,4
 268 314 268 314 326.5 296 c 128,-1,5
 385 278 385 278 414.5 254.5 c 128,-1,6
 444 231 444 231 444 178 c 0,7,8
 444 84 444 84 382.5 36 c 128,-1,9
 321 -12 321 -12 219 -12 c 0,10,11
 176 -12 176 -12 132.5 -3.5 c 128,-1,12
 89 5 89 5 68 14 c 1,13,-1
 46 22 l 1,14,-1
 71 120 l 1,15,16
 167 102 167 102 237 102 c 128,-1,17
 307 102 307 102 307 151 c 0,18,19
 307 164 307 164 293 171.5 c 128,-1,20
 279 179 279 179 245 189 c 0,21,22
 174 209 174 209 140 236 c 128,-1,23
 106 263 106 263 106 313 c 0,24,25
 106 406 106 406 167 458.5 c 128,-1,26
 228 511 228 511 314 511 c 0,27,28
 361 511 361 511 406 503.5 c 128,-1,29
 451 496 451 496 472 488 c 2,30,-1
 494 480 l 1,31,-1
 470 381 l 1,32,33
 367 397 367 397 302 397 c 0,0,1
EndSplineSet
EndChar

StartChar: t
Encoding: 116 116 87
Width: 329
GlyphClass: 2
Flags: W
LayerCount: 2
Fore
SplineSet
238 130 m 0,0,1
 238 102 238 102 267 102 c 1,2,-1
 335 107 l 1,3,-1
 324 11 l 1,4,5
 271 -12 271 -12 214.5 -12 c 128,-1,6
 158 -12 158 -12 128.5 18.5 c 128,-1,7
 99 49 99 49 99 92.5 c 128,-1,8
 99 136 99 136 114 198 c 2,9,-1
 158 386 l 1,10,-1
 104 386 l 1,11,-1
 134 500 l 1,12,-1
 185 500 l 1,13,-1
 214 628 l 1,14,-1
 348 628 l 1,15,-1
 319 500 l 1,16,-1
 424 500 l 1,17,-1
 396 386 l 1,18,-1
 292 386 l 1,19,-1
 246 186 l 2,20,21
 238 152 238 152 238 130 c 0,0,1
EndSplineSet
EndChar

StartChar: u
Encoding: 117 117 88
Width: 513
GlyphClass: 2
Flags: W
LayerCount: 2
Fore
SplineSet
209 -12 m 0,0,1
 87 -12 87 -12 87 129 c 0,2,3
 87 168 87 168 108 255 c 1,4,-1
 164 500 l 1,5,-1
 298 500 l 1,6,-1
 244 265 l 2,7,8
 226 190 226 190 226 161 c 128,-1,9
 226 132 226 132 234.5 118 c 128,-1,10
 243 104 243 104 262 104 c 0,11,12
 296 104 296 104 346 149 c 1,13,-1
 362 164 l 1,14,-1
 439 500 l 1,15,-1
 573 500 l 1,16,-1
 458 0 l 1,17,-1
 330 0 l 1,18,-1
 336 49 l 1,19,20
 313 26 313 26 275.5 7 c 128,-1,21
 238 -12 238 -12 209 -12 c 0,0,1
EndSplineSet
EndChar

StartChar: v
Encoding: 118 118 89
Width: 463
GlyphClass: 2
Flags: W
LayerCount: 2
Fore
SplineSet
126 500 m 1,0,-1
 257 500 l 1,1,-1
 243 111 l 1,2,-1
 261 111 l 1,3,-1
 432 500 l 1,4,-1
 567 500 l 1,5,-1
 332 0 l 1,6,-1
 122 0 l 1,7,-1
 126 500 l 1,0,-1
EndSplineSet
EndChar

StartChar: w
Encoding: 119 119 90
Width: 762
GlyphClass: 2
Flags: W
LayerCount: 2
Fore
SplineSet
135 500 m 1,0,-1
 270 500 l 1,1,-1
 238 114 l 1,2,-1
 261 114 l 1,3,-1
 420 490 l 1,4,-1
 572 490 l 1,5,-1
 552 114 l 1,6,-1
 575 114 l 1,7,-1
 724 500 l 1,8,-1
 859 500 l 1,9,-1
 655 0 l 1,10,-1
 432 0 l 1,11,-1
 451 311 l 1,12,-1
 325 0 l 1,13,-1
 106 0 l 1,14,-1
 135 500 l 1,0,-1
EndSplineSet
EndChar

StartChar: x
Encoding: 120 120 91
Width: 430
GlyphClass: 2
Flags: W
LayerCount: 2
Fore
SplineSet
124 500 m 1,0,-1
 260 500 l 1,1,-1
 299 347 l 1,2,-1
 403 500 l 1,3,-1
 539 500 l 1,4,-1
 342 240 l 1,5,-1
 422 0 l 1,6,-1
 286 0 l 1,7,-1
 247 147 l 1,8,-1
 145 0 l 1,9,-1
 6 0 l 1,10,-1
 202 250 l 1,11,-1
 124 500 l 1,0,-1
EndSplineSet
EndChar

StartChar: y
Encoding: 121 121 92
Width: 464
GlyphClass: 2
Flags: W
LayerCount: 2
Fore
SplineSet
126 500 m 1,0,-1
 257 500 l 1,1,-1
 243 111 l 1,2,-1
 258 111 l 1,3,-1
 432 500 l 1,4,-1
 567 500 l 1,5,-1
 235 -210 l 1,6,-1
 102 -210 l 1,7,-1
 205 0 l 1,8,-1
 122 0 l 1,9,-1
 126 500 l 1,0,-1
EndSplineSet
EndChar

StartChar: z
Encoding: 122 122 93
Width: 414
GlyphClass: 2
Flags: W
LayerCount: 2
Fore
SplineSet
122 386 m 1,0,-1
 151 500 l 1,1,-1
 496 500 l 1,2,-1
 468 389 l 1,3,-1
 216 114 l 1,4,-1
 408 114 l 1,5,-1
 379 0 l 1,6,-1
 34 0 l 1,7,-1
 59 112 l 1,8,-1
 310 386 l 1,9,-1
 122 386 l 1,0,-1
EndSplineSet
EndChar

StartChar: braceleft
Encoding: 123 123 94
Width: 288
GlyphClass: 2
Flags: W
LayerCount: 2
Fore
SplineSet
204 313 m 1,0,1
 265 279 265 279 265 227 c 0,2,3
 265 200 265 200 242.5 124 c 128,-1,4
 220 48 220 48 220 30 c 0,5,6
 220 -18 220 -18 278 -18 c 1,7,-1
 247 -133 l 1,8,9
 174 -133 174 -133 131 -100 c 128,-1,10
 88 -67 88 -67 88 -8 c 0,11,12
 88 13 88 13 109 91.5 c 128,-1,13
 130 170 130 170 130 190 c 0,14,15
 130 240 130 240 63 275 c 1,16,-1
 87 370 l 1,17,18
 148 386 148 386 167.5 403.5 c 128,-1,19
 187 421 187 421 196 457 c 1,20,-1
 225 603 l 1,21,22
 250 687 250 687 303 721 c 128,-1,23
 356 755 356 755 458 759 c 1,24,-1
 436 644 l 1,25,26
 395 640 395 640 375 622 c 128,-1,27
 355 604 355 604 347 572 c 1,28,-1
 323 446 l 1,29,30
 309 389 309 389 282.5 360 c 128,-1,31
 256 331 256 331 204 313 c 1,0,1
EndSplineSet
Substitution2: "'case' Case-Sensitive Forms in Latin lookup 4 subtable" braceleft.cap
EndChar

StartChar: bar
Encoding: 124 124 95
Width: 335
GlyphClass: 2
Flags: W
LayerCount: 2
Fore
SplineSet
157 -210 m 1,0,-1
 157 700 l 1,1,-1
 291 700 l 1,2,-1
 291 -210 l 1,3,-1
 157 -210 l 1,0,-1
EndSplineSet
EndChar

StartChar: braceright
Encoding: 125 125 96
Width: 287
GlyphClass: 2
Flags: W
LayerCount: 2
Fore
SplineSet
227 310 m 1,0,1
 166 344 166 344 166 396 c 0,2,3
 166 423 166 423 188.5 499 c 128,-1,4
 211 575 211 575 211 593 c 0,5,6
 211 641 211 641 153 641 c 1,7,-1
 184 756 l 1,8,9
 257 756 257 756 300 723 c 128,-1,10
 343 690 343 690 343 631 c 0,11,12
 343 610 343 610 322 531.5 c 128,-1,13
 301 453 301 453 301 433 c 0,14,15
 301 383 301 383 368 348 c 1,16,-1
 344 253 l 1,17,18
 283 237 283 237 263.5 219.5 c 128,-1,19
 244 202 244 202 235 166 c 1,20,-1
 206 20 l 1,21,22
 181 -64 181 -64 128 -98 c 128,-1,23
 75 -132 75 -132 -27 -136 c 1,24,-1
 -5 -21 l 1,25,26
 36 -17 36 -17 56 1 c 128,-1,27
 76 19 76 19 84 51 c 1,28,-1
 108 177 l 1,29,30
 122 234 122 234 148.5 263 c 128,-1,31
 175 292 175 292 227 310 c 1,0,1
EndSplineSet
Substitution2: "'case' Case-Sensitive Forms in Latin lookup 4 subtable" braceright.cap
EndChar

StartChar: asciitilde
Encoding: 126 126 97
Width: 560
GlyphClass: 2
Flags: W
LayerCount: 2
Fore
SplineSet
442 170 m 128,-1,1
 414 170 414 170 335 192 c 128,-1,2
 256 214 256 214 237 214 c 128,-1,3
 218 214 218 214 190.5 204 c 128,-1,4
 163 194 163 194 146 184 c 2,5,-1
 130 175 l 1,6,-1
 120 282 l 1,7,8
 183 334 183 334 243 334 c 0,9,10
 271 334 271 334 347 312 c 128,-1,11
 423 290 423 290 443 290 c 0,12,13
 480 290 480 290 531 318 c 1,14,-1
 548 328 l 1,15,-1
 556 221 l 1,16,17
 537 202 537 202 503.5 186 c 128,-1,0
 470 170 470 170 442 170 c 128,-1,1
EndSplineSet
EndChar

StartChar: exclamdown
Encoding: 161 161 99
Width: 161
GlyphClass: 2
Flags: W
LayerCount: 2
Fore
SplineSet
201 242 m 1,0,-1
 106 -200 l 1,1,-1
 -37 -200 l 1,2,-1
 75 242 l 1,3,-1
 201 242 l 1,0,-1
264 500 m 1,4,-1
 229 347 l 1,5,-1
 93 347 l 1,6,-1
 128 500 l 1,7,-1
 264 500 l 1,4,-1
EndSplineSet
Substitution2: "'case' Case-Sensitive Forms in Latin lookup 4 subtable" exclamdown.cap
EndChar

StartChar: cent
Encoding: 162 162 100
Width: 560
GlyphClass: 2
Flags: W
LayerCount: 2
Fore
SplineSet
159 105 m 128,-1,1
 148 136 148 136 147 158 c 128,-1,2
 146 180 146 180 146 199 c 128,-1,3
 146 218 146 218 155 250 c 0,4,5
 181 353 181 353 239 408 c 128,-1,6
 297 463 297 463 379 468 c 1,7,-1
 402 570 l 1,8,-1
 510 570 l 1,9,-1
 484 465 l 1,10,-1
 554 455 l 1,11,-1
 520 343 l 1,12,13
 449 346 449 346 401.5 346 c 128,-1,14
 354 346 354 346 325.5 324.5 c 128,-1,15
 297 303 297 303 283 250 c 0,16,17
 278 228 278 228 278 208.5 c 128,-1,18
 278 189 278 189 288 176 c 0,19,20
 306 153 306 153 370 153 c 1,21,-1
 478 157 l 1,22,-1
 457 45 l 1,23,24
 420 39 420 39 382 36 c 1,25,-1
 357 -74 l 1,26,-1
 251 -74 l 1,27,-1
 274 29 l 1,28,29
 230 32 230 32 200 53 c 128,-1,0
 170 74 170 74 159 105 c 128,-1,1
EndSplineSet
EndChar

StartChar: sterling
Encoding: 163 163 101
Width: 560
GlyphClass: 2
Flags: W
LayerCount: 2
Fore
SplineSet
593 553 m 1,0,1
 530 561 530 561 492.5 561 c 128,-1,2
 455 561 455 561 440.5 539 c 128,-1,3
 426 517 426 517 413 463 c 2,4,-1
 408 443 l 1,5,-1
 565 443 l 1,6,-1
 538 329 l 1,7,-1
 382 329 l 1,8,-1
 332 114 l 1,9,-1
 424 114 l 1,10,-1
 492 132 l 1,11,-1
 489 17 l 1,12,-1
 415 0 l 1,13,-1
 75 0 l 1,14,-1
 101 114 l 1,15,-1
 196 114 l 1,16,-1
 245 329 l 1,17,-1
 165 329 l 1,18,-1
 192 443 l 1,19,-1
 271 443 l 1,20,-1
 280 479 l 2,21,22
 308 589 308 589 351.5 634 c 128,-1,23
 395 679 395 679 481 679 c 0,24,25
 522 679 522 679 600 660 c 2,26,-1
 624 654 l 1,27,-1
 593 553 l 1,0,1
EndSplineSet
EndChar

StartChar: currency
Encoding: 164 164 102
Width: 560
GlyphClass: 2
Flags: W
LayerCount: 2
Fore
SplineSet
338.5 54 m 128,-1,1
 296 54 296 54 254 75 c 1,2,-1
 181 2 l 1,3,-1
 89 94 l 1,4,-1
 162 167 l 1,5,6
 142 209 142 209 142 251.5 c 128,-1,7
 142 294 142 294 162 337 c 1,8,-1
 89 410 l 1,9,-1
 181 502 l 1,10,-1
 254 429 l 1,11,12
 296 449 296 449 338.5 449 c 128,-1,13
 381 449 381 449 424 429 c 1,14,-1
 497 502 l 1,15,-1
 589 410 l 1,16,-1
 516 337 l 1,17,18
 536 294 536 294 536 251.5 c 128,-1,19
 536 209 536 209 516 167 c 1,20,-1
 589 94 l 1,21,-1
 497 2 l 1,22,-1
 424 75 l 1,23,0
 381 54 381 54 338.5 54 c 128,-1,1
339 177 m 128,-1,25
 370 177 370 177 392 199 c 128,-1,26
 414 221 414 221 414 252 c 128,-1,27
 414 283 414 283 392 305 c 128,-1,28
 370 327 370 327 339 327 c 128,-1,29
 308 327 308 327 286 305 c 128,-1,30
 264 283 264 283 264 252 c 128,-1,31
 264 221 264 221 286 199 c 128,-1,24
 308 177 308 177 339 177 c 128,-1,25
EndSplineSet
EndChar

StartChar: yen
Encoding: 165 165 103
Width: 560
GlyphClass: 2
Flags: W
LayerCount: 2
Fore
SplineSet
139 276 m 1,0,-1
 165 394 l 1,1,-1
 235 394 l 1,2,-1
 127 660 l 1,3,-1
 276 660 l 1,4,-1
 374 429 l 1,5,-1
 552 660 l 1,6,-1
 730 660 l 1,7,-1
 516 394 l 1,8,-1
 587 394 l 1,9,-1
 559 276 l 1,10,-1
 427 276 l 1,11,-1
 418 265 l 1,12,-1
 412 243 l 1,13,-1
 552 243 l 1,14,-1
 525 125 l 1,15,-1
 385 125 l 1,16,-1
 356 0 l 1,17,-1
 219 0 l 1,18,-1
 249 125 l 1,19,-1
 103 125 l 1,20,-1
 131 243 l 1,21,-1
 276 243 l 1,22,-1
 281 265 l 1,23,-1
 278 276 l 1,24,-1
 139 276 l 1,0,-1
EndSplineSet
EndChar

StartChar: brokenbar
Encoding: 166 166 104
Width: 335
GlyphClass: 2
Flags: W
LayerCount: 2
Fore
SplineSet
157 700 m 1,0,-1
 291 700 l 1,1,-1
 291 328 l 1,2,-1
 157 328 l 1,3,-1
 157 700 l 1,0,-1
157 170 m 1,4,-1
 291 170 l 1,5,-1
 291 -210 l 1,6,-1
 157 -210 l 1,7,-1
 157 170 l 1,4,-1
EndSplineSet
EndChar

StartChar: section
Encoding: 167 167 105
Width: 487
GlyphClass: 2
Flags: W
LayerCount: 2
Fore
SplineSet
538 502 m 1,0,1
 434 518 434 518 386.5 518 c 128,-1,2
 339 518 339 518 311 501.5 c 128,-1,3
 283 485 283 485 283 455 c 0,4,5
 283 436 283 436 293.5 428.5 c 128,-1,6
 304 421 304 421 310 417.5 c 128,-1,7
 316 414 316 414 329.5 410 c 128,-1,8
 343 406 343 406 350 404 c 0,9,10
 365 399 365 399 396 393 c 1,11,12
 512 365 512 365 512 266 c 0,13,14
 512 237 512 237 495.5 203 c 128,-1,15
 479 169 479 169 464.5 150.5 c 128,-1,16
 450 132 450 132 425 103 c 1,17,18
 442 76 442 76 442 49.5 c 128,-1,19
 442 23 442 23 438 -2 c 128,-1,20
 434 -27 434 -27 418 -62 c 128,-1,21
 402 -97 402 -97 376 -123.5 c 128,-1,22
 350 -150 350 -150 301 -169 c 128,-1,23
 252 -188 252 -188 204 -188 c 0,24,25
 128 -188 128 -188 44 -172 c 1,26,-1
 16 -166 l 1,27,-1
 54 -55 l 1,28,29
 153 -69 153 -69 202.5 -69 c 128,-1,30
 252 -69 252 -69 281.5 -53 c 128,-1,31
 311 -37 311 -37 311 -9 c 0,32,33
 311 14 311 14 294 25 c 0,34,35
 287 30 287 30 249 41 c 128,-1,36
 211 52 211 52 195 57 c 0,37,38
 132 77 132 77 105 106.5 c 128,-1,39
 78 136 78 136 78 182 c 0,40,41
 78 275 78 275 174 346 c 1,42,43
 154 364 154 364 154 428 c 0,44,45
 154 495 154 495 216 562 c 1,46,47
 245 595 245 595 296 616 c 128,-1,48
 347 637 347 637 392 637 c 0,49,50
 468 637 468 637 543 619 c 2,51,-1
 568 613 l 1,52,-1
 538 502 l 1,0,1
227 262 m 128,-1,54
 215 235 215 235 215 224 c 128,-1,55
 215 213 215 213 215.5 210 c 128,-1,56
 216 207 216 207 217 205 c 128,-1,57
 218 203 218 203 220 201 c 0,58,59
 228 193 228 193 236 190 c 128,-1,60
 244 187 244 187 246.5 186 c 128,-1,61
 249 185 249 185 253.5 183 c 128,-1,62
 258 181 258 181 264 178.5 c 128,-1,63
 270 176 270 176 297.5 166 c 128,-1,64
 325 156 325 156 337 151 c 1,65,66
 348 162 348 162 360.5 190 c 128,-1,67
 373 218 373 218 373 235.5 c 128,-1,68
 373 253 373 253 358.5 263.5 c 128,-1,69
 344 274 344 274 301 285 c 128,-1,70
 258 296 258 296 249 301 c 1,71,53
 239 289 239 289 227 262 c 128,-1,54
EndSplineSet
EndChar

StartChar: dieresis
Encoding: 168 168 106
Width: 514
GlyphClass: 2
Flags: W
LayerCount: 2
Fore
SplineSet
215 601 m 1,0,-1
 246 736 l 1,1,-1
 357 736 l 1,2,-1
 325 601 l 1,3,-1
 215 601 l 1,0,-1
409 601 m 1,4,-1
 440 736 l 1,5,-1
 551 736 l 1,6,-1
 519 601 l 1,7,-1
 409 601 l 1,4,-1
EndSplineSet
EndChar

StartChar: copyright
Encoding: 169 169 107
Width: 641
GlyphClass: 2
Flags: W
LayerCount: 2
Fore
SplineSet
223.5 232 m 128,-1,1
 145 314 145 314 145 435.5 c 128,-1,2
 145 557 145 557 223 637.5 c 128,-1,3
 301 718 301 718 422.5 718 c 128,-1,4
 544 718 544 718 620 635.5 c 128,-1,5
 696 553 696 553 696 432 c 128,-1,6
 696 311 696 311 620 230.5 c 128,-1,7
 544 150 544 150 423 150 c 128,-1,0
 302 150 302 150 223.5 232 c 128,-1,1
207 434 m 128,-1,9
 207 341 207 341 268 275.5 c 128,-1,10
 329 210 329 210 420.5 210 c 128,-1,11
 512 210 512 210 573 275 c 128,-1,12
 634 340 634 340 634 433 c 128,-1,13
 634 526 634 526 572.5 592 c 128,-1,14
 511 658 511 658 420.5 658 c 128,-1,15
 330 658 330 658 268.5 592.5 c 128,-1,8
 207 527 207 527 207 434 c 128,-1,9
513 287 m 1,16,17
 485 269 485 269 422.5 269 c 128,-1,18
 360 269 360 269 330.5 305 c 128,-1,19
 301 341 301 341 301 434.5 c 128,-1,20
 301 528 301 528 331.5 563 c 128,-1,21
 362 598 362 598 433 598 c 0,22,23
 472 598 472 598 504 586 c 1,24,-1
 513 583 l 1,25,-1
 506 497 l 1,26,27
 471 503 471 503 445 503 c 128,-1,28
 419 503 419 503 411.5 489 c 128,-1,29
 404 475 404 475 404 439 c 0,30,31
 404 364 404 364 439 364 c 1,32,-1
 506 369 l 1,33,-1
 513 287 l 1,16,17
EndSplineSet
EndChar

StartChar: ordfeminine
Encoding: 170 170 108
Width: 329
GlyphClass: 2
Flags: W
LayerCount: 2
Fore
SplineSet
278 346 m 1,0,1
 228 314 228 314 179 314 c 128,-1,2
 130 314 130 314 109 344 c 0,3,4
 96 362 96 362 96 384 c 0,5,6
 96 463 96 463 146 498 c 0,7,8
 180 522 180 522 248 525 c 2,9,-1
 312 528 l 1,10,-1
 318 550 l 1,11,12
 320 565 320 565 279 565 c 1,13,-1
 146 558 l 1,14,-1
 160 633 l 1,15,16
 237 659 237 659 311 659 c 128,-1,17
 385 659 385 659 417 634 c 0,18,19
 439 618 439 618 439 582 c 0,20,21
 439 565 439 565 434 544 c 2,22,-1
 402 403 l 1,23,24
 408 397 408 397 418 395 c 1,25,-1
 397 313 l 1,26,27
 329 313 329 313 307.5 320.5 c 128,-1,28
 286 328 286 328 278 346 c 1,0,1
213 422 m 0,29,30
 213 402 213 402 239 402 c 0,31,32
 256 402 256 402 288 418 c 1,33,-1
 296 458 l 1,34,-1
 252 455 l 2,35,36
 213 452 213 452 213 422 c 0,29,30
EndSplineSet
EndChar

StartChar: guillemotleft
Encoding: 171 171 109
Width: 482
GlyphClass: 2
Flags: W
LayerCount: 2
Fore
SplineSet
576 436 m 1,0,-1
 539 305 l 1,1,-1
 426 240 l 1,2,-1
 506 163 l 1,3,-1
 473 43 l 1,4,-1
 303 212 l 1,5,-1
 326 273 l 1,6,-1
 576 436 l 1,0,-1
326 436 m 1,7,-1
 289 305 l 1,8,-1
 176 240 l 1,9,-1
 256 163 l 1,10,-1
 223 43 l 1,11,-1
 53 212 l 1,12,-1
 76 273 l 1,13,-1
 326 436 l 1,7,-1
EndSplineSet
EndChar

StartChar: logicalnot
Encoding: 172 172 110
Width: 560
GlyphClass: 2
Flags: W
LayerCount: 2
Fore
SplineSet
113 358 m 1,0,-1
 549 358 l 1,1,-1
 549 104 l 1,2,-1
 429 104 l 1,3,-1
 429 238 l 1,4,-1
 113 238 l 1,5,-1
 113 358 l 1,0,-1
EndSplineSet
EndChar

StartChar: registered
Encoding: 174 174 111
Width: 641
GlyphClass: 2
Flags: W
LayerCount: 2
Fore
SplineSet
223.5 231.5 m 128,-1,1
 145 313 145 313 145 435 c 128,-1,2
 145 557 145 557 223 637.5 c 128,-1,3
 301 718 301 718 422 718 c 128,-1,4
 543 718 543 718 619.5 635.5 c 128,-1,5
 696 553 696 553 696 432 c 128,-1,6
 696 311 696 311 620.5 230.5 c 128,-1,7
 545 150 545 150 423.5 150 c 128,-1,0
 302 150 302 150 223.5 231.5 c 128,-1,1
207 434 m 128,-1,9
 207 342 207 342 269 276 c 128,-1,10
 331 210 331 210 421.5 210 c 128,-1,11
 512 210 512 210 573 275.5 c 128,-1,12
 634 341 634 341 634 433.5 c 128,-1,13
 634 526 634 526 572.5 592 c 128,-1,14
 511 658 511 658 420.5 658 c 128,-1,15
 330 658 330 658 268.5 592 c 128,-1,8
 207 526 207 526 207 434 c 128,-1,9
396 369 m 1,16,-1
 396 276 l 1,17,-1
 300 276 l 1,18,-1
 300 591 l 1,19,-1
 436 591 l 2,20,21
 488 591 488 591 519 565.5 c 128,-1,22
 550 540 550 540 550 493.5 c 128,-1,23
 550 447 550 447 542 425.5 c 128,-1,24
 534 404 534 404 512 386 c 1,25,-1
 553 276 l 1,26,-1
 453 276 l 1,27,-1
 425 369 l 1,28,-1
 396 369 l 1,16,-1
395 519 m 1,29,-1
 395 440 l 1,30,-1
 423 440 l 2,31,32
 457 440 457 440 457 479.5 c 128,-1,33
 457 519 457 519 422 519 c 2,34,-1
 395 519 l 1,29,-1
EndSplineSet
EndChar

StartChar: macron
Encoding: 175 175 112
Width: 462
GlyphClass: 2
Flags: W
LayerCount: 2
Fore
SplineSet
217 627 m 1,0,-1
 242 736 l 1,1,-1
 551 736 l 1,2,-1
 525 627 l 1,3,-1
 217 627 l 1,0,-1
EndSplineSet
EndChar

StartChar: degree
Encoding: 176 176 113
Width: 560
GlyphClass: 2
Flags: W
LayerCount: 2
Fore
SplineSet
255 542 m 128,-1,1
 255 609 255 609 296.5 650.5 c 128,-1,2
 338 692 338 692 405 692 c 128,-1,3
 472 692 472 692 513.5 650.5 c 128,-1,4
 555 609 555 609 555 542 c 128,-1,5
 555 475 555 475 513.5 434 c 128,-1,6
 472 393 472 393 405 393 c 128,-1,7
 338 393 338 393 296.5 434 c 128,-1,0
 255 475 255 475 255 542 c 128,-1,1
330 542 m 128,-1,9
 330 508 330 508 350.5 487 c 128,-1,10
 371 466 371 466 405 466 c 128,-1,11
 439 466 439 466 460.5 487 c 128,-1,12
 482 508 482 508 482 542 c 128,-1,13
 482 576 482 576 460.5 597.5 c 128,-1,14
 439 619 439 619 405 619 c 128,-1,15
 371 619 371 619 350.5 597.5 c 128,-1,8
 330 576 330 576 330 542 c 128,-1,9
EndSplineSet
EndChar

StartChar: plusminus
Encoding: 177 177 114
Width: 560
GlyphClass: 2
Flags: W
LayerCount: 2
Fore
SplineSet
99 270 m 1,0,-1
 99 390 l 1,1,-1
 268 390 l 1,2,-1
 268 498 l 1,3,-1
 388 498 l 1,4,-1
 388 390 l 1,5,-1
 559 390 l 1,6,-1
 559 270 l 1,7,-1
 388 270 l 1,8,-1
 388 170 l 1,9,-1
 268 170 l 1,10,-1
 268 270 l 1,11,-1
 99 270 l 1,0,-1
99 139 m 1,12,-1
 559 139 l 1,13,-1
 559 19 l 1,14,-1
 99 19 l 1,15,-1
 99 139 l 1,12,-1
EndSplineSet
EndChar

StartChar: twosuperior
Encoding: 178 178 115
Width: 280
GlyphClass: 2
Flags: W
LayerCount: 2
Fore
SplineSet
213 792 m 1,0,1
 288 801 288 801 341 801 c 128,-1,2
 394 801 394 801 414 778 c 0,3,4
 425 765 425 765 425 744.5 c 128,-1,5
 425 724 425 724 418 696 c 0,6,7
 404 642 404 642 338 601 c 2,8,-1
 293 573 l 1,9,-1
 387 573 l 1,10,-1
 364 478 l 1,11,-1
 133 478 l 1,12,-1
 155 568 l 1,13,-1
 243 627 l 2,14,15
 297 663 297 663 303 684 c 0,16,17
 305 693 305 693 297.5 696 c 128,-1,18
 290 699 290 699 270 699 c 1,19,-1
 192 693 l 1,20,-1
 213 792 l 1,0,1
EndSplineSet
Substitution2: "Single Substitution lookup 5 subtable" twoinferior
EndChar

StartChar: threesuperior
Encoding: 179 179 116
Width: 280
GlyphClass: 2
Flags: W
LayerCount: 2
Fore
SplineSet
321 801 m 0,0,1
 423 801 423 801 423 738 c 0,2,3
 423 726 423 726 420 712 c 0,4,5
 408 660 408 660 374 642 c 1,6,7
 395 632 395 632 395 602 c 0,8,9
 395 588 395 588 390 569 c 0,10,11
 365 467 365 467 247 467 c 1,12,-1
 128 475 l 1,13,-1
 157 568 l 1,14,15
 217 562 217 562 248 562 c 128,-1,16
 279 562 279 562 283 578 c 0,17,18
 285 587 285 587 280 589.5 c 128,-1,19
 275 592 275 592 260 592 c 2,20,-1
 194 592 l 1,21,-1
 215 677 l 1,22,-1
 279 677 l 2,23,24
 299 677 299 677 302 688 c 128,-1,25
 305 699 305 699 299 702.5 c 128,-1,26
 293 706 293 706 280 706 c 2,27,-1
 194 701 l 1,28,-1
 211 792 l 1,29,30
 281 801 281 801 321 801 c 0,0,1
EndSplineSet
Substitution2: "Single Substitution lookup 5 subtable" threeinferior
EndChar

StartChar: acute
Encoding: 180 180 117
Width: 559
GlyphClass: 2
Flags: W
LayerCount: 2
Fore
SplineSet
254 576 m 1,0,-1
 244 683 l 1,1,-1
 508 774 l 1,2,-1
 518 654 l 1,3,-1
 254 576 l 1,0,-1
EndSplineSet
EndChar

StartChar: mu
Encoding: 181 181 118
Width: 560
GlyphClass: 2
Flags: W
LayerCount: 2
Fore
SplineSet
261 224 m 2,0,1
 252 181 252 181 252 156.5 c 128,-1,2
 252 132 252 132 260.5 118 c 128,-1,3
 269 104 269 104 288 104 c 0,4,5
 322 104 322 104 372 149 c 1,6,-1
 388 164 l 1,7,-1
 465 500 l 1,8,-1
 599 500 l 1,9,-1
 484 0 l 1,10,-1
 356 0 l 1,11,-1
 362 49 l 1,12,13
 339 26 339 26 301.5 7 c 128,-1,14
 264 -12 264 -12 241.5 -12 c 128,-1,15
 219 -12 219 -12 207 -9 c 1,16,-1
 161 -210 l 1,17,-1
 27 -210 l 1,18,-1
 128 232 l 1,19,-1
 131 242 l 2,20,21
 131 245 131 245 133 251 c 2,22,-1
 190 500 l 1,23,-1
 324 500 l 1,24,-1
 275 290 l 1,25,-1
 276 290 l 1,26,-1
 261 224 l 2,0,1
EndSplineSet
EndChar

StartChar: paragraph
Encoding: 182 182 119
Width: 565
GlyphClass: 2
Flags: W
LayerCount: 2
Fore
SplineSet
140 460 m 0,0,1
 140 554 140 554 204 627 c 128,-1,2
 268 700 268 700 367 700 c 2,3,-1
 680 700 l 1,4,-1
 655 594 l 1,5,-1
 621 594 l 1,6,-1
 479 0 l 1,7,-1
 372 0 l 1,8,-1
 513 594 l 1,9,-1
 456 594 l 1,10,-1
 314 0 l 1,11,-1
 206 0 l 1,12,-1
 279 306 l 1,13,14
 205 307 205 307 172.5 350 c 128,-1,15
 140 393 140 393 140 460 c 0,0,1
EndSplineSet
EndChar

StartChar: periodcentered
Encoding: 183 183 120
Width: 151
GlyphClass: 2
Flags: W
LayerCount: 2
Fore
SplineSet
56 207 m 1,0,-1
 94 376 l 1,1,-1
 229 376 l 1,2,-1
 191 207 l 1,3,-1
 56 207 l 1,0,-1
EndSplineSet
Substitution2: "'case' Case-Sensitive Forms in Latin lookup 4 subtable" periodcentered.cap
EndChar

StartChar: cedilla
Encoding: 184 184 121
Width: 791
GlyphClass: 2
Flags: W
LayerCount: 2
Fore
SplineSet
416 -33 m 2,0,1
 509 -33 509 -33 509 -94 c 0,2,3
 509 -107 509 -107 505 -124 c 0,4,5
 480 -229 480 -229 376 -229 c 0,6,7
 336 -229 336 -229 304 -221 c 2,8,-1
 292 -218 l 1,9,-1
 312 -137 l 1,10,11
 342 -138 342 -138 358 -138 c 0,12,13
 394 -138 394 -138 400 -114 c 0,14,15
 403 -102 403 -102 395.5 -98 c 128,-1,16
 388 -94 388 -94 369 -94 c 2,17,-1
 347 -94 l 1,18,-1
 369 5 l 1,19,-1
 421 5 l 1,20,-1
 410 -33 l 1,21,-1
 416 -33 l 2,0,1
EndSplineSet
EndChar

StartChar: onesuperior
Encoding: 185 185 122
Width: 280
GlyphClass: 2
Flags: W
LayerCount: 2
Fore
SplineSet
189 715 m 1,0,-1
 313 790 l 1,1,-1
 409 790 l 1,2,-1
 332 478 l 1,3,-1
 226 478 l 1,4,-1
 274 673 l 1,5,-1
 219 641 l 1,6,-1
 189 715 l 1,0,-1
EndSplineSet
Substitution2: "Single Substitution lookup 5 subtable" oneinferior
EndChar

StartChar: ordmasculine
Encoding: 186 186 123
Width: 343
GlyphClass: 2
Flags: W
LayerCount: 2
Fore
SplineSet
321 660 m 0,0,1
 369 660 369 660 409 643 c 128,-1,2
 449 626 449 626 457 591 c 0,3,4
 461 572 461 572 461 548.5 c 128,-1,5
 461 525 461 525 454 494 c 0,6,7
 430 394 430 394 380.5 354 c 128,-1,8
 331 314 331 314 239 314 c 0,9,10
 174 314 174 314 141 346.5 c 128,-1,11
 108 379 108 379 108 428 c 0,12,13
 108 460 108 460 117 495 c 0,14,15
 139 584 139 584 188 622 c 128,-1,16
 237 660 237 660 321 660 c 0,0,1
232.5 419 m 128,-1,18
 241 410 241 410 266.5 410 c 128,-1,19
 292 410 292 410 309 427.5 c 128,-1,20
 326 445 326 445 335 478.5 c 128,-1,21
 344 512 344 512 344 528 c 0,22,23
 344 568 344 568 301 568 c 0,24,25
 273 568 273 568 257.5 552.5 c 128,-1,26
 242 537 242 537 233 502.5 c 128,-1,27
 224 468 224 468 224 448 c 128,-1,17
 224 428 224 428 232.5 419 c 128,-1,18
EndSplineSet
EndChar

StartChar: guillemotright
Encoding: 187 187 124
Width: 474
GlyphClass: 2
Flags: W
LayerCount: 2
Fore
SplineSet
259 43 m 1,0,-1
 296 174 l 1,1,-1
 409 239 l 1,2,-1
 329 316 l 1,3,-1
 362 436 l 1,4,-1
 532 267 l 1,5,-1
 509 206 l 1,6,-1
 259 43 l 1,0,-1
19 43 m 1,7,-1
 56 174 l 1,8,-1
 169 239 l 1,9,-1
 89 316 l 1,10,-1
 122 436 l 1,11,-1
 292 267 l 1,12,-1
 269 206 l 1,13,-1
 19 43 l 1,7,-1
EndSplineSet
EndChar

StartChar: onequarter
Encoding: 188 188 125
Width: 634
GlyphClass: 2
Flags: W
LayerCount: 2
Fore
SplineSet
158 715 m 1,0,-1
 282 790 l 1,1,-1
 378 790 l 1,2,-1
 301 478 l 1,3,-1
 195 478 l 1,4,-1
 243 673 l 1,5,-1
 188 641 l 1,6,-1
 158 715 l 1,0,-1
228 -24 m 1,7,-1
 102 20 l 1,8,-1
 533 718 l 1,9,-1
 659 674 l 1,10,-1
 228 -24 l 1,7,-1
516 0 m 1,11,-1
 524 35 l 1,12,-1
 389 35 l 1,13,-1
 411 123 l 1,14,-1
 500 312 l 1,15,-1
 618 312 l 1,16,-1
 521 130 l 1,17,-1
 548 130 l 1,18,-1
 585 220 l 1,19,-1
 676 220 l 1,20,-1
 653 130 l 1,21,-1
 664 130 l 1,22,-1
 640 35 l 1,23,-1
 629 35 l 1,24,-1
 621 0 l 1,25,-1
 516 0 l 1,11,-1
EndSplineSet
EndChar

StartChar: onehalf
Encoding: 189 189 126
Width: 647
GlyphClass: 2
Flags: W
LayerCount: 2
Fore
SplineSet
158 715 m 1,0,-1
 282 790 l 1,1,-1
 378 790 l 1,2,-1
 301 478 l 1,3,-1
 195 478 l 1,4,-1
 243 673 l 1,5,-1
 188 641 l 1,6,-1
 158 715 l 1,0,-1
228 -24 m 1,7,-1
 102 20 l 1,8,-1
 533 718 l 1,9,-1
 659 674 l 1,10,-1
 228 -24 l 1,7,-1
491 314 m 1,11,12
 566 323 566 323 619 323 c 128,-1,13
 672 323 672 323 692 300 c 0,14,15
 703 287 703 287 703 266.5 c 128,-1,16
 703 246 703 246 696 218 c 0,17,18
 682 164 682 164 616 123 c 2,19,-1
 571 95 l 1,20,-1
 665 95 l 1,21,-1
 642 0 l 1,22,-1
 411 0 l 1,23,-1
 433 90 l 1,24,-1
 521 149 l 2,25,26
 575 185 575 185 581 206 c 0,27,28
 583 215 583 215 575.5 218 c 128,-1,29
 568 221 568 221 548 221 c 1,30,-1
 470 215 l 1,31,-1
 491 314 l 1,11,12
EndSplineSet
EndChar

StartChar: threequarters
Encoding: 190 190 127
Width: 631
GlyphClass: 2
Flags: W
LayerCount: 2
Fore
SplineSet
301 801 m 0,0,1
 403 801 403 801 403 738 c 0,2,3
 403 726 403 726 400 712 c 0,4,5
 388 660 388 660 354 642 c 1,6,7
 375 632 375 632 375 602 c 0,8,9
 375 588 375 588 370 569 c 0,10,11
 345 467 345 467 227 467 c 1,12,-1
 108 475 l 1,13,-1
 137 568 l 1,14,15
 197 562 197 562 228 562 c 128,-1,16
 259 562 259 562 263 578 c 0,17,18
 265 587 265 587 260 589.5 c 128,-1,19
 255 592 255 592 240 592 c 2,20,-1
 174 592 l 1,21,-1
 195 677 l 1,22,-1
 259 677 l 2,23,24
 279 677 279 677 282 688 c 128,-1,25
 285 699 285 699 279 702.5 c 128,-1,26
 273 706 273 706 260 706 c 2,27,-1
 174 701 l 1,28,-1
 191 792 l 1,29,30
 261 801 261 801 301 801 c 0,0,1
225 -24 m 1,31,-1
 99 20 l 1,32,-1
 530 718 l 1,33,-1
 656 674 l 1,34,-1
 225 -24 l 1,31,-1
513 0 m 1,35,-1
 521 35 l 1,36,-1
 386 35 l 1,37,-1
 408 123 l 1,38,-1
 497 312 l 1,39,-1
 615 312 l 1,40,-1
 518 130 l 1,41,-1
 545 130 l 1,42,-1
 582 220 l 1,43,-1
 673 220 l 1,44,-1
 650 130 l 1,45,-1
 661 130 l 1,46,-1
 637 35 l 1,47,-1
 626 35 l 1,48,-1
 618 0 l 1,49,-1
 513 0 l 1,35,-1
EndSplineSet
EndChar

StartChar: questiondown
Encoding: 191 191 128
Width: 432
GlyphClass: 2
Flags: W
LayerCount: 2
Fore
SplineSet
26 -36 m 0,0,1
 26 32 26 32 58 75.5 c 128,-1,2
 90 119 90 119 177 179 c 0,3,4
 231 216 231 216 239 252 c 2,5,-1
 248 292 l 1,6,-1
 374 292 l 1,7,8
 374 243 374 243 365.5 198 c 128,-1,9
 357 153 357 153 272 92 c 1,10,11
 213 51 213 51 190.5 27.5 c 128,-1,12
 168 4 168 4 168 -24.5 c 128,-1,13
 168 -53 168 -53 185.5 -62.5 c 128,-1,14
 203 -72 203 -72 238 -72 c 0,15,16
 304 -72 304 -72 364 -63 c 2,17,-1
 384 -60 l 1,18,-1
 370 -165 l 1,19,20
 280 -192 280 -192 210 -192 c 0,21,22
 26 -192 26 -192 26 -36 c 0,0,1
428 500 m 1,23,-1
 390 332 l 1,24,-1
 254 332 l 1,25,-1
 292 500 l 1,26,-1
 428 500 l 1,23,-1
EndSplineSet
Substitution2: "'case' Case-Sensitive Forms in Latin lookup 4 subtable" questiondown.cap
EndChar

StartChar: Agrave
Encoding: 192 192 129
Width: 551
GlyphClass: 2
Flags: W
LayerCount: 2
Fore
SplineSet
383 950 m 1,0,-1
 605 859 l 1,1,-1
 544 754 l 1,2,-1
 317 831 l 1,3,-1
 383 950 l 1,0,-1
13 0 m 1,4,-1
 319 680 l 1,5,-1
 557 680 l 1,6,-1
 536 0 l 1,7,-1
 398 0 l 1,8,-1
 402 118 l 1,9,-1
 204 118 l 1,10,-1
 151 0 l 1,11,-1
 13 0 l 1,4,-1
400 560 m 1,12,-1
 256 238 l 1,13,-1
 407 238 l 1,14,-1
 421 560 l 1,15,-1
 400 560 l 1,12,-1
EndSplineSet
Position2: "'cpsp' Capital Spacing in Latin lookup 0 subtable" dx=5 dy=0 dh=10 dv=0
EndChar

StartChar: Aacute
Encoding: 193 193 130
Width: 551
GlyphClass: 2
Flags: W
LayerCount: 2
Fore
SplineSet
354 765 m 1,0,-1
 344 871 l 1,1,-1
 608 962 l 1,2,-1
 618 842 l 1,3,-1
 354 765 l 1,0,-1
13 0 m 1,4,-1
 319 680 l 1,5,-1
 557 680 l 1,6,-1
 536 0 l 1,7,-1
 398 0 l 1,8,-1
 402 118 l 1,9,-1
 204 118 l 1,10,-1
 151 0 l 1,11,-1
 13 0 l 1,4,-1
400 560 m 1,12,-1
 256 238 l 1,13,-1
 407 238 l 1,14,-1
 421 560 l 1,15,-1
 400 560 l 1,12,-1
EndSplineSet
Position2: "'cpsp' Capital Spacing in Latin lookup 0 subtable" dx=5 dy=0 dh=10 dv=0
EndChar

StartChar: Acircumflex
Encoding: 194 194 131
Width: 551
GlyphClass: 2
Flags: W
LayerCount: 2
Fore
SplineSet
273 779 m 1,0,-1
 449 931 l 1,1,-1
 529 931 l 1,2,-1
 625 779 l 1,3,-1
 503 779 l 1,4,-1
 477 834 l 1,5,-1
 415 779 l 1,6,-1
 273 779 l 1,0,-1
13 0 m 1,7,-1
 319 680 l 1,8,-1
 557 680 l 1,9,-1
 536 0 l 1,10,-1
 398 0 l 1,11,-1
 402 118 l 1,12,-1
 204 118 l 1,13,-1
 151 0 l 1,14,-1
 13 0 l 1,7,-1
400 560 m 1,15,-1
 256 238 l 1,16,-1
 407 238 l 1,17,-1
 421 560 l 1,18,-1
 400 560 l 1,15,-1
EndSplineSet
Position2: "'cpsp' Capital Spacing in Latin lookup 0 subtable" dx=5 dy=0 dh=10 dv=0
EndChar

StartChar: Atilde
Encoding: 195 195 132
Width: 551
GlyphClass: 2
Flags: W
LayerCount: 2
Fore
SplineSet
516.5 779 m 128,-1,1
 492 779 492 779 439 800.5 c 128,-1,2
 386 822 386 822 372 822 c 0,3,4
 349 822 349 822 300 792 c 2,5,-1
 285 783 l 1,6,-1
 281 876 l 1,7,8
 311 902 311 902 343.5 921 c 128,-1,9
 376 940 376 940 403.5 940 c 128,-1,10
 431 940 431 940 483.5 919 c 128,-1,11
 536 898 536 898 546 898 c 0,12,13
 567 898 567 898 615 926 c 1,14,-1
 631 936 l 1,15,-1
 633 842 l 1,16,17
 609 818 609 818 575 798.5 c 128,-1,0
 541 779 541 779 516.5 779 c 128,-1,1
13 0 m 1,18,-1
 319 680 l 1,19,-1
 557 680 l 1,20,-1
 536 0 l 1,21,-1
 398 0 l 1,22,-1
 402 118 l 1,23,-1
 204 118 l 1,24,-1
 151 0 l 1,25,-1
 13 0 l 1,18,-1
400 560 m 1,26,-1
 256 238 l 1,27,-1
 407 238 l 1,28,-1
 421 560 l 1,29,-1
 400 560 l 1,26,-1
EndSplineSet
Position2: "'cpsp' Capital Spacing in Latin lookup 0 subtable" dx=5 dy=0 dh=10 dv=0
EndChar

StartChar: Adieresis
Encoding: 196 196 133
Width: 551
GlyphClass: 2
Flags: W
LayerCount: 2
Fore
SplineSet
308 788 m 1,0,-1
 339 923 l 1,1,-1
 450 923 l 1,2,-1
 418 788 l 1,3,-1
 308 788 l 1,0,-1
507 788 m 1,4,-1
 538 923 l 1,5,-1
 649 923 l 1,6,-1
 616 788 l 1,7,-1
 507 788 l 1,4,-1
13 0 m 1,8,-1
 319 680 l 1,9,-1
 557 680 l 1,10,-1
 536 0 l 1,11,-1
 398 0 l 1,12,-1
 402 118 l 1,13,-1
 204 118 l 1,14,-1
 151 0 l 1,15,-1
 13 0 l 1,8,-1
400 560 m 1,16,-1
 256 238 l 1,17,-1
 407 238 l 1,18,-1
 421 560 l 1,19,-1
 400 560 l 1,16,-1
EndSplineSet
Position2: "'cpsp' Capital Spacing in Latin lookup 0 subtable" dx=5 dy=0 dh=10 dv=0
EndChar

StartChar: Aring
Encoding: 197 197 134
Width: 551
GlyphClass: 2
Flags: W
LayerCount: 2
Fore
SplineSet
313 666 m 1,0,1
 312 674 312 674 312 686.5 c 128,-1,2
 312 699 312 699 316 717 c 0,3,4
 330 775 330 775 373 804.5 c 128,-1,5
 416 834 416 834 474.5 834 c 128,-1,6
 533 834 533 834 562 805 c 0,7,8
 583 785 583 785 583 752 c 0,9,10
 583 705 583 705 556 667 c 1,11,-1
 536 0 l 1,12,-1
 398 0 l 1,13,-1
 402 118 l 1,14,-1
 204 118 l 1,15,-1
 151 0 l 1,16,-1
 13 0 l 1,17,-1
 313 666 l 1,0,1
400 560 m 1,18,-1
 256 238 l 1,19,-1
 407 238 l 1,20,-1
 421 560 l 1,21,-1
 400 560 l 1,18,-1
402 717 m 0,22,23
 401 714 401 714 401 707.5 c 128,-1,24
 401 701 401 701 410 693.5 c 128,-1,25
 419 686 419 686 439 686 c 0,26,27
 484 686 484 686 491 717 c 0,28,29
 492 721 492 721 492 728.5 c 128,-1,30
 492 736 492 736 481 742 c 128,-1,31
 470 748 470 748 454 748 c 0,32,33
 410 748 410 748 402 717 c 0,22,23
EndSplineSet
Position2: "'cpsp' Capital Spacing in Latin lookup 0 subtable" dx=5 dy=0 dh=10 dv=0
EndChar

StartChar: AE
Encoding: 198 198 135
Width: 754
GlyphClass: 2
Flags: W
LayerCount: 2
Fore
SplineSet
313 0 m 1,0,-1
 341 119 l 1,1,-1
 198 119 l 1,2,-1
 145 0 l 1,3,-1
 14 0 l 1,4,-1
 322 690 l 1,5,-1
 881 690 l 1,6,-1
 851 559 l 1,7,-1
 575 561 l 1,8,-1
 537 402 l 1,9,-1
 757 402 l 1,10,-1
 728 277 l 1,11,-1
 507 277 l 1,12,-1
 472 130 l 1,13,-1
 748 130 l 1,14,-1
 719 0 l 1,15,-1
 313 0 l 1,0,-1
393 560 m 1,16,-1
 256 247 l 1,17,-1
 372 247 l 1,18,-1
 445 560 l 1,19,-1
 393 560 l 1,16,-1
EndSplineSet
Position2: "'cpsp' Capital Spacing in Latin lookup 0 subtable" dx=5 dy=0 dh=10 dv=0
EndChar

StartChar: Ccedilla
Encoding: 199 199 136
Width: 494
GlyphClass: 2
Flags: W
LayerCount: 2
Fore
SplineSet
294 -33 m 2,0,1
 387 -33 387 -33 387 -94 c 0,2,3
 387 -107 387 -107 383 -124 c 0,4,5
 358 -229 358 -229 254 -229 c 0,6,7
 214 -229 214 -229 182 -221 c 2,8,-1
 170 -218 l 1,9,-1
 190 -137 l 1,10,11
 220 -138 220 -138 236 -138 c 0,12,13
 272 -138 272 -138 278 -114 c 0,14,15
 281 -102 281 -102 273.5 -98 c 128,-1,16
 266 -94 266 -94 247 -94 c 2,17,-1
 225 -94 l 1,18,-1
 244 -7 l 1,19,20
 99 20 99 20 99 185 c 0,21,22
 99 331 99 331 148 454 c 0,23,24
 175 522 175 522 214 574.5 c 128,-1,25
 253 627 253 627 313.5 659.5 c 128,-1,26
 374 692 374 692 449 692 c 0,27,28
 522 692 522 692 596 670 c 1,29,-1
 620 662 l 1,30,-1
 588 560 l 1,31,32
 526 572 526 572 444 572 c 0,33,34
 382 572 382 572 334.5 517 c 128,-1,35
 287 462 287 462 264 377 c 128,-1,36
 241 292 241 292 241 195 c 0,37,38
 241 108 241 108 322 108 c 0,39,40
 399 108 399 108 461 118 c 1,41,-1
 484 121 l 1,42,-1
 473 14 l 1,43,44
 380 -12 380 -12 304 -12 c 2,45,-1
 294 -12 l 1,46,-1
 288 -33 l 1,47,-1
 294 -33 l 2,0,1
EndSplineSet
Position2: "'cpsp' Capital Spacing in Latin lookup 0 subtable" dx=5 dy=0 dh=10 dv=0
EndChar

StartChar: Egrave
Encoding: 200 200 137
Width: 497
GlyphClass: 2
Flags: W
LayerCount: 2
Fore
SplineSet
336 950 m 1,0,-1
 558 859 l 1,1,-1
 497 754 l 1,2,-1
 270 831 l 1,3,-1
 336 950 l 1,0,-1
65 0 m 1,4,-1
 221 680 l 1,5,-1
 620 680 l 1,6,-1
 592 560 l 1,7,-1
 332 560 l 1,8,-1
 295 400 l 1,9,-1
 501 400 l 1,10,-1
 473 280 l 1,11,-1
 268 280 l 1,12,-1
 231 120 l 1,13,-1
 492 120 l 1,14,-1
 465 0 l 1,15,-1
 65 0 l 1,4,-1
EndSplineSet
Position2: "'cpsp' Capital Spacing in Latin lookup 0 subtable" dx=5 dy=0 dh=10 dv=0
EndChar

StartChar: Eacute
Encoding: 201 201 138
Width: 497
GlyphClass: 2
Flags: W
LayerCount: 2
Fore
SplineSet
349 765 m 1,0,-1
 339 871 l 1,1,-1
 603 962 l 1,2,-1
 613 842 l 1,3,-1
 349 765 l 1,0,-1
65 0 m 1,4,-1
 221 680 l 1,5,-1
 620 680 l 1,6,-1
 592 560 l 1,7,-1
 332 560 l 1,8,-1
 295 400 l 1,9,-1
 501 400 l 1,10,-1
 473 280 l 1,11,-1
 268 280 l 1,12,-1
 231 120 l 1,13,-1
 492 120 l 1,14,-1
 465 0 l 1,15,-1
 65 0 l 1,4,-1
EndSplineSet
Position2: "'cpsp' Capital Spacing in Latin lookup 0 subtable" dx=5 dy=0 dh=10 dv=0
EndChar

StartChar: Ecircumflex
Encoding: 202 202 139
Width: 497
GlyphClass: 2
Flags: W
LayerCount: 2
Fore
SplineSet
260 782 m 1,0,-1
 436 934 l 1,1,-1
 516 934 l 1,2,-1
 612 782 l 1,3,-1
 490 782 l 1,4,-1
 464 837 l 1,5,-1
 402 782 l 1,6,-1
 260 782 l 1,0,-1
65 0 m 1,7,-1
 221 680 l 1,8,-1
 620 680 l 1,9,-1
 592 560 l 1,10,-1
 332 560 l 1,11,-1
 295 400 l 1,12,-1
 501 400 l 1,13,-1
 473 280 l 1,14,-1
 268 280 l 1,15,-1
 231 120 l 1,16,-1
 492 120 l 1,17,-1
 465 0 l 1,18,-1
 65 0 l 1,7,-1
EndSplineSet
Position2: "'cpsp' Capital Spacing in Latin lookup 0 subtable" dx=5 dy=0 dh=10 dv=0
EndChar

StartChar: Edieresis
Encoding: 203 203 140
Width: 497
GlyphClass: 2
Flags: W
LayerCount: 2
Fore
SplineSet
287 788 m 1,0,-1
 318 923 l 1,1,-1
 429 923 l 1,2,-1
 397 788 l 1,3,-1
 287 788 l 1,0,-1
486 788 m 1,4,-1
 517 923 l 1,5,-1
 628 923 l 1,6,-1
 595 788 l 1,7,-1
 486 788 l 1,4,-1
65 0 m 1,8,-1
 221 680 l 1,9,-1
 620 680 l 1,10,-1
 592 560 l 1,11,-1
 332 560 l 1,12,-1
 295 400 l 1,13,-1
 501 400 l 1,14,-1
 473 280 l 1,15,-1
 268 280 l 1,16,-1
 231 120 l 1,17,-1
 492 120 l 1,18,-1
 465 0 l 1,19,-1
 65 0 l 1,8,-1
EndSplineSet
Position2: "'cpsp' Capital Spacing in Latin lookup 0 subtable" dx=5 dy=0 dh=10 dv=0
EndChar

StartChar: Igrave
Encoding: 204 204 141
Width: 268
GlyphClass: 2
Flags: W
LayerCount: 2
Fore
SplineSet
210 950 m 1,0,-1
 432 859 l 1,1,-1
 371 754 l 1,2,-1
 144 831 l 1,3,-1
 210 950 l 1,0,-1
65 0 m 1,4,-1
 222 680 l 1,5,-1
 360 680 l 1,6,-1
 203 0 l 1,7,-1
 65 0 l 1,4,-1
EndSplineSet
Position2: "'cpsp' Capital Spacing in Latin lookup 0 subtable" dx=5 dy=0 dh=10 dv=0
EndChar

StartChar: Iacute
Encoding: 205 205 142
Width: 268
GlyphClass: 2
Flags: W
LayerCount: 2
Fore
SplineSet
229 765 m 1,0,-1
 219 871 l 1,1,-1
 483 962 l 1,2,-1
 493 842 l 1,3,-1
 229 765 l 1,0,-1
65 0 m 1,4,-1
 222 680 l 1,5,-1
 360 680 l 1,6,-1
 203 0 l 1,7,-1
 65 0 l 1,4,-1
EndSplineSet
Position2: "'cpsp' Capital Spacing in Latin lookup 0 subtable" dx=5 dy=0 dh=10 dv=0
EndChar

StartChar: Icircumflex
Encoding: 206 206 143
Width: 268
GlyphClass: 2
Flags: W
LayerCount: 2
Fore
SplineSet
132 782 m 1,0,-1
 308 934 l 1,1,-1
 388 934 l 1,2,-1
 484 782 l 1,3,-1
 362 782 l 1,4,-1
 336 837 l 1,5,-1
 274 782 l 1,6,-1
 132 782 l 1,0,-1
65 0 m 1,7,-1
 222 680 l 1,8,-1
 360 680 l 1,9,-1
 203 0 l 1,10,-1
 65 0 l 1,7,-1
EndSplineSet
Position2: "'cpsp' Capital Spacing in Latin lookup 0 subtable" dx=5 dy=0 dh=10 dv=0
EndChar

StartChar: Idieresis
Encoding: 207 207 144
Width: 268
GlyphClass: 2
Flags: W
LayerCount: 2
Fore
SplineSet
158 800 m 1,0,-1
 189 935 l 1,1,-1
 300 935 l 1,2,-1
 268 800 l 1,3,-1
 158 800 l 1,0,-1
357 800 m 1,4,-1
 388 935 l 1,5,-1
 499 935 l 1,6,-1
 466 800 l 1,7,-1
 357 800 l 1,4,-1
65 0 m 1,8,-1
 222 680 l 1,9,-1
 360 680 l 1,10,-1
 203 0 l 1,11,-1
 65 0 l 1,8,-1
EndSplineSet
Position2: "'cpsp' Capital Spacing in Latin lookup 0 subtable" dx=5 dy=0 dh=10 dv=0
EndChar

StartChar: Eth
Encoding: 208 208 145
Width: 613
GlyphClass: 2
Flags: W
LayerCount: 2
Fore
SplineSet
317 0 m 2,0,-1
 73 0 l 1,1,-1
 136 275 l 1,2,-1
 83 275 l 1,3,-1
 112 411 l 1,4,-1
 168 411 l 1,5,-1
 230 680 l 1,6,-1
 444 680 l 2,7,8
 668 680 668 680 668 473 c 0,9,10
 668 327 668 327 614 209 c 0,11,12
 553 77 553 77 447 28 c 0,13,14
 388 0 388 0 317 0 c 2,0,-1
515 364.5 m 128,-1,16
 526 422 526 422 526 471.5 c 128,-1,17
 526 521 526 521 498.5 540.5 c 128,-1,18
 471 560 471 560 416 560 c 2,19,-1
 340 560 l 1,20,-1
 306 411 l 1,21,-1
 415 411 l 1,22,-1
 385 275 l 1,23,-1
 274 275 l 1,24,-1
 239 120 l 1,25,-1
 329 120 l 2,26,27
 380 120 380 120 420 157 c 128,-1,28
 460 194 460 194 482 250.5 c 128,-1,15
 504 307 504 307 515 364.5 c 128,-1,16
EndSplineSet
Position2: "'cpsp' Capital Spacing in Latin lookup 0 subtable" dx=5 dy=0 dh=10 dv=0
EndChar

StartChar: Ntilde
Encoding: 209 209 146
Width: 651
GlyphClass: 2
Flags: W
LayerCount: 2
Fore
SplineSet
560.5 778 m 128,-1,1
 536 778 536 778 483 799.5 c 128,-1,2
 430 821 430 821 416 821 c 0,3,4
 389 821 389 821 344 792 c 2,5,-1
 329 782 l 1,6,-1
 325 875 l 1,7,8
 355 901 355 901 387.5 920 c 128,-1,9
 420 939 420 939 447.5 939 c 128,-1,10
 475 939 475 939 527.5 918 c 128,-1,11
 580 897 580 897 590 897 c 0,12,13
 611 897 611 897 659 926 c 1,14,-1
 675 935 l 1,15,-1
 677 841 l 1,16,17
 653 817 653 817 619 797.5 c 128,-1,0
 585 778 585 778 560.5 778 c 128,-1,1
65 0 m 1,18,-1
 222 680 l 1,19,-1
 441 680 l 1,20,-1
 477 147 l 1,21,-1
 489 147 l 1,22,-1
 610 680 l 1,23,-1
 743 680 l 1,24,-1
 586 0 l 1,25,-1
 378 0 l 1,26,-1
 334 543 l 1,27,-1
 322 543 l 1,28,-1
 195 0 l 1,29,-1
 65 0 l 1,18,-1
EndSplineSet
Position2: "'cpsp' Capital Spacing in Latin lookup 0 subtable" dx=5 dy=0 dh=10 dv=0
EndChar

StartChar: Ograve
Encoding: 210 210 147
Width: 615
GlyphClass: 2
Flags: W
LayerCount: 2
Fore
SplineSet
396 950 m 1,0,-1
 618 859 l 1,1,-1
 557 754 l 1,2,-1
 330 831 l 1,3,-1
 396 950 l 1,0,-1
264.5 131.5 m 128,-1,5
 286 108 286 108 337.5 108 c 128,-1,6
 389 108 389 108 423 142 c 0,7,8
 470 189 470 189 498.5 284 c 128,-1,9
 527 379 527 379 527 470 c 0,10,11
 527 525 527 525 506 548.5 c 128,-1,12
 485 572 485 572 433 572 c 128,-1,13
 381 572 381 572 351 542 c 0,14,15
 301 493 301 493 272 393.5 c 128,-1,16
 243 294 243 294 243 224.5 c 128,-1,4
 243 155 243 155 264.5 131.5 c 128,-1,5
628 228.5 m 128,-1,18
 587 110 587 110 508.5 49 c 128,-1,19
 430 -12 430 -12 322 -12 c 0,20,21
 101 -12 101 -12 101 196 c 0,22,23
 101 327 101 327 141 443 c 128,-1,24
 181 559 181 559 258 625.5 c 128,-1,25
 335 692 335 692 448 692 c 0,26,27
 669 692 669 692 669 484 c 0,28,17
 669 347 669 347 628 228.5 c 128,-1,18
EndSplineSet
Position2: "'cpsp' Capital Spacing in Latin lookup 0 subtable" dx=5 dy=0 dh=10 dv=0
EndChar

StartChar: Oacute
Encoding: 211 211 148
Width: 615
GlyphClass: 2
Flags: W
LayerCount: 2
Fore
SplineSet
264.5 131.5 m 128,-1,1
 286 108 286 108 337.5 108 c 128,-1,2
 389 108 389 108 423 142 c 0,3,4
 470 189 470 189 498.5 284 c 128,-1,5
 527 379 527 379 527 470 c 0,6,7
 527 525 527 525 506 548.5 c 128,-1,8
 485 572 485 572 433 572 c 128,-1,9
 381 572 381 572 351 542 c 0,10,11
 301 493 301 493 272 393.5 c 128,-1,12
 243 294 243 294 243 224.5 c 128,-1,0
 243 155 243 155 264.5 131.5 c 128,-1,1
628 228.5 m 128,-1,14
 587 110 587 110 508.5 49 c 128,-1,15
 430 -12 430 -12 322 -12 c 0,16,17
 101 -12 101 -12 101 196 c 0,18,19
 101 327 101 327 141 443 c 128,-1,20
 181 559 181 559 258 625.5 c 128,-1,21
 335 692 335 692 448 692 c 0,22,23
 669 692 669 692 669 484 c 0,24,13
 669 347 669 347 628 228.5 c 128,-1,14
388 765 m 1,25,-1
 378 871 l 1,26,-1
 642 962 l 1,27,-1
 652 842 l 1,28,-1
 388 765 l 1,25,-1
EndSplineSet
Position2: "'cpsp' Capital Spacing in Latin lookup 0 subtable" dx=5 dy=0 dh=10 dv=0
EndChar

StartChar: Ocircumflex
Encoding: 212 212 149
Width: 615
GlyphClass: 2
Flags: W
LayerCount: 2
Fore
SplineSet
264.5 131.5 m 128,-1,1
 286 108 286 108 337.5 108 c 128,-1,2
 389 108 389 108 423 142 c 0,3,4
 470 189 470 189 498.5 284 c 128,-1,5
 527 379 527 379 527 470 c 0,6,7
 527 525 527 525 506 548.5 c 128,-1,8
 485 572 485 572 433 572 c 128,-1,9
 381 572 381 572 351 542 c 0,10,11
 301 493 301 493 272 393.5 c 128,-1,12
 243 294 243 294 243 224.5 c 128,-1,0
 243 155 243 155 264.5 131.5 c 128,-1,1
628 228.5 m 128,-1,14
 587 110 587 110 508.5 49 c 128,-1,15
 430 -12 430 -12 322 -12 c 0,16,17
 101 -12 101 -12 101 196 c 0,18,19
 101 327 101 327 141 443 c 128,-1,20
 181 559 181 559 258 625.5 c 128,-1,21
 335 692 335 692 448 692 c 0,22,23
 669 692 669 692 669 484 c 0,24,13
 669 347 669 347 628 228.5 c 128,-1,14
309 779 m 1,25,-1
 485 931 l 1,26,-1
 565 931 l 1,27,-1
 661 779 l 1,28,-1
 539 779 l 1,29,-1
 513 834 l 1,30,-1
 451 779 l 1,31,-1
 309 779 l 1,25,-1
EndSplineSet
Position2: "'cpsp' Capital Spacing in Latin lookup 0 subtable" dx=5 dy=0 dh=10 dv=0
EndChar

StartChar: Otilde
Encoding: 213 213 150
Width: 615
GlyphClass: 2
Flags: W
LayerCount: 2
Fore
SplineSet
563.5 778 m 128,-1,1
 539 778 539 778 486 799.5 c 128,-1,2
 433 821 433 821 419 821 c 0,3,4
 392 821 392 821 348 792 c 1,5,-1
 332 782 l 1,6,-1
 328 875 l 1,7,8
 358 901 358 901 390.5 920 c 128,-1,9
 423 939 423 939 450.5 939 c 128,-1,10
 478 939 478 939 530.5 918 c 128,-1,11
 583 897 583 897 592 897 c 0,12,13
 614 897 614 897 662 926 c 1,14,-1
 678 935 l 1,15,-1
 680 841 l 1,16,17
 656 817 656 817 622 797.5 c 128,-1,0
 588 778 588 778 563.5 778 c 128,-1,1
264.5 131.5 m 128,-1,19
 286 108 286 108 337.5 108 c 128,-1,20
 389 108 389 108 423 142 c 0,21,22
 470 189 470 189 498.5 284 c 128,-1,23
 527 379 527 379 527 470 c 0,24,25
 527 525 527 525 506 548.5 c 128,-1,26
 485 572 485 572 433 572 c 128,-1,27
 381 572 381 572 351 542 c 0,28,29
 301 493 301 493 272 393.5 c 128,-1,30
 243 294 243 294 243 224.5 c 128,-1,18
 243 155 243 155 264.5 131.5 c 128,-1,19
628 228.5 m 128,-1,32
 587 110 587 110 508.5 49 c 128,-1,33
 430 -12 430 -12 322 -12 c 0,34,35
 101 -12 101 -12 101 196 c 0,36,37
 101 327 101 327 141 443 c 128,-1,38
 181 559 181 559 258 625.5 c 128,-1,39
 335 692 335 692 448 692 c 0,40,41
 669 692 669 692 669 484 c 0,42,31
 669 347 669 347 628 228.5 c 128,-1,32
EndSplineSet
Position2: "'cpsp' Capital Spacing in Latin lookup 0 subtable" dx=5 dy=0 dh=10 dv=0
EndChar

StartChar: Odieresis
Encoding: 214 214 151
Width: 615
GlyphClass: 2
Flags: W
LayerCount: 2
Fore
SplineSet
321 781 m 1,0,-1
 352 916 l 1,1,-1
 473 916 l 1,2,-1
 441 781 l 1,3,-1
 321 781 l 1,0,-1
525 781 m 1,4,-1
 556 916 l 1,5,-1
 677 916 l 1,6,-1
 645 781 l 1,7,-1
 525 781 l 1,4,-1
264.5 131.5 m 128,-1,9
 286 108 286 108 337.5 108 c 128,-1,10
 389 108 389 108 423 142 c 0,11,12
 470 189 470 189 498.5 284 c 128,-1,13
 527 379 527 379 527 470 c 0,14,15
 527 525 527 525 506 548.5 c 128,-1,16
 485 572 485 572 433 572 c 128,-1,17
 381 572 381 572 351 542 c 0,18,19
 301 493 301 493 272 393.5 c 128,-1,20
 243 294 243 294 243 224.5 c 128,-1,8
 243 155 243 155 264.5 131.5 c 128,-1,9
628 228.5 m 128,-1,22
 587 110 587 110 508.5 49 c 128,-1,23
 430 -12 430 -12 322 -12 c 0,24,25
 101 -12 101 -12 101 196 c 0,26,27
 101 327 101 327 141 443 c 128,-1,28
 181 559 181 559 258 625.5 c 128,-1,29
 335 692 335 692 448 692 c 0,30,31
 669 692 669 692 669 484 c 0,32,21
 669 347 669 347 628 228.5 c 128,-1,22
EndSplineSet
Position2: "'cpsp' Capital Spacing in Latin lookup 0 subtable" dx=5 dy=0 dh=10 dv=0
EndChar

StartChar: multiply
Encoding: 215 215 152
Width: 560
GlyphClass: 2
Flags: W
LayerCount: 2
Fore
SplineSet
200 473 m 1,0,-1
 338 332 l 1,1,-1
 478 475 l 1,2,-1
 562 390 l 1,3,-1
 419 250 l 1,4,-1
 562 111 l 1,5,-1
 477 26 l 1,6,-1
 338 168 l 1,7,-1
 199 27 l 1,8,-1
 114 111 l 1,9,-1
 256 250 l 1,10,-1
 115 388 l 1,11,-1
 200 473 l 1,0,-1
EndSplineSet
EndChar

StartChar: Oslash
Encoding: 216 216 153
Width: 615
GlyphClass: 2
Flags: W
LayerCount: 2
Fore
SplineSet
101 196 m 0,0,1
 101 327 101 327 141 443 c 128,-1,2
 181 559 181 559 258 625.5 c 128,-1,3
 335 692 335 692 448 692 c 0,4,5
 517 692 517 692 563 672 c 1,6,-1
 654 805 l 1,7,-1
 728 774 l 1,8,-1
 626 624 l 1,9,10
 669 571 669 571 669 484 c 0,11,12
 669 347 669 347 628 228 c 0,13,14
 545 -12 545 -12 315 -12 c 0,15,16
 255 -12 255 -12 206 7 c 1,17,-1
 119 -121 l 1,18,-1
 53 -81 l 1,19,-1
 144 53 l 1,20,21
 101 105 101 105 101 196 c 0,0,1
282 118 m 1,22,23
 302 108 302 108 345.5 108 c 128,-1,24
 389 108 389 108 423 142 c 0,25,26
 470 189 470 189 498.5 284 c 128,-1,27
 527 379 527 379 527 470 c 2,28,-1
 527 478 l 1,29,-1
 282 118 l 1,22,23
488 562 m 1,30,31
 468 572 468 572 424.5 572 c 128,-1,32
 381 572 381 572 351 542 c 0,33,34
 301 493 301 493 272 393.5 c 128,-1,35
 243 294 243 294 243 210 c 2,36,-1
 243 200 l 1,37,-1
 488 562 l 1,30,31
EndSplineSet
Position2: "'cpsp' Capital Spacing in Latin lookup 0 subtable" dx=5 dy=0 dh=10 dv=0
EndChar

StartChar: Ugrave
Encoding: 217 217 154
Width: 595
GlyphClass: 2
Flags: W
LayerCount: 2
Fore
SplineSet
389 950 m 1,0,-1
 611 859 l 1,1,-1
 550 754 l 1,2,-1
 323 831 l 1,3,-1
 389 950 l 1,0,-1
249 231 m 2,4,5
 240 193 240 193 240 162.5 c 128,-1,6
 240 132 240 132 260.5 120 c 128,-1,7
 281 108 281 108 332.5 108 c 128,-1,8
 384 108 384 108 410 135.5 c 128,-1,9
 436 163 436 163 451 231 c 2,10,-1
 555 680 l 1,11,-1
 693 680 l 1,12,-1
 589 231 l 2,13,14
 560 103 560 103 494.5 45.5 c 128,-1,15
 429 -12 429 -12 321 -12 c 0,16,17
 103 -12 103 -12 103 142 c 0,18,19
 103 194 103 194 116 253 c 2,20,-1
 215 680 l 1,21,-1
 353 680 l 1,22,-1
 249 231 l 2,4,5
EndSplineSet
Position2: "'cpsp' Capital Spacing in Latin lookup 0 subtable" dx=5 dy=0 dh=10 dv=0
EndChar

StartChar: Uacute
Encoding: 218 218 155
Width: 595
GlyphClass: 2
Flags: W
LayerCount: 2
Fore
SplineSet
249 231 m 2,0,1
 240 193 240 193 240 162.5 c 128,-1,2
 240 132 240 132 260.5 120 c 128,-1,3
 281 108 281 108 332.5 108 c 128,-1,4
 384 108 384 108 410 135.5 c 128,-1,5
 436 163 436 163 451 231 c 2,6,-1
 555 680 l 1,7,-1
 693 680 l 1,8,-1
 589 231 l 2,9,10
 560 103 560 103 494.5 45.5 c 128,-1,11
 429 -12 429 -12 321 -12 c 0,12,13
 103 -12 103 -12 103 142 c 0,14,15
 103 194 103 194 116 253 c 2,16,-1
 215 680 l 1,17,-1
 353 680 l 1,18,-1
 249 231 l 2,0,1
361 765 m 1,19,-1
 351 871 l 1,20,-1
 615 962 l 1,21,-1
 625 842 l 1,22,-1
 361 765 l 1,19,-1
EndSplineSet
Position2: "'cpsp' Capital Spacing in Latin lookup 0 subtable" dx=5 dy=0 dh=10 dv=0
EndChar

StartChar: Ucircumflex
Encoding: 219 219 156
Width: 595
GlyphClass: 2
Flags: W
LayerCount: 2
Fore
SplineSet
249 231 m 2,0,1
 240 193 240 193 240 162.5 c 128,-1,2
 240 132 240 132 260.5 120 c 128,-1,3
 281 108 281 108 332.5 108 c 128,-1,4
 384 108 384 108 410 135.5 c 128,-1,5
 436 163 436 163 451 231 c 2,6,-1
 555 680 l 1,7,-1
 693 680 l 1,8,-1
 589 231 l 2,9,10
 560 103 560 103 494.5 45.5 c 128,-1,11
 429 -12 429 -12 321 -12 c 0,12,13
 103 -12 103 -12 103 142 c 0,14,15
 103 194 103 194 116 253 c 2,16,-1
 215 680 l 1,17,-1
 353 680 l 1,18,-1
 249 231 l 2,0,1
295 779 m 1,19,-1
 471 931 l 1,20,-1
 551 931 l 1,21,-1
 647 779 l 1,22,-1
 525 779 l 1,23,-1
 499 834 l 1,24,-1
 437 779 l 1,25,-1
 295 779 l 1,19,-1
EndSplineSet
Position2: "'cpsp' Capital Spacing in Latin lookup 0 subtable" dx=5 dy=0 dh=10 dv=0
EndChar

StartChar: Udieresis
Encoding: 220 220 157
Width: 595
GlyphClass: 2
Flags: W
LayerCount: 2
Fore
SplineSet
305 781 m 1,0,-1
 336 916 l 1,1,-1
 457 916 l 1,2,-1
 425 781 l 1,3,-1
 305 781 l 1,0,-1
509 781 m 1,4,-1
 540 916 l 1,5,-1
 661 916 l 1,6,-1
 629 781 l 1,7,-1
 509 781 l 1,4,-1
249 231 m 2,8,9
 240 193 240 193 240 162.5 c 128,-1,10
 240 132 240 132 260.5 120 c 128,-1,11
 281 108 281 108 332.5 108 c 128,-1,12
 384 108 384 108 410 135.5 c 128,-1,13
 436 163 436 163 451 231 c 2,14,-1
 555 680 l 1,15,-1
 693 680 l 1,16,-1
 589 231 l 2,17,18
 560 103 560 103 494.5 45.5 c 128,-1,19
 429 -12 429 -12 321 -12 c 0,20,21
 103 -12 103 -12 103 142 c 0,22,23
 103 194 103 194 116 253 c 2,24,-1
 215 680 l 1,25,-1
 353 680 l 1,26,-1
 249 231 l 2,8,9
EndSplineSet
Position2: "'cpsp' Capital Spacing in Latin lookup 0 subtable" dx=5 dy=0 dh=10 dv=0
EndChar

StartChar: Yacute
Encoding: 221 221 158
Width: 504
GlyphClass: 2
Flags: W
LayerCount: 2
Fore
SplineSet
345 765 m 1,0,-1
 335 871 l 1,1,-1
 599 962 l 1,2,-1
 609 842 l 1,3,-1
 345 765 l 1,0,-1
661 680 m 1,4,-1
 381 288 l 1,5,-1
 313 0 l 1,6,-1
 185 0 l 1,7,-1
 253 294 l 1,8,-1
 158 680 l 1,9,-1
 298 680 l 1,10,-1
 346 415 l 1,11,-1
 515 680 l 1,12,-1
 661 680 l 1,4,-1
EndSplineSet
Position2: "'cpsp' Capital Spacing in Latin lookup 0 subtable" dx=5 dy=0 dh=10 dv=0
EndChar

StartChar: Thorn
Encoding: 222 222 159
Width: 538
GlyphClass: 2
Flags: W
LayerCount: 2
Fore
SplineSet
343 236 m 2,0,1
 439 236 439 236 467 348 c 0,2,3
 471 367 471 367 471 387 c 128,-1,4
 471 407 471 407 462 425 c 0,5,6
 446 456 446 456 397 457 c 2,7,-1
 301 459 l 1,8,-1
 248 236 l 1,9,-1
 343 236 l 2,0,1
428 593 m 2,10,11
 528 593 528 593 574 522 c 1,12,13
 606 475 606 475 606 411 c 0,14,15
 606 381 606 381 599 348 c 0,16,17
 573 231 573 231 497.5 165 c 128,-1,18
 422 99 422 99 315 99 c 0,19,20
 314 99 314 99 312 99 c 2,21,-1
 216 100 l 1,22,-1
 193 0 l 1,23,-1
 63 0 l 1,24,-1
 226 690 l 1,25,-1
 357 690 l 1,26,-1
 332 593 l 1,27,-1
 428 593 l 2,10,11
EndSplineSet
Position2: "'cpsp' Capital Spacing in Latin lookup 0 subtable" dx=5 dy=0 dh=10 dv=0
EndChar

StartChar: germandbls
Encoding: 223 223 160
Width: 564
GlyphClass: 2
Flags: W
LayerCount: 2
Fore
SplineSet
260.5 670.5 m 128,-1,1
 318 712 318 712 419.5 712 c 128,-1,2
 521 712 521 712 571.5 674.5 c 128,-1,3
 622 637 622 637 622 567 c 0,4,5
 622 515 622 515 602 481 c 128,-1,6
 582 447 582 447 530 426.5 c 128,-1,7
 478 406 478 406 459.5 393.5 c 128,-1,8
 441 381 441 381 441 364 c 128,-1,9
 441 347 441 347 453 336 c 128,-1,10
 465 325 465 325 501.5 301 c 128,-1,11
 538 277 538 277 551 266 c 0,12,13
 583 239 583 239 583 180 c 0,14,15
 583 91 583 91 528 39.5 c 128,-1,16
 473 -12 473 -12 377 -12 c 0,17,18
 312 -12 312 -12 240 9 c 2,19,-1
 216 16 l 1,20,-1
 245 114 l 1,21,22
 315 102 315 102 359.5 102 c 128,-1,23
 404 102 404 102 425.5 119.5 c 128,-1,24
 447 137 447 137 447 158 c 128,-1,25
 447 179 447 179 437 189 c 128,-1,26
 427 199 427 199 383.5 225 c 128,-1,27
 340 251 340 251 322.5 275 c 128,-1,28
 305 299 305 299 305 347 c 128,-1,29
 305 395 305 395 331 428 c 128,-1,30
 357 461 357 461 408 485 c 128,-1,31
 459 509 459 509 472.5 520.5 c 128,-1,32
 486 532 486 532 486 553 c 0,33,34
 486 598 486 598 410 598 c 0,35,36
 362 598 362 598 336 575.5 c 128,-1,37
 310 553 310 553 298 502 c 2,38,-1
 180 0 l 1,39,-1
 54 0 l 1,40,-1
 177 520 l 2,41,0
 203 629 203 629 260.5 670.5 c 128,-1,1
EndSplineSet
EndChar

StartChar: agrave
Encoding: 224 224 161
Width: 528
GlyphClass: 2
Flags: W
LayerCount: 2
Fore
SplineSet
221 -12 m 0,0,1
 148 -12 148 -12 114 37.5 c 128,-1,2
 80 87 80 87 80 170 c 0,3,4
 80 285 80 285 138 391 c 0,5,6
 167 444 167 444 218 478 c 128,-1,7
 269 512 269 512 334 512 c 0,8,9
 403 512 403 512 538 488 c 1,10,-1
 584 479 l 1,11,-1
 509 156 l 1,12,-1
 482 3 l 1,13,-1
 349 -2 l 1,14,15
 358 59 358 59 362 76 c 1,16,17
 321 21 321 21 266 -2 c 0,18,19
 243 -12 243 -12 221 -12 c 0,0,1
338 398 m 0,20,21
 300 398 300 398 271 359 c 0,22,23
 216 285 216 285 216 170 c 0,24,25
 216 135 216 135 227 118.5 c 128,-1,26
 238 102 238 102 261.5 102 c 128,-1,27
 285 102 285 102 314.5 124 c 128,-1,28
 344 146 344 146 364 168 c 2,29,-1
 384 191 l 1,30,-1
 430 384 l 1,31,32
 364 398 364 398 338 398 c 0,20,21
352 772 m 1,33,-1
 573 682 l 1,34,-1
 517 583 l 1,35,-1
 288 662 l 1,36,-1
 352 772 l 1,33,-1
EndSplineSet
EndChar

StartChar: aacute
Encoding: 225 225 162
Width: 528
GlyphClass: 2
Flags: W
LayerCount: 2
Fore
SplineSet
221 -12 m 0,0,1
 148 -12 148 -12 114 37.5 c 128,-1,2
 80 87 80 87 80 170 c 0,3,4
 80 285 80 285 138 391 c 0,5,6
 167 444 167 444 218 478 c 128,-1,7
 269 512 269 512 334 512 c 0,8,9
 403 512 403 512 538 488 c 1,10,-1
 584 479 l 1,11,-1
 509 156 l 1,12,-1
 482 3 l 1,13,-1
 349 -2 l 1,14,15
 358 59 358 59 362 76 c 1,16,17
 321 21 321 21 266 -2 c 0,18,19
 243 -12 243 -12 221 -12 c 0,0,1
338 398 m 0,20,21
 300 398 300 398 271 359 c 0,22,23
 216 285 216 285 216 170 c 0,24,25
 216 135 216 135 227 118.5 c 128,-1,26
 238 102 238 102 261.5 102 c 128,-1,27
 285 102 285 102 314.5 124 c 128,-1,28
 344 146 344 146 364 168 c 2,29,-1
 384 191 l 1,30,-1
 430 384 l 1,31,32
 364 398 364 398 338 398 c 0,20,21
336 576 m 1,33,-1
 326 683 l 1,34,-1
 590 774 l 1,35,-1
 600 654 l 1,36,-1
 336 576 l 1,33,-1
EndSplineSet
EndChar

StartChar: acircumflex
Encoding: 226 226 163
Width: 528
GlyphClass: 2
Flags: W
LayerCount: 2
Fore
SplineSet
212 575 m 1,0,-1
 380 750 l 1,1,-1
 480 750 l 1,2,-1
 566 575 l 1,3,-1
 434 575 l 1,4,-1
 410 639 l 1,5,-1
 352 575 l 1,6,-1
 212 575 l 1,0,-1
221 -12 m 0,7,8
 148 -12 148 -12 114 37.5 c 128,-1,9
 80 87 80 87 80 170 c 0,10,11
 80 285 80 285 138 391 c 0,12,13
 167 444 167 444 218 478 c 128,-1,14
 269 512 269 512 334 512 c 0,15,16
 403 512 403 512 538 488 c 1,17,-1
 584 479 l 1,18,-1
 509 156 l 1,19,-1
 482 3 l 1,20,-1
 349 -2 l 1,21,22
 358 59 358 59 362 76 c 1,23,24
 321 21 321 21 266 -2 c 0,25,26
 243 -12 243 -12 221 -12 c 0,7,8
338 398 m 0,27,28
 300 398 300 398 271 359 c 0,29,30
 216 285 216 285 216 170 c 0,31,32
 216 135 216 135 227 118.5 c 128,-1,33
 238 102 238 102 261.5 102 c 128,-1,34
 285 102 285 102 314.5 124 c 128,-1,35
 344 146 344 146 364 168 c 2,36,-1
 384 191 l 1,37,-1
 430 384 l 1,38,39
 364 398 364 398 338 398 c 0,27,28
EndSplineSet
EndChar

StartChar: atilde
Encoding: 227 227 164
Width: 528
GlyphClass: 2
Flags: W
LayerCount: 2
Fore
SplineSet
221 -12 m 0,0,1
 148 -12 148 -12 114 37.5 c 128,-1,2
 80 87 80 87 80 170 c 0,3,4
 80 285 80 285 138 391 c 0,5,6
 167 444 167 444 218 478 c 128,-1,7
 269 512 269 512 334 512 c 0,8,9
 403 512 403 512 538 488 c 1,10,-1
 584 479 l 1,11,-1
 509 156 l 1,12,-1
 482 3 l 1,13,-1
 349 -2 l 1,14,15
 358 59 358 59 362 76 c 1,16,17
 321 21 321 21 266 -2 c 0,18,19
 243 -12 243 -12 221 -12 c 0,0,1
338 398 m 0,20,21
 300 398 300 398 271 359 c 0,22,23
 216 285 216 285 216 170 c 0,24,25
 216 135 216 135 227 118.5 c 128,-1,26
 238 102 238 102 261.5 102 c 128,-1,27
 285 102 285 102 314.5 124 c 128,-1,28
 344 146 344 146 364 168 c 2,29,-1
 384 191 l 1,30,-1
 430 384 l 1,31,32
 364 398 364 398 338 398 c 0,20,21
547 608 m 128,-1,34
 516 590 516 590 492 590 c 128,-1,35
 468 590 468 590 422.5 612 c 128,-1,36
 377 634 377 634 364 634 c 0,37,38
 340 634 340 634 294 604 c 1,39,-1
 278 594 l 1,40,-1
 275 686 l 1,41,42
 283 693 283 693 295 704 c 128,-1,43
 307 715 307 715 338 733 c 128,-1,44
 369 751 369 751 395 751 c 128,-1,45
 421 751 421 751 466 729.5 c 128,-1,46
 511 708 511 708 521 708 c 0,47,48
 540 708 540 708 590 738 c 1,49,-1
 606 747 l 1,50,-1
 610 654 l 1,51,-1
 590 636 l 2,52,33
 578 626 578 626 547 608 c 128,-1,34
EndSplineSet
EndChar

StartChar: adieresis
Encoding: 228 228 165
Width: 528
GlyphClass: 2
Flags: W
LayerCount: 2
Fore
SplineSet
242 601 m 1,0,-1
 273 736 l 1,1,-1
 394 736 l 1,2,-1
 362 601 l 1,3,-1
 242 601 l 1,0,-1
446 601 m 1,4,-1
 477 736 l 1,5,-1
 598 736 l 1,6,-1
 566 601 l 1,7,-1
 446 601 l 1,4,-1
221 -12 m 0,8,9
 148 -12 148 -12 114 37.5 c 128,-1,10
 80 87 80 87 80 170 c 0,11,12
 80 285 80 285 138 391 c 0,13,14
 167 444 167 444 218 478 c 128,-1,15
 269 512 269 512 334 512 c 0,16,17
 403 512 403 512 538 488 c 1,18,-1
 584 479 l 1,19,-1
 509 156 l 1,20,-1
 482 3 l 1,21,-1
 349 -2 l 1,22,23
 358 59 358 59 362 76 c 1,24,25
 321 21 321 21 266 -2 c 0,26,27
 243 -12 243 -12 221 -12 c 0,8,9
338 398 m 0,28,29
 300 398 300 398 271 359 c 0,30,31
 216 285 216 285 216 170 c 0,32,33
 216 135 216 135 227 118.5 c 128,-1,34
 238 102 238 102 261.5 102 c 128,-1,35
 285 102 285 102 314.5 124 c 128,-1,36
 344 146 344 146 364 168 c 2,37,-1
 384 191 l 1,38,-1
 430 384 l 1,39,40
 364 398 364 398 338 398 c 0,28,29
EndSplineSet
EndChar

StartChar: aring
Encoding: 229 229 166
Width: 528
GlyphClass: 2
Flags: W
LayerCount: 2
Fore
SplineSet
221 -12 m 0,0,1
 148 -12 148 -12 114 37.5 c 128,-1,2
 80 87 80 87 80 170 c 0,3,4
 80 285 80 285 138 391 c 0,5,6
 167 444 167 444 218 478 c 128,-1,7
 269 512 269 512 334 512 c 0,8,9
 403 512 403 512 538 488 c 1,10,-1
 584 479 l 1,11,-1
 509 156 l 1,12,-1
 482 3 l 1,13,-1
 349 -2 l 1,14,15
 358 59 358 59 362 76 c 1,16,17
 321 21 321 21 266 -2 c 0,18,19
 243 -12 243 -12 221 -12 c 0,0,1
338 398 m 0,20,21
 300 398 300 398 271 359 c 0,22,23
 216 285 216 285 216 170 c 0,24,25
 216 135 216 135 227 118.5 c 128,-1,26
 238 102 238 102 261.5 102 c 128,-1,27
 285 102 285 102 314.5 124 c 128,-1,28
 344 146 344 146 364 168 c 2,29,-1
 384 191 l 1,30,-1
 430 384 l 1,31,32
 364 398 364 398 338 398 c 0,20,21
378 733 m 0,33,34
 412 763 412 763 459.5 763 c 128,-1,35
 507 763 507 763 525 732 c 0,36,37
 536 714 536 714 536 693 c 0,38,39
 536 618 536 618 485 576 c 0,40,41
 450 547 450 547 403 547 c 128,-1,42
 356 547 356 547 338 578 c 0,43,44
 326 597 326 597 326 617 c 0,45,46
 326 688 326 688 378 733 c 0,33,34
403 656 m 0,47,48
 401 652 401 652 401 646.5 c 128,-1,49
 401 641 401 641 406.5 633.5 c 128,-1,50
 412 626 412 626 425 626 c 0,51,52
 452 626 452 626 461 655 c 0,53,54
 462 659 462 659 462 664.5 c 128,-1,55
 462 670 462 670 456 676.5 c 128,-1,56
 450 683 450 683 439 683 c 0,57,58
 411 683 411 683 403 656 c 0,47,48
EndSplineSet
EndChar

StartChar: ae
Encoding: 230 230 167
Width: 714
GlyphClass: 2
Flags: W
LayerCount: 2
Fore
SplineSet
452 167 m 0,0,1
 452 109 452 109 521 109 c 0,2,3
 569 109 569 109 666 116 c 2,4,-1
 693 118 l 1,5,-1
 670 16 l 1,6,7
 579 -12 579 -12 480 -12 c 128,-1,8
 381 -12 381 -12 344 37 c 1,9,10
 318 23 318 23 259.5 5.5 c 128,-1,11
 201 -12 201 -12 168 -12 c 0,12,13
 105 -12 105 -12 73 39 c 0,14,15
 52 73 52 73 52 102.5 c 128,-1,16
 52 132 52 132 57 153 c 0,17,18
 86 279 86 279 210 302 c 0,19,20
 266 312 266 312 302 312 c 128,-1,21
 338 312 338 312 349 312 c 1,22,23
 356 325 356 325 356 341 c 0,24,25
 356 386 356 386 324 386 c 0,26,27
 262 386 262 386 172 376 c 1,28,-1
 142 372 l 1,29,-1
 163 489 l 1,30,31
 290 511 290 511 366.5 511 c 128,-1,32
 443 511 443 511 473 470 c 1,33,34
 529 511 529 511 604 511 c 128,-1,35
 679 511 679 511 718 476 c 0,36,37
 760 437 760 437 760 364 c 0,38,39
 760 324 760 324 747 277 c 2,40,-1
 724 192 l 1,41,-1
 455 194 l 1,42,43
 452 180 452 180 452 167 c 0,0,1
184 143 m 0,44,45
 184 103 184 103 215 103 c 0,46,47
 262 103 262 103 316 116 c 1,48,49
 315 126 315 126 315 148 c 128,-1,50
 315 170 315 170 326 212 c 1,51,52
 301 212 301 212 247 208 c 0,53,54
 225 206 225 206 208 192 c 1,55,56
 184 174 184 174 184 143 c 0,44,45
628 294 m 1,57,58
 635 319 635 319 635 334 c 128,-1,59
 635 349 635 349 633 358 c 0,60,61
 625 396 625 396 579.5 396 c 128,-1,62
 534 396 534 396 512.5 370.5 c 128,-1,63
 491 345 491 345 478 296 c 1,64,-1
 628 294 l 1,57,58
EndSplineSet
EndChar

StartChar: ccedilla
Encoding: 231 231 168
Width: 410
GlyphClass: 2
Flags: W
LayerCount: 2
Fore
SplineSet
262 -33 m 2,0,1
 355 -33 355 -33 355 -94 c 0,2,3
 355 -107 355 -107 351 -124 c 0,4,5
 326 -229 326 -229 222 -229 c 0,6,7
 182 -229 182 -229 150 -221 c 2,8,-1
 138 -218 l 1,9,-1
 158 -137 l 1,10,11
 188 -138 188 -138 204 -138 c 0,12,13
 240 -138 240 -138 246 -114 c 0,14,15
 249 -102 249 -102 241.5 -98 c 128,-1,16
 234 -94 234 -94 215 -94 c 2,17,-1
 193 -94 l 1,18,-1
 212 -9 l 1,19,20
 152 1 152 1 117.5 45.5 c 128,-1,21
 83 90 83 90 83 162 c 0,22,23
 83 315 83 315 150.5 413.5 c 128,-1,24
 218 512 218 512 344 512 c 0,25,26
 404 512 404 512 472 488 c 1,27,-1
 493 481 l 1,28,-1
 459 383 l 1,29,30
 382 396 382 396 338 396 c 0,31,32
 281 396 281 396 250 333.5 c 128,-1,33
 219 271 219 271 219 187.5 c 128,-1,34
 219 104 219 104 295 104 c 1,35,-1
 402 112 l 1,36,-1
 391 13 l 1,37,38
 328 -9 328 -9 262 -12 c 1,39,-1
 256 -33 l 1,40,-1
 262 -33 l 2,0,1
EndSplineSet
EndChar

StartChar: egrave
Encoding: 232 232 169
Width: 476
GlyphClass: 2
Flags: W
LayerCount: 2
Fore
SplineSet
235.5 117 m 128,-1,1
 256 102 256 102 287 102 c 0,2,3
 356 102 356 102 428 112 c 1,4,-1
 454 115 l 1,5,-1
 439 16 l 1,6,7
 346 -12 346 -12 255 -12 c 128,-1,8
 164 -12 164 -12 122.5 29 c 128,-1,9
 81 70 81 70 81 149 c 128,-1,10
 81 228 81 228 97 290 c 128,-1,11
 113 352 113 352 144.5 402 c 128,-1,12
 176 452 176 452 230.5 481.5 c 128,-1,13
 285 511 285 511 355 511 c 0,14,15
 530 511 530 511 530 362 c 0,16,17
 530 267 530 267 466 231 c 128,-1,18
 402 195 402 195 253 195 c 2,19,-1
 218 195 l 1,20,21
 215 183 215 183 215 157.5 c 128,-1,0
 215 132 215 132 235.5 117 c 128,-1,1
274 294 m 2,22,23
 343 294 343 294 370.5 309 c 128,-1,24
 398 324 398 324 398 360 c 0,25,26
 398 403 398 403 348 403 c 0,27,28
 259 403 259 403 233 294 c 1,29,-1
 274 294 l 2,22,23
261 772 m 1,30,-1
 482 682 l 1,31,-1
 426 583 l 1,32,-1
 197 662 l 1,33,-1
 261 772 l 1,30,-1
EndSplineSet
EndChar

StartChar: eacute
Encoding: 233 233 170
Width: 476
GlyphClass: 2
Flags: W
LayerCount: 2
Fore
SplineSet
235.5 117 m 128,-1,1
 256 102 256 102 287 102 c 0,2,3
 356 102 356 102 428 112 c 1,4,-1
 454 115 l 1,5,-1
 439 16 l 1,6,7
 346 -12 346 -12 255 -12 c 128,-1,8
 164 -12 164 -12 122.5 29 c 128,-1,9
 81 70 81 70 81 149 c 128,-1,10
 81 228 81 228 97 290 c 128,-1,11
 113 352 113 352 144.5 402 c 128,-1,12
 176 452 176 452 230.5 481.5 c 128,-1,13
 285 511 285 511 355 511 c 0,14,15
 530 511 530 511 530 362 c 0,16,17
 530 267 530 267 466 231 c 128,-1,18
 402 195 402 195 253 195 c 2,19,-1
 218 195 l 1,20,21
 215 183 215 183 215 157.5 c 128,-1,0
 215 132 215 132 235.5 117 c 128,-1,1
274 294 m 2,22,23
 343 294 343 294 370.5 309 c 128,-1,24
 398 324 398 324 398 360 c 0,25,26
 398 403 398 403 348 403 c 0,27,28
 259 403 259 403 233 294 c 1,29,-1
 274 294 l 2,22,23
282 576 m 1,30,-1
 272 683 l 1,31,-1
 536 774 l 1,32,-1
 546 654 l 1,33,-1
 282 576 l 1,30,-1
EndSplineSet
EndChar

StartChar: ecircumflex
Encoding: 234 234 171
Width: 476
GlyphClass: 2
Flags: W
LayerCount: 2
Fore
SplineSet
185 575 m 1,0,-1
 353 750 l 1,1,-1
 453 750 l 1,2,-1
 539 575 l 1,3,-1
 407 575 l 1,4,-1
 383 639 l 1,5,-1
 325 575 l 1,6,-1
 185 575 l 1,0,-1
235.5 117 m 128,-1,8
 256 102 256 102 287 102 c 0,9,10
 356 102 356 102 428 112 c 1,11,-1
 454 115 l 1,12,-1
 439 16 l 1,13,14
 346 -12 346 -12 255 -12 c 128,-1,15
 164 -12 164 -12 122.5 29 c 128,-1,16
 81 70 81 70 81 149 c 128,-1,17
 81 228 81 228 97 290 c 128,-1,18
 113 352 113 352 144.5 402 c 128,-1,19
 176 452 176 452 230.5 481.5 c 128,-1,20
 285 511 285 511 355 511 c 0,21,22
 530 511 530 511 530 362 c 0,23,24
 530 267 530 267 466 231 c 128,-1,25
 402 195 402 195 253 195 c 2,26,-1
 218 195 l 1,27,28
 215 183 215 183 215 157.5 c 128,-1,7
 215 132 215 132 235.5 117 c 128,-1,8
274 294 m 2,29,30
 343 294 343 294 370.5 309 c 128,-1,31
 398 324 398 324 398 360 c 0,32,33
 398 403 398 403 348 403 c 0,34,35
 259 403 259 403 233 294 c 1,36,-1
 274 294 l 2,29,30
EndSplineSet
EndChar

StartChar: edieresis
Encoding: 235 235 172
Width: 476
GlyphClass: 2
Flags: W
LayerCount: 2
Fore
SplineSet
211 601 m 1,0,-1
 242 736 l 1,1,-1
 363 736 l 1,2,-1
 331 601 l 1,3,-1
 211 601 l 1,0,-1
415 601 m 1,4,-1
 446 736 l 1,5,-1
 567 736 l 1,6,-1
 535 601 l 1,7,-1
 415 601 l 1,4,-1
235.5 117 m 128,-1,9
 256 102 256 102 287 102 c 0,10,11
 356 102 356 102 428 112 c 1,12,-1
 454 115 l 1,13,-1
 439 16 l 1,14,15
 346 -12 346 -12 255 -12 c 128,-1,16
 164 -12 164 -12 122.5 29 c 128,-1,17
 81 70 81 70 81 149 c 128,-1,18
 81 228 81 228 97 290 c 128,-1,19
 113 352 113 352 144.5 402 c 128,-1,20
 176 452 176 452 230.5 481.5 c 128,-1,21
 285 511 285 511 355 511 c 0,22,23
 530 511 530 511 530 362 c 0,24,25
 530 267 530 267 466 231 c 128,-1,26
 402 195 402 195 253 195 c 2,27,-1
 218 195 l 1,28,29
 215 183 215 183 215 157.5 c 128,-1,8
 215 132 215 132 235.5 117 c 128,-1,9
274 294 m 2,30,31
 343 294 343 294 370.5 309 c 128,-1,32
 398 324 398 324 398 360 c 0,33,34
 398 403 398 403 348 403 c 0,35,36
 259 403 259 403 233 294 c 1,37,-1
 274 294 l 2,30,31
EndSplineSet
EndChar

StartChar: igrave
Encoding: 236 236 173
Width: 243
GlyphClass: 2
Flags: W
LayerCount: 2
Fore
SplineSet
55 0 m 1,0,-1
 170 500 l 1,1,-1
 304 500 l 1,2,-1
 189 0 l 1,3,-1
 55 0 l 1,0,-1
135 772 m 1,4,-1
 356 682 l 1,5,-1
 300 583 l 1,6,-1
 71 662 l 1,7,-1
 135 772 l 1,4,-1
EndSplineSet
EndChar

StartChar: iacute
Encoding: 237 237 174
Width: 243
GlyphClass: 2
Flags: W
LayerCount: 2
Fore
SplineSet
55 0 m 1,0,-1
 170 500 l 1,1,-1
 304 500 l 1,2,-1
 189 0 l 1,3,-1
 55 0 l 1,0,-1
182 576 m 1,4,-1
 172 683 l 1,5,-1
 436 774 l 1,6,-1
 446 654 l 1,7,-1
 182 576 l 1,4,-1
EndSplineSet
EndChar

StartChar: icircumflex
Encoding: 238 238 175
Width: 243
GlyphClass: 2
Flags: W
LayerCount: 2
Fore
SplineSet
69 575 m 1,0,-1
 237 750 l 1,1,-1
 337 750 l 1,2,-1
 423 575 l 1,3,-1
 291 575 l 1,4,-1
 267 639 l 1,5,-1
 209 575 l 1,6,-1
 69 575 l 1,0,-1
55 0 m 1,7,-1
 170 500 l 1,8,-1
 304 500 l 1,9,-1
 189 0 l 1,10,-1
 55 0 l 1,7,-1
EndSplineSet
EndChar

StartChar: idieresis
Encoding: 239 239 176
Width: 243
GlyphClass: 2
Flags: W
LayerCount: 2
Fore
SplineSet
89 601 m 1,0,-1
 120 736 l 1,1,-1
 241 736 l 1,2,-1
 209 601 l 1,3,-1
 89 601 l 1,0,-1
293 601 m 1,4,-1
 324 736 l 1,5,-1
 445 736 l 1,6,-1
 413 601 l 1,7,-1
 293 601 l 1,4,-1
55 0 m 1,8,-1
 170 500 l 1,9,-1
 304 500 l 1,10,-1
 189 0 l 1,11,-1
 55 0 l 1,8,-1
EndSplineSet
EndChar

StartChar: eth
Encoding: 240 240 177
Width: 527
GlyphClass: 2
Flags: W
LayerCount: 2
Fore
SplineSet
588 453 m 0,0,1
 588 407 588 407 575 353 c 0,2,3
 529 164 529 164 455.5 77.5 c 128,-1,4
 382 -9 382 -9 249 -9 c 0,5,6
 145 -9 145 -9 100 59 c 0,7,8
 72 103 72 103 72 157 c 0,9,10
 72 187 72 187 81 221 c 0,11,12
 107 318 107 318 174.5 378 c 128,-1,13
 242 438 242 438 339 438 c 0,14,15
 397 438 397 438 439 422 c 1,16,-1
 453 416 l 1,17,18
 455 430 455 430 455 442 c 0,19,20
 455 511 455 511 381 544 c 1,21,-1
 274 470 l 1,22,-1
 228 542 l 1,23,-1
 273 573 l 1,24,-1
 209 582 l 1,25,-1
 253 698 l 1,26,27
 351 693 351 693 417 672 c 1,28,-1
 515 739 l 1,29,-1
 558 667 l 1,30,-1
 504 629 l 1,31,32
 588 567 588 567 588 453 c 0,0,1
209 177 m 0,33,34
 209 118 209 118 279 118 c 0,35,36
 382 118 382 118 427 296 c 1,37,38
 383 318 383 318 320 318 c 0,39,40
 284 318 284 318 257 291.5 c 128,-1,41
 230 265 230 265 218 222 c 1,42,43
 209 197 209 197 209 177 c 0,33,34
EndSplineSet
EndChar

StartChar: ntilde
Encoding: 241 241 178
Width: 513
GlyphClass: 2
Flags: W
LayerCount: 2
Fore
SplineSet
266 336 m 1,0,-1
 189 0 l 1,1,-1
 55 0 l 1,2,-1
 170 500 l 1,3,-1
 298 500 l 1,4,-1
 292 451 l 1,5,-1
 309 466 l 2,6,7
 326 482 326 482 358 497 c 128,-1,8
 390 512 390 512 419 512 c 0,9,10
 541 512 541 512 541 371 c 0,11,12
 541 335 541 335 520 245 c 2,13,-1
 464 0 l 1,14,-1
 330 0 l 1,15,-1
 384 235 l 2,16,17
 402 310 402 310 402 339.5 c 128,-1,18
 402 369 402 369 394.5 382.5 c 128,-1,19
 387 396 387 396 358 396 c 128,-1,20
 329 396 329 396 266 336 c 1,0,-1
519 608 m 128,-1,22
 488 590 488 590 464 590 c 128,-1,23
 440 590 440 590 394.5 612 c 128,-1,24
 349 634 349 634 336 634 c 0,25,26
 312 634 312 634 266 604 c 1,27,-1
 250 594 l 1,28,-1
 247 686 l 1,29,30
 255 693 255 693 267 704 c 128,-1,31
 279 715 279 715 310 733 c 128,-1,32
 341 751 341 751 367 751 c 128,-1,33
 393 751 393 751 438 729.5 c 128,-1,34
 483 708 483 708 493 708 c 0,35,36
 512 708 512 708 562 738 c 1,37,-1
 578 747 l 1,38,-1
 582 654 l 1,39,-1
 562 636 l 2,40,21
 550 626 550 626 519 608 c 128,-1,22
EndSplineSet
EndChar

StartChar: ograve
Encoding: 242 242 179
Width: 496
GlyphClass: 2
Flags: W
LayerCount: 2
Fore
SplineSet
333 511 m 0,0,1
 530 511 530 511 530 322 c 0,2,3
 530 241 530 241 503 167 c 128,-1,4
 476 93 476 93 416.5 40.5 c 128,-1,5
 357 -12 357 -12 277 -12 c 0,6,7
 80 -12 80 -12 80 177 c 0,8,9
 80 257 80 257 109 332 c 128,-1,10
 138 407 138 407 197.5 459 c 128,-1,11
 257 511 257 511 333 511 c 0,0,1
277 102 m 0,12,13
 331 102 331 102 364 170.5 c 128,-1,14
 397 239 397 239 397 324 c 0,15,16
 397 397 397 397 333 397 c 0,17,18
 279 397 279 397 246 328.5 c 128,-1,19
 213 260 213 260 213 175 c 0,20,21
 213 102 213 102 277 102 c 0,12,13
291 772 m 1,22,-1
 512 682 l 1,23,-1
 456 583 l 1,24,-1
 227 662 l 1,25,-1
 291 772 l 1,22,-1
EndSplineSet
EndChar

StartChar: oacute
Encoding: 243 243 180
Width: 496
GlyphClass: 2
Flags: W
LayerCount: 2
Fore
SplineSet
333 511 m 0,0,1
 530 511 530 511 530 322 c 0,2,3
 530 241 530 241 503 167 c 128,-1,4
 476 93 476 93 416.5 40.5 c 128,-1,5
 357 -12 357 -12 277 -12 c 0,6,7
 80 -12 80 -12 80 177 c 0,8,9
 80 257 80 257 109 332 c 128,-1,10
 138 407 138 407 197.5 459 c 128,-1,11
 257 511 257 511 333 511 c 0,0,1
277 102 m 0,12,13
 331 102 331 102 364 170.5 c 128,-1,14
 397 239 397 239 397 324 c 0,15,16
 397 397 397 397 333 397 c 0,17,18
 279 397 279 397 246 328.5 c 128,-1,19
 213 260 213 260 213 175 c 0,20,21
 213 102 213 102 277 102 c 0,12,13
283 576 m 1,22,-1
 273 683 l 1,23,-1
 537 774 l 1,24,-1
 547 654 l 1,25,-1
 283 576 l 1,22,-1
EndSplineSet
EndChar

StartChar: ocircumflex
Encoding: 244 244 181
Width: 496
GlyphClass: 2
Flags: W
LayerCount: 2
Fore
SplineSet
200 575 m 1,0,-1
 368 750 l 1,1,-1
 468 750 l 1,2,-1
 554 575 l 1,3,-1
 422 575 l 1,4,-1
 398 639 l 1,5,-1
 340 575 l 1,6,-1
 200 575 l 1,0,-1
333 511 m 0,7,8
 530 511 530 511 530 322 c 0,9,10
 530 241 530 241 503 167 c 128,-1,11
 476 93 476 93 416.5 40.5 c 128,-1,12
 357 -12 357 -12 277 -12 c 0,13,14
 80 -12 80 -12 80 177 c 0,15,16
 80 257 80 257 109 332 c 128,-1,17
 138 407 138 407 197.5 459 c 128,-1,18
 257 511 257 511 333 511 c 0,7,8
277 102 m 0,19,20
 331 102 331 102 364 170.5 c 128,-1,21
 397 239 397 239 397 324 c 0,22,23
 397 397 397 397 333 397 c 0,24,25
 279 397 279 397 246 328.5 c 128,-1,26
 213 260 213 260 213 175 c 0,27,28
 213 102 213 102 277 102 c 0,19,20
EndSplineSet
EndChar

StartChar: otilde
Encoding: 245 245 182
Width: 496
GlyphClass: 2
Flags: W
LayerCount: 2
Fore
SplineSet
333 511 m 0,0,1
 530 511 530 511 530 322 c 0,2,3
 530 241 530 241 503 167 c 128,-1,4
 476 93 476 93 416.5 40.5 c 128,-1,5
 357 -12 357 -12 277 -12 c 0,6,7
 80 -12 80 -12 80 177 c 0,8,9
 80 257 80 257 109 332 c 128,-1,10
 138 407 138 407 197.5 459 c 128,-1,11
 257 511 257 511 333 511 c 0,0,1
277 102 m 0,12,13
 331 102 331 102 364 170.5 c 128,-1,14
 397 239 397 239 397 324 c 0,15,16
 397 397 397 397 333 397 c 0,17,18
 279 397 279 397 246 328.5 c 128,-1,19
 213 260 213 260 213 175 c 0,20,21
 213 102 213 102 277 102 c 0,12,13
494 608 m 128,-1,23
 463 590 463 590 439 590 c 128,-1,24
 415 590 415 590 369.5 612 c 128,-1,25
 324 634 324 634 312 634 c 0,26,27
 287 634 287 634 240 604 c 1,28,-1
 225 594 l 1,29,-1
 222 686 l 1,30,31
 230 693 230 693 242 704 c 128,-1,32
 254 715 254 715 285 733 c 128,-1,33
 316 751 316 751 342 751 c 128,-1,34
 368 751 368 751 413 729.5 c 128,-1,35
 458 708 458 708 468 708 c 0,36,37
 487 708 487 708 537 738 c 1,38,-1
 553 747 l 1,39,-1
 557 654 l 1,40,-1
 537 636 l 2,41,22
 525 626 525 626 494 608 c 128,-1,23
EndSplineSet
EndChar

StartChar: odieresis
Encoding: 246 246 183
Width: 496
GlyphClass: 2
Flags: W
LayerCount: 2
Fore
SplineSet
333 511 m 0,0,1
 530 511 530 511 530 322 c 0,2,3
 530 241 530 241 503 167 c 128,-1,4
 476 93 476 93 416.5 40.5 c 128,-1,5
 357 -12 357 -12 277 -12 c 0,6,7
 80 -12 80 -12 80 177 c 0,8,9
 80 257 80 257 109 332 c 128,-1,10
 138 407 138 407 197.5 459 c 128,-1,11
 257 511 257 511 333 511 c 0,0,1
277 102 m 0,12,13
 331 102 331 102 364 170.5 c 128,-1,14
 397 239 397 239 397 324 c 0,15,16
 397 397 397 397 333 397 c 0,17,18
 279 397 279 397 246 328.5 c 128,-1,19
 213 260 213 260 213 175 c 0,20,21
 213 102 213 102 277 102 c 0,12,13
228 601 m 1,22,-1
 259 736 l 1,23,-1
 370 736 l 1,24,-1
 338 601 l 1,25,-1
 228 601 l 1,22,-1
422 601 m 1,26,-1
 453 736 l 1,27,-1
 564 736 l 1,28,-1
 532 601 l 1,29,-1
 422 601 l 1,26,-1
EndSplineSet
EndChar

StartChar: divide
Encoding: 247 247 184
Width: 560
GlyphClass: 2
Flags: W
LayerCount: 2
Fore
SplineSet
271 352 m 1,0,-1
 271 484 l 1,1,-1
 403 484 l 1,2,-1
 403 352 l 1,3,-1
 271 352 l 1,0,-1
108 191 m 1,4,-1
 108 311 l 1,5,-1
 568 311 l 1,6,-1
 568 191 l 1,7,-1
 108 191 l 1,4,-1
271 17 m 1,8,-1
 271 149 l 1,9,-1
 403 149 l 1,10,-1
 403 17 l 1,11,-1
 271 17 l 1,8,-1
EndSplineSet
EndChar

StartChar: oslash
Encoding: 248 248 185
Width: 496
GlyphClass: 2
Flags: W
LayerCount: 2
Fore
SplineSet
334 513 m 0,0,1
 382 513 382 513 419 501 c 1,2,-1
 483 606 l 1,3,-1
 554 575 l 1,4,-1
 483 464 l 1,5,6
 531 418 531 418 531 330.5 c 128,-1,7
 531 243 531 243 504 169 c 128,-1,8
 477 95 477 95 417.5 42.5 c 128,-1,9
 358 -10 358 -10 278 -10 c 0,10,11
 231 -10 231 -10 192 1 c 1,12,-1
 126 -107 l 1,13,-1
 56 -76 l 1,14,-1
 129 38 l 1,15,16
 81 84 81 84 81 171.5 c 128,-1,17
 81 259 81 259 110 334 c 128,-1,18
 139 409 139 409 198.5 461 c 128,-1,19
 258 513 258 513 334 513 c 0,0,1
334 399 m 0,20,21
 280 399 280 399 247 330.5 c 128,-1,22
 214 262 214 262 214 177 c 2,23,-1
 214 169 l 1,24,-1
 276 266 l 1,25,-1
 355 396 l 1,26,27
 346 399 346 399 334 399 c 0,20,21
278 104 m 0,28,29
 332 104 332 104 365 172.5 c 128,-1,30
 398 241 398 241 398 326 c 2,31,-1
 398 331 l 1,32,-1
 336 235 l 1,33,-1
 257 106 l 1,34,35
 269 104 269 104 278 104 c 0,28,29
EndSplineSet
EndChar

StartChar: ugrave
Encoding: 249 249 186
Width: 513
GlyphClass: 2
Flags: W
LayerCount: 2
Fore
SplineSet
295 772 m 1,0,-1
 516 682 l 1,1,-1
 460 583 l 1,2,-1
 231 662 l 1,3,-1
 295 772 l 1,0,-1
209 -12 m 0,4,5
 87 -12 87 -12 87 129 c 0,6,7
 87 168 87 168 108 255 c 1,8,-1
 164 500 l 1,9,-1
 298 500 l 1,10,-1
 244 265 l 2,11,12
 226 190 226 190 226 161 c 128,-1,13
 226 132 226 132 234.5 118 c 128,-1,14
 243 104 243 104 262 104 c 0,15,16
 296 104 296 104 346 149 c 1,17,-1
 362 164 l 1,18,-1
 439 500 l 1,19,-1
 573 500 l 1,20,-1
 458 0 l 1,21,-1
 330 0 l 1,22,-1
 336 49 l 1,23,24
 313 26 313 26 275.5 7 c 128,-1,25
 238 -12 238 -12 209 -12 c 0,4,5
EndSplineSet
EndChar

StartChar: uacute
Encoding: 250 250 187
Width: 513
GlyphClass: 2
Flags: W
LayerCount: 2
Fore
SplineSet
209 -12 m 0,0,1
 87 -12 87 -12 87 129 c 0,2,3
 87 168 87 168 108 255 c 1,4,-1
 164 500 l 1,5,-1
 298 500 l 1,6,-1
 244 265 l 2,7,8
 226 190 226 190 226 161 c 128,-1,9
 226 132 226 132 234.5 118 c 128,-1,10
 243 104 243 104 262 104 c 0,11,12
 296 104 296 104 346 149 c 1,13,-1
 362 164 l 1,14,-1
 439 500 l 1,15,-1
 573 500 l 1,16,-1
 458 0 l 1,17,-1
 330 0 l 1,18,-1
 336 49 l 1,19,20
 313 26 313 26 275.5 7 c 128,-1,21
 238 -12 238 -12 209 -12 c 0,0,1
287 576 m 1,22,-1
 277 683 l 1,23,-1
 541 774 l 1,24,-1
 551 654 l 1,25,-1
 287 576 l 1,22,-1
EndSplineSet
EndChar

StartChar: ucircumflex
Encoding: 251 251 188
Width: 513
GlyphClass: 2
Flags: W
LayerCount: 2
Fore
SplineSet
197 575 m 1,0,-1
 365 750 l 1,1,-1
 465 750 l 1,2,-1
 551 575 l 1,3,-1
 419 575 l 1,4,-1
 395 639 l 1,5,-1
 337 575 l 1,6,-1
 197 575 l 1,0,-1
209 -12 m 0,7,8
 87 -12 87 -12 87 129 c 0,9,10
 87 168 87 168 108 255 c 1,11,-1
 164 500 l 1,12,-1
 298 500 l 1,13,-1
 244 265 l 2,14,15
 226 190 226 190 226 161 c 128,-1,16
 226 132 226 132 234.5 118 c 128,-1,17
 243 104 243 104 262 104 c 0,18,19
 296 104 296 104 346 149 c 1,20,-1
 362 164 l 1,21,-1
 439 500 l 1,22,-1
 573 500 l 1,23,-1
 458 0 l 1,24,-1
 330 0 l 1,25,-1
 336 49 l 1,26,27
 313 26 313 26 275.5 7 c 128,-1,28
 238 -12 238 -12 209 -12 c 0,7,8
EndSplineSet
EndChar

StartChar: udieresis
Encoding: 252 252 189
Width: 513
GlyphClass: 2
Flags: W
LayerCount: 2
Fore
SplineSet
216 601 m 1,0,-1
 247 736 l 1,1,-1
 368 736 l 1,2,-1
 336 601 l 1,3,-1
 216 601 l 1,0,-1
420 601 m 1,4,-1
 451 736 l 1,5,-1
 572 736 l 1,6,-1
 540 601 l 1,7,-1
 420 601 l 1,4,-1
209 -12 m 0,8,9
 87 -12 87 -12 87 129 c 0,10,11
 87 168 87 168 108 255 c 1,12,-1
 164 500 l 1,13,-1
 298 500 l 1,14,-1
 244 265 l 2,15,16
 226 190 226 190 226 161 c 128,-1,17
 226 132 226 132 234.5 118 c 128,-1,18
 243 104 243 104 262 104 c 0,19,20
 296 104 296 104 346 149 c 1,21,-1
 362 164 l 1,22,-1
 439 500 l 1,23,-1
 573 500 l 1,24,-1
 458 0 l 1,25,-1
 330 0 l 1,26,-1
 336 49 l 1,27,28
 313 26 313 26 275.5 7 c 128,-1,29
 238 -12 238 -12 209 -12 c 0,8,9
EndSplineSet
EndChar

StartChar: yacute
Encoding: 253 253 190
Width: 464
GlyphClass: 2
Flags: W
LayerCount: 2
Fore
SplineSet
126 500 m 1,0,-1
 257 500 l 1,1,-1
 243 111 l 1,2,-1
 258 111 l 1,3,-1
 432 500 l 1,4,-1
 567 500 l 1,5,-1
 235 -210 l 1,6,-1
 102 -210 l 1,7,-1
 205 0 l 1,8,-1
 122 0 l 1,9,-1
 126 500 l 1,0,-1
273 576 m 1,10,-1
 263 683 l 1,11,-1
 527 774 l 1,12,-1
 537 654 l 1,13,-1
 273 576 l 1,10,-1
EndSplineSet
EndChar

StartChar: thorn
Encoding: 254 254 191
Width: 495
GlyphClass: 2
Flags: W
LayerCount: 2
Fore
SplineSet
291 469 m 1,0,1
 352 511 352 511 400.5 511 c 128,-1,2
 449 511 449 511 483.5 487 c 128,-1,3
 518 463 518 463 527.5 426.5 c 128,-1,4
 537 390 537 390 537 369.5 c 128,-1,5
 537 349 537 349 536 324.5 c 128,-1,6
 535 300 535 300 523 255 c 0,7,8
 482 105 482 105 419.5 46.5 c 128,-1,9
 357 -12 357 -12 248 -12 c 0,10,11
 177 -12 177 -12 177 -7 c 1,12,-1
 130 -208 l 1,13,-1
 4 -208 l 1,14,-1
 218 698 l 1,15,-1
 344 698 l 1,16,-1
 291 469 l 1,0,1
394 255 m 0,17,18
 403 288 403 288 403 308 c 128,-1,19
 403 328 403 328 401 345 c 128,-1,20
 399 362 399 362 386 375 c 128,-1,21
 373 388 373 388 354 388 c 0,22,23
 323 388 323 388 276 359 c 1,24,-1
 262 350 l 1,25,-1
 206 113 l 1,26,-1
 273 107 l 1,27,28
 356 107 356 107 394 255 c 0,17,18
EndSplineSet
EndChar

StartChar: ydieresis
Encoding: 255 255 192
Width: 464
GlyphClass: 2
Flags: W
LayerCount: 2
Fore
SplineSet
198 601 m 1,0,-1
 229 736 l 1,1,-1
 350 736 l 1,2,-1
 318 601 l 1,3,-1
 198 601 l 1,0,-1
402 601 m 1,4,-1
 433 736 l 1,5,-1
 554 736 l 1,6,-1
 522 601 l 1,7,-1
 402 601 l 1,4,-1
126 500 m 1,8,-1
 257 500 l 1,9,-1
 243 111 l 1,10,-1
 258 111 l 1,11,-1
 432 500 l 1,12,-1
 567 500 l 1,13,-1
 235 -210 l 1,14,-1
 102 -210 l 1,15,-1
 205 0 l 1,16,-1
 122 0 l 1,17,-1
 126 500 l 1,8,-1
EndSplineSet
EndChar

StartChar: Amacron
Encoding: 256 256 193
Width: 551
GlyphClass: 2
Flags: W
LayerCount: 2
Fore
SplineSet
288 806 m 1,0,-1
 313 915 l 1,1,-1
 640 915 l 1,2,-1
 615 806 l 1,3,-1
 288 806 l 1,0,-1
13 0 m 1,4,-1
 319 680 l 1,5,-1
 557 680 l 1,6,-1
 536 0 l 1,7,-1
 398 0 l 1,8,-1
 402 118 l 1,9,-1
 204 118 l 1,10,-1
 151 0 l 1,11,-1
 13 0 l 1,4,-1
400 560 m 1,12,-1
 256 238 l 1,13,-1
 407 238 l 1,14,-1
 421 560 l 1,15,-1
 400 560 l 1,12,-1
EndSplineSet
Position2: "'cpsp' Capital Spacing in Latin lookup 0 subtable" dx=5 dy=0 dh=10 dv=0
EndChar

StartChar: amacron
Encoding: 257 257 194
Width: 528
GlyphClass: 2
Flags: W
LayerCount: 2
Fore
SplineSet
221 -12 m 0,0,1
 148 -12 148 -12 114 37.5 c 128,-1,2
 80 87 80 87 80 170 c 0,3,4
 80 285 80 285 138 391 c 0,5,6
 167 444 167 444 218 478 c 128,-1,7
 269 512 269 512 334 512 c 0,8,9
 403 512 403 512 538 488 c 1,10,-1
 584 479 l 1,11,-1
 509 156 l 1,12,-1
 482 3 l 1,13,-1
 349 -2 l 1,14,15
 358 59 358 59 362 76 c 1,16,17
 321 21 321 21 266 -2 c 0,18,19
 243 -12 243 -12 221 -12 c 0,0,1
338 398 m 0,20,21
 300 398 300 398 271 359 c 0,22,23
 216 285 216 285 216 170 c 0,24,25
 216 135 216 135 227 118.5 c 128,-1,26
 238 102 238 102 261.5 102 c 128,-1,27
 285 102 285 102 314.5 124 c 128,-1,28
 344 146 344 146 364 168 c 2,29,-1
 384 191 l 1,30,-1
 430 384 l 1,31,32
 364 398 364 398 338 398 c 0,20,21
277 627 m 1,33,-1
 302 736 l 1,34,-1
 611 736 l 1,35,-1
 585 627 l 1,36,-1
 277 627 l 1,33,-1
EndSplineSet
EndChar

StartChar: Abreve
Encoding: 258 258 195
Width: 551
GlyphClass: 2
Flags: W
LayerCount: 2
Fore
SplineSet
444 918 m 0,0,1
 444 888 444 888 481 888 c 128,-1,2
 518 888 518 888 533 927 c 1,3,-1
 655 927 l 1,4,5
 631 856 631 856 586 819.5 c 128,-1,6
 541 783 541 783 462.5 783 c 128,-1,7
 384 783 384 783 352.5 816.5 c 128,-1,8
 321 850 321 850 321 900 c 0,9,10
 321 913 321 913 323 927 c 1,11,-1
 445 927 l 1,12,13
 444 922 444 922 444 918 c 0,0,1
13 0 m 1,14,-1
 319 680 l 1,15,-1
 557 680 l 1,16,-1
 536 0 l 1,17,-1
 398 0 l 1,18,-1
 402 118 l 1,19,-1
 204 118 l 1,20,-1
 151 0 l 1,21,-1
 13 0 l 1,14,-1
400 560 m 1,22,-1
 256 238 l 1,23,-1
 407 238 l 1,24,-1
 421 560 l 1,25,-1
 400 560 l 1,22,-1
EndSplineSet
Position2: "'cpsp' Capital Spacing in Latin lookup 0 subtable" dx=5 dy=0 dh=10 dv=0
EndChar

StartChar: abreve
Encoding: 259 259 196
Width: 528
GlyphClass: 2
Flags: W
LayerCount: 2
Fore
SplineSet
221 -12 m 0,0,1
 148 -12 148 -12 114 37.5 c 128,-1,2
 80 87 80 87 80 170 c 0,3,4
 80 285 80 285 138 391 c 0,5,6
 167 444 167 444 218 478 c 128,-1,7
 269 512 269 512 334 512 c 0,8,9
 403 512 403 512 538 488 c 1,10,-1
 584 479 l 1,11,-1
 509 156 l 1,12,-1
 482 3 l 1,13,-1
 349 -2 l 1,14,15
 358 59 358 59 362 76 c 1,16,17
 321 21 321 21 266 -2 c 0,18,19
 243 -12 243 -12 221 -12 c 0,0,1
338 398 m 0,20,21
 300 398 300 398 271 359 c 0,22,23
 216 285 216 285 216 170 c 0,24,25
 216 135 216 135 227 118.5 c 128,-1,26
 238 102 238 102 261.5 102 c 128,-1,27
 285 102 285 102 314.5 124 c 128,-1,28
 344 146 344 146 364 168 c 2,29,-1
 384 191 l 1,30,-1
 430 384 l 1,31,32
 364 398 364 398 338 398 c 0,20,21
408 739 m 0,33,34
 408 702 408 702 452.5 702 c 128,-1,35
 497 702 497 702 513 746 c 1,36,-1
 634 746 l 1,37,38
 582 590 582 590 416 590 c 0,39,40
 284 590 284 590 284 710 c 0,41,42
 284 727 284 727 287 746 c 1,43,-1
 408 746 l 1,44,45
 408 742 408 742 408 739 c 0,33,34
EndSplineSet
EndChar

StartChar: Aogonek
Encoding: 260 260 197
Width: 551
GlyphClass: 2
Flags: W
LayerCount: 2
Fore
SplineSet
536 0 m 1,0,-1
 528 0 l 1,1,2
 506 -16 506 -16 484 -41.5 c 128,-1,3
 462 -67 462 -67 462 -81.5 c 128,-1,4
 462 -96 462 -96 475 -96 c 1,5,-1
 512 -93 l 1,6,-1
 499 -203 l 1,7,8
 442 -214 442 -214 402 -214 c 128,-1,9
 362 -214 362 -214 340 -194.5 c 128,-1,10
 318 -175 318 -175 318 -137 c 0,11,12
 318 -73 318 -73 408 0 c 1,13,-1
 398 0 l 1,14,-1
 402 118 l 1,15,-1
 204 118 l 1,16,-1
 151 0 l 1,17,-1
 13 0 l 1,18,-1
 319 680 l 1,19,-1
 557 680 l 1,20,-1
 536 5 l 1,21,-1
 536 0 l 1,0,-1
400 560 m 1,22,-1
 256 238 l 1,23,-1
 407 238 l 1,24,-1
 421 560 l 1,25,-1
 400 560 l 1,22,-1
EndSplineSet
Position2: "'cpsp' Capital Spacing in Latin lookup 0 subtable" dx=5 dy=0 dh=10 dv=0
EndChar

StartChar: aogonek
Encoding: 261 261 198
Width: 528
GlyphClass: 2
Flags: W
LayerCount: 2
Fore
SplineSet
439 -203 m 1,0,1
 382 -214 382 -214 342 -214 c 128,-1,2
 302 -214 302 -214 280 -194.5 c 128,-1,3
 258 -175 258 -175 258 -137 c 0,4,5
 258 -73 258 -73 349 1 c 0,6,7
 349 2 349 2 354.5 34.5 c 128,-1,8
 360 67 360 67 362 76 c 1,9,10
 321 21 321 21 266 -2 c 0,11,12
 243 -12 243 -12 221 -12 c 0,13,14
 148 -12 148 -12 114 37.5 c 128,-1,15
 80 87 80 87 80 170 c 0,16,17
 80 285 80 285 138 391 c 0,18,19
 167 444 167 444 218 478 c 128,-1,20
 269 512 269 512 334 512 c 0,21,22
 403 512 403 512 538 488 c 1,23,-1
 584 479 l 1,24,-1
 509 156 l 1,25,-1
 482 3 l 1,26,-1
 472 2 l 1,27,28
 450 -12 450 -12 426 -39 c 128,-1,29
 402 -66 402 -66 402 -81 c 128,-1,30
 402 -96 402 -96 415 -96 c 1,31,-1
 452 -93 l 1,32,-1
 439 -203 l 1,0,1
338 398 m 0,33,34
 300 398 300 398 271 359 c 0,35,36
 216 285 216 285 216 170 c 0,37,38
 216 135 216 135 227 118.5 c 128,-1,39
 238 102 238 102 261.5 102 c 128,-1,40
 285 102 285 102 314.5 124 c 128,-1,41
 344 146 344 146 364 168 c 2,42,-1
 384 191 l 1,43,-1
 430 384 l 1,44,45
 364 398 364 398 338 398 c 0,33,34
EndSplineSet
EndChar

StartChar: Cacute
Encoding: 262 262 199
Width: 494
GlyphClass: 2
Flags: W
LayerCount: 2
Fore
SplineSet
304 -12 m 0,0,1
 99 -12 99 -12 99 185 c 0,2,3
 99 331 99 331 148 454 c 0,4,5
 175 522 175 522 214 574.5 c 128,-1,6
 253 627 253 627 313.5 659.5 c 128,-1,7
 374 692 374 692 449 692 c 0,8,9
 522 692 522 692 596 670 c 1,10,-1
 620 662 l 1,11,-1
 588 560 l 1,12,13
 526 572 526 572 444 572 c 0,14,15
 382 572 382 572 334.5 517 c 128,-1,16
 287 462 287 462 264 377 c 128,-1,17
 241 292 241 292 241 195 c 0,18,19
 241 108 241 108 322 108 c 0,20,21
 399 108 399 108 461 118 c 1,22,-1
 484 121 l 1,23,-1
 473 14 l 1,24,25
 380 -12 380 -12 304 -12 c 0,0,1
384 765 m 1,26,-1
 374 871 l 1,27,-1
 638 962 l 1,28,-1
 648 842 l 1,29,-1
 384 765 l 1,26,-1
EndSplineSet
Position2: "'cpsp' Capital Spacing in Latin lookup 0 subtable" dx=5 dy=0 dh=10 dv=0
EndChar

StartChar: cacute
Encoding: 263 263 200
Width: 409
GlyphClass: 2
Flags: W
LayerCount: 2
Fore
SplineSet
343 512 m 0,0,1
 403 512 403 512 470 488 c 1,2,-1
 492 481 l 1,3,-1
 458 383 l 1,4,5
 381 396 381 396 337 396 c 0,6,7
 280 396 280 396 249 333.5 c 128,-1,8
 218 271 218 271 218 187.5 c 128,-1,9
 218 104 218 104 294 104 c 1,10,-1
 401 112 l 1,11,-1
 390 13 l 1,12,13
 317 -12 317 -12 244 -12 c 128,-1,14
 171 -12 171 -12 126.5 34 c 128,-1,15
 82 80 82 80 82 162 c 0,16,17
 82 315 82 315 149.5 413.5 c 128,-1,18
 217 512 217 512 343 512 c 0,0,1
268 576 m 1,19,-1
 258 683 l 1,20,-1
 522 774 l 1,21,-1
 532 654 l 1,22,-1
 268 576 l 1,19,-1
EndSplineSet
EndChar

StartChar: Ccircumflex
Encoding: 264 264 201
Width: 494
GlyphClass: 2
Flags: W
LayerCount: 2
Fore
SplineSet
304 -12 m 0,0,1
 99 -12 99 -12 99 185 c 0,2,3
 99 331 99 331 148 454 c 0,4,5
 175 522 175 522 214 574.5 c 128,-1,6
 253 627 253 627 313.5 659.5 c 128,-1,7
 374 692 374 692 449 692 c 0,8,9
 522 692 522 692 596 670 c 1,10,-1
 620 662 l 1,11,-1
 588 560 l 1,12,13
 526 572 526 572 444 572 c 0,14,15
 382 572 382 572 334.5 517 c 128,-1,16
 287 462 287 462 264 377 c 128,-1,17
 241 292 241 292 241 195 c 0,18,19
 241 108 241 108 322 108 c 0,20,21
 399 108 399 108 461 118 c 1,22,-1
 484 121 l 1,23,-1
 473 14 l 1,24,25
 380 -12 380 -12 304 -12 c 0,0,1
292 779 m 1,26,-1
 468 931 l 1,27,-1
 548 931 l 1,28,-1
 644 779 l 1,29,-1
 522 779 l 1,30,-1
 496 834 l 1,31,-1
 434 779 l 1,32,-1
 292 779 l 1,26,-1
EndSplineSet
Position2: "'cpsp' Capital Spacing in Latin lookup 0 subtable" dx=5 dy=0 dh=10 dv=0
EndChar

StartChar: ccircumflex
Encoding: 265 265 202
Width: 409
GlyphClass: 2
Flags: W
LayerCount: 2
Fore
SplineSet
343 512 m 0,0,1
 403 512 403 512 470 488 c 1,2,-1
 492 481 l 1,3,-1
 458 383 l 1,4,5
 381 396 381 396 337 396 c 0,6,7
 280 396 280 396 249 333.5 c 128,-1,8
 218 271 218 271 218 187.5 c 128,-1,9
 218 104 218 104 294 104 c 1,10,-1
 401 112 l 1,11,-1
 390 13 l 1,12,13
 317 -12 317 -12 244 -12 c 128,-1,14
 171 -12 171 -12 126.5 34 c 128,-1,15
 82 80 82 80 82 162 c 0,16,17
 82 315 82 315 149.5 413.5 c 128,-1,18
 217 512 217 512 343 512 c 0,0,1
194 575 m 1,19,-1
 362 750 l 1,20,-1
 442 750 l 1,21,-1
 528 575 l 1,22,-1
 406 575 l 1,23,-1
 382 639 l 1,24,-1
 324 575 l 1,25,-1
 194 575 l 1,19,-1
EndSplineSet
EndChar

StartChar: Cdotaccent
Encoding: 266 266 203
Width: 494
GlyphClass: 2
Flags: W
LayerCount: 2
Fore
SplineSet
304 -12 m 0,0,1
 99 -12 99 -12 99 185 c 0,2,3
 99 331 99 331 148 454 c 0,4,5
 175 522 175 522 214 574.5 c 128,-1,6
 253 627 253 627 313.5 659.5 c 128,-1,7
 374 692 374 692 449 692 c 0,8,9
 522 692 522 692 596 670 c 1,10,-1
 620 662 l 1,11,-1
 588 560 l 1,12,13
 526 572 526 572 444 572 c 0,14,15
 382 572 382 572 334.5 517 c 128,-1,16
 287 462 287 462 264 377 c 128,-1,17
 241 292 241 292 241 195 c 0,18,19
 241 108 241 108 322 108 c 0,20,21
 399 108 399 108 461 118 c 1,22,-1
 484 121 l 1,23,-1
 473 14 l 1,24,25
 380 -12 380 -12 304 -12 c 0,0,1
405 771 m 1,26,-1
 437 909 l 1,27,-1
 555 909 l 1,28,-1
 521 771 l 1,29,-1
 405 771 l 1,26,-1
EndSplineSet
Position2: "'cpsp' Capital Spacing in Latin lookup 0 subtable" dx=5 dy=0 dh=10 dv=0
EndChar

StartChar: cdotaccent
Encoding: 267 267 204
Width: 409
GlyphClass: 2
Flags: W
LayerCount: 2
Fore
SplineSet
343 512 m 0,0,1
 403 512 403 512 470 488 c 1,2,-1
 492 481 l 1,3,-1
 458 383 l 1,4,5
 381 396 381 396 337 396 c 0,6,7
 280 396 280 396 249 333.5 c 128,-1,8
 218 271 218 271 218 187.5 c 128,-1,9
 218 104 218 104 294 104 c 1,10,-1
 401 112 l 1,11,-1
 390 13 l 1,12,13
 317 -12 317 -12 244 -12 c 128,-1,14
 171 -12 171 -12 126.5 34 c 128,-1,15
 82 80 82 80 82 162 c 0,16,17
 82 315 82 315 149.5 413.5 c 128,-1,18
 217 512 217 512 343 512 c 0,0,1
300 582 m 1,19,-1
 332 719 l 1,20,-1
 448 719 l 1,21,-1
 416 582 l 1,22,-1
 300 582 l 1,19,-1
EndSplineSet
EndChar

StartChar: Ccaron
Encoding: 268 268 205
Width: 494
GlyphClass: 2
Flags: W
LayerCount: 2
Fore
SplineSet
304 -12 m 0,0,1
 99 -12 99 -12 99 185 c 0,2,3
 99 331 99 331 148 454 c 0,4,5
 175 522 175 522 214 574.5 c 128,-1,6
 253 627 253 627 313.5 659.5 c 128,-1,7
 374 692 374 692 449 692 c 0,8,9
 522 692 522 692 596 670 c 1,10,-1
 620 662 l 1,11,-1
 588 560 l 1,12,13
 526 572 526 572 444 572 c 0,14,15
 382 572 382 572 334.5 517 c 128,-1,16
 287 462 287 462 264 377 c 128,-1,17
 241 292 241 292 241 195 c 0,18,19
 241 108 241 108 322 108 c 0,20,21
 399 108 399 108 461 118 c 1,22,-1
 484 121 l 1,23,-1
 473 14 l 1,24,25
 380 -12 380 -12 304 -12 c 0,0,1
678 927 m 1,26,-1
 518 776 l 1,27,-1
 426 776 l 1,28,-1
 333 927 l 1,29,-1
 465 927 l 1,30,-1
 494 870 l 1,31,-1
 547 927 l 1,32,-1
 678 927 l 1,26,-1
EndSplineSet
Position2: "'cpsp' Capital Spacing in Latin lookup 0 subtable" dx=5 dy=0 dh=10 dv=0
EndChar

StartChar: ccaron
Encoding: 269 269 206
Width: 409
GlyphClass: 2
Flags: W
LayerCount: 2
Fore
SplineSet
412 575 m 1,0,-1
 327 575 l 1,1,-1
 245 750 l 1,2,-1
 368 750 l 1,3,-1
 397 684 l 1,4,-1
 450 750 l 1,5,-1
 579 750 l 1,6,-1
 412 575 l 1,0,-1
343 512 m 0,7,8
 403 512 403 512 470 488 c 1,9,-1
 492 481 l 1,10,-1
 458 383 l 1,11,12
 381 396 381 396 337 396 c 0,13,14
 280 396 280 396 249 333.5 c 128,-1,15
 218 271 218 271 218 187.5 c 128,-1,16
 218 104 218 104 294 104 c 1,17,-1
 401 112 l 1,18,-1
 390 13 l 1,19,20
 317 -12 317 -12 244 -12 c 128,-1,21
 171 -12 171 -12 126.5 34 c 128,-1,22
 82 80 82 80 82 162 c 0,23,24
 82 315 82 315 149.5 413.5 c 128,-1,25
 217 512 217 512 343 512 c 0,7,8
EndSplineSet
EndChar

StartChar: Dcaron
Encoding: 270 270 207
Width: 605
GlyphClass: 2
Flags: W
LayerCount: 2
Fore
SplineSet
309 0 m 2,0,-1
 65 0 l 1,1,-1
 222 680 l 1,2,-1
 436 680 l 2,3,4
 660 680 660 680 660 473 c 0,5,6
 660 327 660 327 606 209 c 0,7,8
 578 148 578 148 538 101.5 c 128,-1,9
 498 55 498 55 439 27.5 c 128,-1,10
 380 0 380 0 309 0 c 2,0,-1
490.5 540.5 m 128,-1,12
 463 560 463 560 408 560 c 2,13,-1
 332 560 l 1,14,-1
 231 120 l 1,15,-1
 321 120 l 2,16,17
 372 120 372 120 412 157 c 128,-1,18
 452 194 452 194 474 250.5 c 128,-1,19
 496 307 496 307 507 364.5 c 128,-1,20
 518 422 518 422 518 471.5 c 128,-1,11
 518 521 518 521 490.5 540.5 c 128,-1,12
647 927 m 1,21,-1
 487 776 l 1,22,-1
 395 776 l 1,23,-1
 302 927 l 1,24,-1
 434 927 l 1,25,-1
 463 870 l 1,26,-1
 516 927 l 1,27,-1
 647 927 l 1,21,-1
EndSplineSet
Position2: "'cpsp' Capital Spacing in Latin lookup 0 subtable" dx=5 dy=0 dh=10 dv=0
EndChar

StartChar: dcaron
Encoding: 271 271 208
Width: 637
GlyphClass: 2
Flags: W
LayerCount: 2
Fore
SplineSet
804 680 m 1,0,-1
 744 429 l 1,1,-1
 621 429 l 1,2,-1
 682 680 l 1,3,-1
 804 680 l 1,0,-1
224 -12 m 0,4,5
 153 -12 153 -12 116.5 34 c 128,-1,6
 80 80 80 80 80 165 c 128,-1,7
 80 250 80 250 107.5 327 c 128,-1,8
 135 404 135 404 194 457.5 c 128,-1,9
 253 511 253 511 332 511 c 0,10,11
 366 511 366 511 432 495 c 2,12,-1
 452 490 l 1,13,-1
 501 700 l 1,14,-1
 635 700 l 1,15,-1
 473 0 l 1,16,-1
 343 0 l 1,17,-1
 352 52 l 1,18,19
 332 29 332 29 294 8.5 c 128,-1,20
 256 -12 256 -12 224 -12 c 0,4,5
428 383 m 1,21,22
 370 397 370 397 333.5 397 c 128,-1,23
 297 397 297 397 269.5 357.5 c 128,-1,24
 242 318 242 318 229 266 c 128,-1,25
 216 214 216 214 216 166 c 0,26,27
 216 102 216 102 267 102 c 0,28,29
 283 102 283 102 311.5 120 c 128,-1,30
 340 138 340 138 360 156 c 2,31,-1
 380 174 l 1,32,-1
 428 383 l 1,21,22
EndSplineSet
EndChar

StartChar: Dcroat
Encoding: 272 272 209
Width: 613
GlyphClass: 2
Flags: W
LayerCount: 2
Fore
SplineSet
317 0 m 2,0,-1
 73 0 l 1,1,-1
 136 275 l 1,2,-1
 82 275 l 1,3,-1
 111 411 l 1,4,-1
 168 411 l 1,5,-1
 230 680 l 1,6,-1
 444 680 l 2,7,8
 668 680 668 680 668 473 c 0,9,10
 668 327 668 327 614 209 c 0,11,12
 553 77 553 77 447 28 c 0,13,14
 388 0 388 0 317 0 c 2,0,-1
515 364.5 m 128,-1,16
 526 422 526 422 526 471.5 c 128,-1,17
 526 521 526 521 498.5 540.5 c 128,-1,18
 471 560 471 560 416 560 c 2,19,-1
 340 560 l 1,20,-1
 306 411 l 1,21,-1
 414 411 l 1,22,-1
 384 275 l 1,23,-1
 274 275 l 1,24,-1
 239 120 l 1,25,-1
 329 120 l 2,26,27
 380 120 380 120 420 157 c 128,-1,28
 460 194 460 194 482 250.5 c 128,-1,15
 504 307 504 307 515 364.5 c 128,-1,16
EndSplineSet
Position2: "'cpsp' Capital Spacing in Latin lookup 0 subtable" dx=5 dy=0 dh=10 dv=0
EndChar

StartChar: dcroat
Encoding: 273 273 210
Width: 528
GlyphClass: 2
Flags: W
LayerCount: 2
Fore
SplineSet
224 -12 m 0,0,1
 153 -12 153 -12 116.5 34 c 128,-1,2
 80 80 80 80 80 165 c 128,-1,3
 80 250 80 250 107.5 327 c 128,-1,4
 135 404 135 404 194 457.5 c 128,-1,5
 253 511 253 511 332 511 c 0,6,7
 366 511 366 511 432 495 c 2,8,-1
 452 490 l 1,9,-1
 465 547 l 1,10,-1
 345 547 l 1,11,-1
 372 666 l 1,12,-1
 493 666 l 1,13,-1
 501 700 l 1,14,-1
 635 700 l 1,15,-1
 627 666 l 1,16,-1
 681 666 l 1,17,-1
 653 547 l 1,18,-1
 599 547 l 1,19,-1
 473 0 l 1,20,-1
 343 0 l 1,21,-1
 352 52 l 1,22,23
 332 29 332 29 294 8.5 c 128,-1,24
 256 -12 256 -12 224 -12 c 0,0,1
428 383 m 1,25,26
 370 397 370 397 333.5 397 c 128,-1,27
 297 397 297 397 269.5 357.5 c 128,-1,28
 242 318 242 318 229 266 c 128,-1,29
 216 214 216 214 216 166 c 0,30,31
 216 102 216 102 267 102 c 0,32,33
 283 102 283 102 311.5 120 c 128,-1,34
 340 138 340 138 360 156 c 2,35,-1
 380 174 l 1,36,-1
 428 383 l 1,25,26
EndSplineSet
EndChar

StartChar: Emacron
Encoding: 274 274 211
Width: 497
GlyphClass: 2
Flags: W
LayerCount: 2
Fore
SplineSet
277 806 m 1,0,-1
 302 915 l 1,1,-1
 629 915 l 1,2,-1
 604 806 l 1,3,-1
 277 806 l 1,0,-1
65 0 m 1,4,-1
 221 680 l 1,5,-1
 620 680 l 1,6,-1
 592 560 l 1,7,-1
 332 560 l 1,8,-1
 295 400 l 1,9,-1
 501 400 l 1,10,-1
 473 280 l 1,11,-1
 268 280 l 1,12,-1
 231 120 l 1,13,-1
 492 120 l 1,14,-1
 465 0 l 1,15,-1
 65 0 l 1,4,-1
EndSplineSet
Position2: "'cpsp' Capital Spacing in Latin lookup 0 subtable" dx=5 dy=0 dh=10 dv=0
EndChar

StartChar: emacron
Encoding: 275 275 212
Width: 476
GlyphClass: 2
Flags: W
LayerCount: 2
Fore
SplineSet
235.5 117 m 128,-1,1
 256 102 256 102 287 102 c 0,2,3
 356 102 356 102 428 112 c 1,4,-1
 454 115 l 1,5,-1
 439 16 l 1,6,7
 346 -12 346 -12 255 -12 c 128,-1,8
 164 -12 164 -12 122.5 29 c 128,-1,9
 81 70 81 70 81 149 c 128,-1,10
 81 228 81 228 97 290 c 128,-1,11
 113 352 113 352 144.5 402 c 128,-1,12
 176 452 176 452 230.5 481.5 c 128,-1,13
 285 511 285 511 355 511 c 0,14,15
 530 511 530 511 530 362 c 0,16,17
 530 267 530 267 466 231 c 128,-1,18
 402 195 402 195 253 195 c 2,19,-1
 218 195 l 1,20,21
 215 183 215 183 215 157.5 c 128,-1,0
 215 132 215 132 235.5 117 c 128,-1,1
274 294 m 2,22,23
 343 294 343 294 370.5 309 c 128,-1,24
 398 324 398 324 398 360 c 0,25,26
 398 403 398 403 348 403 c 0,27,28
 259 403 259 403 233 294 c 1,29,-1
 274 294 l 2,22,23
218 627 m 1,30,-1
 243 736 l 1,31,-1
 552 736 l 1,32,-1
 526 627 l 1,33,-1
 218 627 l 1,30,-1
EndSplineSet
EndChar

StartChar: Ebreve
Encoding: 276 276 213
Width: 497
GlyphClass: 2
Flags: W
LayerCount: 2
Fore
SplineSet
418 918 m 0,0,1
 418 888 418 888 455 888 c 128,-1,2
 492 888 492 888 507 927 c 1,3,-1
 629 927 l 1,4,5
 605 856 605 856 560 819.5 c 128,-1,6
 515 783 515 783 436.5 783 c 128,-1,7
 358 783 358 783 326.5 816.5 c 128,-1,8
 295 850 295 850 295 900 c 0,9,10
 295 913 295 913 297 927 c 1,11,-1
 419 927 l 1,12,13
 418 922 418 922 418 918 c 0,0,1
65 0 m 1,14,-1
 221 680 l 1,15,-1
 620 680 l 1,16,-1
 592 560 l 1,17,-1
 332 560 l 1,18,-1
 295 400 l 1,19,-1
 501 400 l 1,20,-1
 473 280 l 1,21,-1
 268 280 l 1,22,-1
 231 120 l 1,23,-1
 492 120 l 1,24,-1
 465 0 l 1,25,-1
 65 0 l 1,14,-1
EndSplineSet
Position2: "'cpsp' Capital Spacing in Latin lookup 0 subtable" dx=5 dy=0 dh=10 dv=0
EndChar

StartChar: ebreve
Encoding: 277 277 214
Width: 476
GlyphClass: 2
Flags: W
LayerCount: 2
Fore
SplineSet
235.5 117 m 128,-1,1
 256 102 256 102 287 102 c 0,2,3
 356 102 356 102 428 112 c 1,4,-1
 454 115 l 1,5,-1
 439 16 l 1,6,7
 346 -12 346 -12 255 -12 c 128,-1,8
 164 -12 164 -12 122.5 29 c 128,-1,9
 81 70 81 70 81 149 c 128,-1,10
 81 228 81 228 97 290 c 128,-1,11
 113 352 113 352 144.5 402 c 128,-1,12
 176 452 176 452 230.5 481.5 c 128,-1,13
 285 511 285 511 355 511 c 0,14,15
 530 511 530 511 530 362 c 0,16,17
 530 267 530 267 466 231 c 128,-1,18
 402 195 402 195 253 195 c 2,19,-1
 218 195 l 1,20,21
 215 183 215 183 215 157.5 c 128,-1,0
 215 132 215 132 235.5 117 c 128,-1,1
274 294 m 2,22,23
 343 294 343 294 370.5 309 c 128,-1,24
 398 324 398 324 398 360 c 0,25,26
 398 403 398 403 348 403 c 0,27,28
 259 403 259 403 233 294 c 1,29,-1
 274 294 l 2,22,23
365 739 m 0,30,31
 365 702 365 702 409.5 702 c 128,-1,32
 454 702 454 702 470 746 c 1,33,-1
 591 746 l 1,34,35
 539 590 539 590 373 590 c 0,36,37
 241 590 241 590 241 710 c 0,38,39
 241 727 241 727 244 746 c 1,40,-1
 365 746 l 1,41,42
 365 742 365 742 365 739 c 0,30,31
EndSplineSet
EndChar

StartChar: Edotaccent
Encoding: 278 278 215
Width: 497
GlyphClass: 2
Flags: W
LayerCount: 2
Fore
SplineSet
368 771 m 1,0,-1
 400 909 l 1,1,-1
 518 909 l 1,2,-1
 484 771 l 1,3,-1
 368 771 l 1,0,-1
65 0 m 1,4,-1
 221 680 l 1,5,-1
 620 680 l 1,6,-1
 592 560 l 1,7,-1
 332 560 l 1,8,-1
 295 400 l 1,9,-1
 501 400 l 1,10,-1
 473 280 l 1,11,-1
 268 280 l 1,12,-1
 231 120 l 1,13,-1
 492 120 l 1,14,-1
 465 0 l 1,15,-1
 65 0 l 1,4,-1
EndSplineSet
Position2: "'cpsp' Capital Spacing in Latin lookup 0 subtable" dx=5 dy=0 dh=10 dv=0
EndChar

StartChar: edotaccent
Encoding: 279 279 216
Width: 476
GlyphClass: 2
Flags: W
LayerCount: 2
Fore
SplineSet
235.5 117 m 128,-1,1
 256 102 256 102 287 102 c 0,2,3
 356 102 356 102 428 112 c 1,4,-1
 454 115 l 1,5,-1
 439 16 l 1,6,7
 346 -12 346 -12 255 -12 c 128,-1,8
 164 -12 164 -12 122.5 29 c 128,-1,9
 81 70 81 70 81 149 c 128,-1,10
 81 228 81 228 97 290 c 128,-1,11
 113 352 113 352 144.5 402 c 128,-1,12
 176 452 176 452 230.5 481.5 c 128,-1,13
 285 511 285 511 355 511 c 0,14,15
 530 511 530 511 530 362 c 0,16,17
 530 267 530 267 466 231 c 128,-1,18
 402 195 402 195 253 195 c 2,19,-1
 218 195 l 1,20,21
 215 183 215 183 215 157.5 c 128,-1,0
 215 132 215 132 235.5 117 c 128,-1,1
274 294 m 2,22,23
 343 294 343 294 370.5 309 c 128,-1,24
 398 324 398 324 398 360 c 0,25,26
 398 403 398 403 348 403 c 0,27,28
 259 403 259 403 233 294 c 1,29,-1
 274 294 l 2,22,23
305 582 m 1,30,-1
 337 719 l 1,31,-1
 453 719 l 1,32,-1
 421 582 l 1,33,-1
 305 582 l 1,30,-1
EndSplineSet
EndChar

StartChar: Eogonek
Encoding: 280 280 217
Width: 497
GlyphClass: 2
Flags: W
LayerCount: 2
Fore
SplineSet
409 -41.5 m 128,-1,1
 387 -67 387 -67 387 -81.5 c 128,-1,2
 387 -96 387 -96 400 -96 c 1,3,-1
 437 -93 l 1,4,-1
 424 -203 l 1,5,6
 367 -214 367 -214 327 -214 c 128,-1,7
 287 -214 287 -214 265 -194.5 c 128,-1,8
 243 -175 243 -175 243 -137 c 0,9,10
 243 -73 243 -73 333 0 c 1,11,-1
 65 0 l 1,12,-1
 221 680 l 1,13,-1
 620 680 l 1,14,-1
 592 560 l 1,15,-1
 332 560 l 1,16,-1
 295 400 l 1,17,-1
 501 400 l 1,18,-1
 473 280 l 1,19,-1
 268 280 l 1,20,-1
 231 120 l 1,21,-1
 492 120 l 1,22,-1
 465 0 l 1,23,-1
 453 0 l 1,24,0
 431 -16 431 -16 409 -41.5 c 128,-1,1
EndSplineSet
Position2: "'cpsp' Capital Spacing in Latin lookup 0 subtable" dx=5 dy=0 dh=10 dv=0
EndChar

StartChar: eogonek
Encoding: 281 281 218
Width: 476
GlyphClass: 2
Flags: W
LayerCount: 2
Fore
SplineSet
402 -183 m 1,0,1
 345 -194 345 -194 305 -194 c 128,-1,2
 265 -194 265 -194 243 -174.5 c 128,-1,3
 221 -155 221 -155 221 -113 c 128,-1,4
 221 -71 221 -71 277 -11 c 1,5,6
 268 -12 268 -12 250 -12 c 0,7,8
 164 -12 164 -12 122.5 29 c 128,-1,9
 81 70 81 70 81 149 c 128,-1,10
 81 228 81 228 97 290 c 128,-1,11
 113 352 113 352 144.5 402 c 128,-1,12
 176 452 176 452 230.5 481.5 c 128,-1,13
 285 511 285 511 355 511 c 0,14,15
 530 511 530 511 530 362 c 0,16,17
 530 267 530 267 466 231 c 128,-1,18
 402 195 402 195 253 195 c 2,19,-1
 218 195 l 1,20,21
 215 183 215 183 215 157.5 c 128,-1,22
 215 132 215 132 235.5 117 c 128,-1,23
 256 102 256 102 287 102 c 0,24,25
 356 102 356 102 428 112 c 1,26,-1
 454 115 l 1,27,-1
 439 16 l 1,28,29
 430 13 430 13 419 10 c 1,30,31
 365 -35 365 -35 365 -62 c 0,32,33
 365 -76 365 -76 378 -76 c 1,34,-1
 415 -73 l 1,35,-1
 402 -183 l 1,0,1
274 294 m 2,36,37
 343 294 343 294 370.5 309 c 128,-1,38
 398 324 398 324 398 360 c 0,39,40
 398 403 398 403 348 403 c 0,41,42
 259 403 259 403 233 294 c 1,43,-1
 274 294 l 2,36,37
EndSplineSet
EndChar

StartChar: Ecaron
Encoding: 282 282 219
Width: 497
GlyphClass: 2
Flags: W
LayerCount: 2
Fore
SplineSet
639 945 m 1,0,-1
 479 794 l 1,1,-1
 387 794 l 1,2,-1
 294 945 l 1,3,-1
 426 945 l 1,4,-1
 455 888 l 1,5,-1
 508 945 l 1,6,-1
 639 945 l 1,0,-1
65 0 m 1,7,-1
 221 680 l 1,8,-1
 620 680 l 1,9,-1
 592 560 l 1,10,-1
 332 560 l 1,11,-1
 295 400 l 1,12,-1
 501 400 l 1,13,-1
 473 280 l 1,14,-1
 268 280 l 1,15,-1
 231 120 l 1,16,-1
 492 120 l 1,17,-1
 465 0 l 1,18,-1
 65 0 l 1,7,-1
EndSplineSet
Position2: "'cpsp' Capital Spacing in Latin lookup 0 subtable" dx=5 dy=0 dh=10 dv=0
EndChar

StartChar: ecaron
Encoding: 283 283 220
Width: 476
GlyphClass: 2
Flags: W
LayerCount: 2
Fore
SplineSet
235.5 117 m 128,-1,1
 256 102 256 102 287 102 c 0,2,3
 356 102 356 102 428 112 c 1,4,-1
 454 115 l 1,5,-1
 439 16 l 1,6,7
 346 -12 346 -12 255 -12 c 128,-1,8
 164 -12 164 -12 122.5 29 c 128,-1,9
 81 70 81 70 81 149 c 128,-1,10
 81 228 81 228 97 290 c 128,-1,11
 113 352 113 352 144.5 402 c 128,-1,12
 176 452 176 452 230.5 481.5 c 128,-1,13
 285 511 285 511 355 511 c 0,14,15
 530 511 530 511 530 362 c 0,16,17
 530 267 530 267 466 231 c 128,-1,18
 402 195 402 195 253 195 c 2,19,-1
 218 195 l 1,20,21
 215 183 215 183 215 157.5 c 128,-1,0
 215 132 215 132 235.5 117 c 128,-1,1
274 294 m 2,22,23
 343 294 343 294 370.5 309 c 128,-1,24
 398 324 398 324 398 360 c 0,25,26
 398 403 398 403 348 403 c 0,27,28
 259 403 259 403 233 294 c 1,29,-1
 274 294 l 2,22,23
408 575 m 1,30,-1
 323 575 l 1,31,-1
 241 750 l 1,32,-1
 364 750 l 1,33,-1
 393 684 l 1,34,-1
 446 750 l 1,35,-1
 575 750 l 1,36,-1
 408 575 l 1,30,-1
EndSplineSet
EndChar

StartChar: Gcircumflex
Encoding: 284 284 221
Width: 568
GlyphClass: 2
Flags: W
LayerCount: 2
Fore
SplineSet
300 755 m 1,0,-1
 468 930 l 1,1,-1
 568 930 l 1,2,-1
 654 755 l 1,3,-1
 522 755 l 1,4,-1
 498 819 l 1,5,-1
 440 755 l 1,6,-1
 300 755 l 1,0,-1
327 -12 m 0,7,8
 102 -12 102 -12 102 202 c 0,9,10
 102 364 102 364 158 484 c 0,11,12
 219 616 219 616 332 666 c 0,13,14
 392 692 392 692 453 692 c 128,-1,15
 514 692 514 692 566 682 c 128,-1,16
 618 672 618 672 646 662 c 2,17,-1
 673 652 l 1,18,-1
 641 552 l 1,19,20
 542 572 542 572 454 572 c 0,21,22
 400 572 400 572 357.5 536.5 c 128,-1,23
 315 501 315 501 292 444 c 0,24,25
 244 329 244 329 244 201 c 0,26,27
 244 108 244 108 344 108 c 1,28,-1
 407 113 l 1,29,-1
 442 264 l 1,30,-1
 378 264 l 1,31,-1
 405 378 l 1,32,-1
 606 378 l 1,33,-1
 521 14 l 1,34,35
 453 -12 453 -12 327 -12 c 0,7,8
EndSplineSet
Position2: "'cpsp' Capital Spacing in Latin lookup 0 subtable" dx=5 dy=0 dh=10 dv=0
EndChar

StartChar: gcircumflex
Encoding: 285 285 222
Width: 484
GlyphClass: 2
Flags: W
LayerCount: 2
Fore
SplineSet
226 -230 m 0,0,1
 9 -230 9 -230 9 -93 c 0,2,3
 9 -46 9 -46 42.5 -15.5 c 128,-1,4
 76 15 76 15 131 42 c 1,5,6
 111 62 111 62 111 88.5 c 128,-1,7
 111 115 111 115 126 139 c 128,-1,8
 141 163 141 163 156 177 c 2,9,-1
 171 191 l 1,10,11
 103 231 103 231 103 316 c 128,-1,12
 103 401 103 401 160 456.5 c 128,-1,13
 217 512 217 512 310 512 c 0,14,15
 353 512 353 512 412 498 c 1,16,-1
 431 494 l 1,17,-1
 577 500 l 1,18,-1
 552 392 l 1,19,-1
 494 392 l 1,20,21
 498 370 498 370 498 341 c 0,22,23
 498 264 498 264 438.5 210.5 c 128,-1,24
 379 157 379 157 289 157 c 1,25,-1
 246 162 l 1,26,27
 231 142 231 142 231 128 c 128,-1,28
 231 114 231 114 250 108 c 128,-1,29
 269 102 269 102 325 94 c 0,30,31
 467 73 467 73 467 -32 c 0,32,33
 467 -121 467 -121 402.5 -175.5 c 128,-1,34
 338 -230 338 -230 226 -230 c 0,0,1
149.5 -24.5 m 128,-1,36
 131 -44 131 -44 131 -65 c 128,-1,37
 131 -86 131 -86 153 -102 c 128,-1,38
 175 -118 175 -118 223 -118 c 0,39,40
 341 -118 341 -118 341 -48 c 0,41,42
 341 -35 341 -35 331.5 -27 c 128,-1,43
 322 -19 322 -19 310 -16 c 128,-1,44
 298 -13 298 -13 246.5 -4.5 c 128,-1,45
 195 4 195 4 188 6 c 1,46,35
 168 -5 168 -5 149.5 -24.5 c 128,-1,36
296 266 m 0,47,48
 331 266 331 266 353 289.5 c 128,-1,49
 375 313 375 313 375 347 c 0,50,51
 375 403 375 403 305 403 c 0,52,53
 270 403 270 403 248 380 c 128,-1,54
 226 357 226 357 226 322 c 0,55,56
 226 266 226 266 296 266 c 0,47,48
181 575 m 1,57,-1
 349 750 l 1,58,-1
 429 750 l 1,59,-1
 515 575 l 1,60,-1
 393 575 l 1,61,-1
 369 639 l 1,62,-1
 311 575 l 1,63,-1
 181 575 l 1,57,-1
EndSplineSet
EndChar

StartChar: Gbreve
Encoding: 286 286 223
Width: 568
GlyphClass: 2
Flags: W
LayerCount: 2
Fore
SplineSet
469 926 m 1,0,-1
 469 913 l 1,1,2
 472 882 472 882 515 882 c 128,-1,3
 558 882 558 882 574 926 c 1,4,-1
 705 926 l 1,5,6
 680 850 680 850 622.5 805 c 128,-1,7
 565 760 565 760 487 760 c 128,-1,8
 409 760 409 760 374 794 c 0,9,10
 336 830 336 830 336 892 c 0,11,12
 336 907 336 907 338 926 c 1,13,-1
 469 926 l 1,0,-1
327 -12 m 0,14,15
 102 -12 102 -12 102 202 c 0,16,17
 102 364 102 364 158 484 c 0,18,19
 219 616 219 616 332 666 c 0,20,21
 392 692 392 692 453 692 c 128,-1,22
 514 692 514 692 566 682 c 128,-1,23
 618 672 618 672 646 662 c 2,24,-1
 673 652 l 1,25,-1
 641 552 l 1,26,27
 542 572 542 572 454 572 c 0,28,29
 400 572 400 572 357.5 536.5 c 128,-1,30
 315 501 315 501 292 444 c 0,31,32
 244 329 244 329 244 201 c 0,33,34
 244 108 244 108 344 108 c 1,35,-1
 407 113 l 1,36,-1
 442 264 l 1,37,-1
 378 264 l 1,38,-1
 405 378 l 1,39,-1
 606 378 l 1,40,-1
 521 14 l 1,41,42
 453 -12 453 -12 327 -12 c 0,14,15
EndSplineSet
Position2: "'cpsp' Capital Spacing in Latin lookup 0 subtable" dx=5 dy=0 dh=10 dv=0
EndChar

StartChar: gbreve
Encoding: 287 287 224
Width: 484
GlyphClass: 2
Flags: W
LayerCount: 2
Fore
SplineSet
226 -230 m 0,0,1
 9 -230 9 -230 9 -93 c 0,2,3
 9 -46 9 -46 42.5 -15.5 c 128,-1,4
 76 15 76 15 131 42 c 1,5,6
 111 62 111 62 111 88.5 c 128,-1,7
 111 115 111 115 126 139 c 128,-1,8
 141 163 141 163 156 177 c 2,9,-1
 171 191 l 1,10,11
 103 231 103 231 103 316 c 128,-1,12
 103 401 103 401 160 456.5 c 128,-1,13
 217 512 217 512 310 512 c 0,14,15
 353 512 353 512 412 498 c 1,16,-1
 431 494 l 1,17,-1
 577 500 l 1,18,-1
 552 392 l 1,19,-1
 494 392 l 1,20,21
 498 370 498 370 498 341 c 0,22,23
 498 264 498 264 438.5 210.5 c 128,-1,24
 379 157 379 157 289 157 c 1,25,-1
 246 162 l 1,26,27
 231 142 231 142 231 128 c 128,-1,28
 231 114 231 114 250 108 c 128,-1,29
 269 102 269 102 325 94 c 0,30,31
 467 73 467 73 467 -32 c 0,32,33
 467 -121 467 -121 402.5 -175.5 c 128,-1,34
 338 -230 338 -230 226 -230 c 0,0,1
149.5 -24.5 m 128,-1,36
 131 -44 131 -44 131 -65 c 128,-1,37
 131 -86 131 -86 153 -102 c 128,-1,38
 175 -118 175 -118 223 -118 c 0,39,40
 341 -118 341 -118 341 -48 c 0,41,42
 341 -35 341 -35 331.5 -27 c 128,-1,43
 322 -19 322 -19 310 -16 c 128,-1,44
 298 -13 298 -13 246.5 -4.5 c 128,-1,45
 195 4 195 4 188 6 c 1,46,35
 168 -5 168 -5 149.5 -24.5 c 128,-1,36
296 266 m 0,47,48
 331 266 331 266 353 289.5 c 128,-1,49
 375 313 375 313 375 347 c 0,50,51
 375 403 375 403 305 403 c 0,52,53
 270 403 270 403 248 380 c 128,-1,54
 226 357 226 357 226 322 c 0,55,56
 226 266 226 266 296 266 c 0,47,48
344 739 m 0,57,58
 344 702 344 702 388.5 702 c 128,-1,59
 433 702 433 702 449 746 c 1,60,-1
 570 746 l 1,61,62
 518 590 518 590 352 590 c 0,63,64
 220 590 220 590 220 710 c 0,65,66
 220 727 220 727 223 746 c 1,67,-1
 344 746 l 1,68,69
 344 742 344 742 344 739 c 0,57,58
EndSplineSet
EndChar

StartChar: Gdotaccent
Encoding: 288 288 225
Width: 568
GlyphClass: 2
Flags: W
LayerCount: 2
Fore
SplineSet
419 732 m 1,0,-1
 451 869 l 1,1,-1
 577 869 l 1,2,-1
 545 732 l 1,3,-1
 419 732 l 1,0,-1
327 -12 m 0,4,5
 102 -12 102 -12 102 202 c 0,6,7
 102 364 102 364 158 484 c 0,8,9
 219 616 219 616 332 666 c 0,10,11
 392 692 392 692 453 692 c 128,-1,12
 514 692 514 692 566 682 c 128,-1,13
 618 672 618 672 646 662 c 2,14,-1
 673 652 l 1,15,-1
 641 552 l 1,16,17
 542 572 542 572 454 572 c 0,18,19
 400 572 400 572 357.5 536.5 c 128,-1,20
 315 501 315 501 292 444 c 0,21,22
 244 329 244 329 244 201 c 0,23,24
 244 108 244 108 344 108 c 1,25,-1
 407 113 l 1,26,-1
 442 264 l 1,27,-1
 378 264 l 1,28,-1
 405 378 l 1,29,-1
 606 378 l 1,30,-1
 521 14 l 1,31,32
 453 -12 453 -12 327 -12 c 0,4,5
EndSplineSet
Position2: "'cpsp' Capital Spacing in Latin lookup 0 subtable" dx=5 dy=0 dh=10 dv=0
EndChar

StartChar: gdotaccent
Encoding: 289 289 226
Width: 484
GlyphClass: 2
Flags: W
LayerCount: 2
Fore
SplineSet
226 -230 m 0,0,1
 9 -230 9 -230 9 -93 c 0,2,3
 9 -46 9 -46 42.5 -15.5 c 128,-1,4
 76 15 76 15 131 42 c 1,5,6
 111 62 111 62 111 88.5 c 128,-1,7
 111 115 111 115 126 139 c 128,-1,8
 141 163 141 163 156 177 c 2,9,-1
 171 191 l 1,10,11
 103 231 103 231 103 316 c 128,-1,12
 103 401 103 401 160 456.5 c 128,-1,13
 217 512 217 512 310 512 c 0,14,15
 353 512 353 512 412 498 c 1,16,-1
 431 494 l 1,17,-1
 577 500 l 1,18,-1
 552 392 l 1,19,-1
 494 392 l 1,20,21
 498 370 498 370 498 341 c 0,22,23
 498 264 498 264 438.5 210.5 c 128,-1,24
 379 157 379 157 289 157 c 1,25,-1
 246 162 l 1,26,27
 231 142 231 142 231 128 c 128,-1,28
 231 114 231 114 250 108 c 128,-1,29
 269 102 269 102 325 94 c 0,30,31
 467 73 467 73 467 -32 c 0,32,33
 467 -121 467 -121 402.5 -175.5 c 128,-1,34
 338 -230 338 -230 226 -230 c 0,0,1
149.5 -24.5 m 128,-1,36
 131 -44 131 -44 131 -65 c 128,-1,37
 131 -86 131 -86 153 -102 c 128,-1,38
 175 -118 175 -118 223 -118 c 0,39,40
 341 -118 341 -118 341 -48 c 0,41,42
 341 -35 341 -35 331.5 -27 c 128,-1,43
 322 -19 322 -19 310 -16 c 128,-1,44
 298 -13 298 -13 246.5 -4.5 c 128,-1,45
 195 4 195 4 188 6 c 1,46,35
 168 -5 168 -5 149.5 -24.5 c 128,-1,36
296 266 m 0,47,48
 331 266 331 266 353 289.5 c 128,-1,49
 375 313 375 313 375 347 c 0,50,51
 375 403 375 403 305 403 c 0,52,53
 270 403 270 403 248 380 c 128,-1,54
 226 357 226 357 226 322 c 0,55,56
 226 266 226 266 296 266 c 0,47,48
294 582 m 1,57,-1
 326 719 l 1,58,-1
 442 719 l 1,59,-1
 410 582 l 1,60,-1
 294 582 l 1,57,-1
EndSplineSet
EndChar

StartChar: Gcommaaccent
Encoding: 290 290 227
Width: 568
GlyphClass: 2
Flags: W
LayerCount: 2
Fore
SplineSet
327 -12 m 0,0,1
 102 -12 102 -12 102 202 c 0,2,3
 102 364 102 364 158 484 c 0,4,5
 219 616 219 616 332 666 c 0,6,7
 392 692 392 692 453 692 c 128,-1,8
 514 692 514 692 566 682 c 128,-1,9
 618 672 618 672 646 662 c 2,10,-1
 673 652 l 1,11,-1
 641 552 l 1,12,13
 542 572 542 572 454 572 c 0,14,15
 400 572 400 572 357.5 536.5 c 128,-1,16
 315 501 315 501 292 444 c 0,17,18
 244 329 244 329 244 201 c 0,19,20
 244 108 244 108 344 108 c 1,21,-1
 407 113 l 1,22,-1
 442 264 l 1,23,-1
 378 264 l 1,24,-1
 405 378 l 1,25,-1
 606 378 l 1,26,-1
 521 14 l 1,27,28
 453 -12 453 -12 327 -12 c 0,0,1
233 -72 m 1,29,-1
 356 -72 l 1,30,-1
 249 -309 l 1,31,-1
 136 -309 l 1,32,-1
 233 -72 l 1,29,-1
EndSplineSet
Position2: "'cpsp' Capital Spacing in Latin lookup 0 subtable" dx=5 dy=0 dh=10 dv=0
EndChar

StartChar: gcommaaccent
Encoding: 291 291 228
Width: 484
GlyphClass: 2
Flags: W
LayerCount: 2
Fore
SplineSet
393 814 m 1,0,-1
 507 814 l 1,1,-1
 409 578 l 1,2,-1
 286 578 l 1,3,-1
 393 814 l 1,0,-1
226 -230 m 0,4,5
 9 -230 9 -230 9 -93 c 0,6,7
 9 -46 9 -46 42.5 -15.5 c 128,-1,8
 76 15 76 15 131 42 c 1,9,10
 111 62 111 62 111 88.5 c 128,-1,11
 111 115 111 115 126 139 c 128,-1,12
 141 163 141 163 156 177 c 2,13,-1
 171 191 l 1,14,15
 103 231 103 231 103 316 c 128,-1,16
 103 401 103 401 160 456.5 c 128,-1,17
 217 512 217 512 310 512 c 0,18,19
 353 512 353 512 412 498 c 1,20,-1
 431 494 l 1,21,-1
 577 500 l 1,22,-1
 552 392 l 1,23,-1
 494 392 l 1,24,25
 498 370 498 370 498 341 c 0,26,27
 498 264 498 264 438.5 210.5 c 128,-1,28
 379 157 379 157 289 157 c 1,29,-1
 246 162 l 1,30,31
 231 142 231 142 231 128 c 128,-1,32
 231 114 231 114 250 108 c 128,-1,33
 269 102 269 102 325 94 c 0,34,35
 467 73 467 73 467 -32 c 0,36,37
 467 -121 467 -121 402.5 -175.5 c 128,-1,38
 338 -230 338 -230 226 -230 c 0,4,5
149.5 -24.5 m 128,-1,40
 131 -44 131 -44 131 -65 c 128,-1,41
 131 -86 131 -86 153 -102 c 128,-1,42
 175 -118 175 -118 223 -118 c 0,43,44
 341 -118 341 -118 341 -48 c 0,45,46
 341 -35 341 -35 331.5 -27 c 128,-1,47
 322 -19 322 -19 310 -16 c 128,-1,48
 298 -13 298 -13 246.5 -4.5 c 128,-1,49
 195 4 195 4 188 6 c 1,50,39
 168 -5 168 -5 149.5 -24.5 c 128,-1,40
296 266 m 0,51,52
 331 266 331 266 353 289.5 c 128,-1,53
 375 313 375 313 375 347 c 0,54,55
 375 403 375 403 305 403 c 0,56,57
 270 403 270 403 248 380 c 128,-1,58
 226 357 226 357 226 322 c 0,59,60
 226 266 226 266 296 266 c 0,51,52
EndSplineSet
EndChar

StartChar: Hcircumflex
Encoding: 292 292 229
Width: 620
GlyphClass: 2
Flags: W
LayerCount: 2
Fore
SplineSet
417 0 m 1,0,-1
 483 288 l 1,1,-1
 269 288 l 1,2,-1
 203 0 l 1,3,-1
 65 0 l 1,4,-1
 222 680 l 1,5,-1
 360 680 l 1,6,-1
 297 408 l 1,7,-1
 511 408 l 1,8,-1
 574 680 l 1,9,-1
 712 680 l 1,10,-1
 555 0 l 1,11,-1
 417 0 l 1,0,-1
308 779 m 1,12,-1
 484 931 l 1,13,-1
 564 931 l 1,14,-1
 660 779 l 1,15,-1
 538 779 l 1,16,-1
 512 834 l 1,17,-1
 450 779 l 1,18,-1
 308 779 l 1,12,-1
EndSplineSet
Position2: "'cpsp' Capital Spacing in Latin lookup 0 subtable" dx=5 dy=0 dh=10 dv=0
EndChar

StartChar: hcircumflex
Encoding: 293 293 230
Width: 513
GlyphClass: 2
Flags: W
LayerCount: 2
Fore
SplineSet
419 512 m 0,0,1
 541 512 541 512 541 371 c 0,2,3
 541 335 541 335 520 245 c 2,4,-1
 464 0 l 1,5,-1
 330 0 l 1,6,-1
 384 235 l 2,7,8
 402 310 402 310 402 339.5 c 128,-1,9
 402 369 402 369 394.5 382.5 c 128,-1,10
 387 396 387 396 368 396 c 0,11,12
 334 396 334 396 283 351 c 2,13,-1
 266 336 l 1,14,-1
 189 0 l 1,15,-1
 55 0 l 1,16,-1
 216 700 l 1,17,-1
 350 700 l 1,18,-1
 294 453 l 1,19,20
 316 475 316 475 353 493.5 c 128,-1,21
 390 512 390 512 419 512 c 0,0,1
273 749 m 1,22,-1
 449 901 l 1,23,-1
 529 901 l 1,24,-1
 625 749 l 1,25,-1
 503 749 l 1,26,-1
 477 804 l 1,27,-1
 415 749 l 1,28,-1
 273 749 l 1,22,-1
EndSplineSet
EndChar

StartChar: Hbar
Encoding: 294 294 231
Width: 628
GlyphClass: 2
Flags: W
LayerCount: 2
Fore
SplineSet
115 481 m 1,0,-1
 115 484 l 1,1,-1
 143 600 l 1,2,-1
 207 600 l 1,3,-1
 226 680 l 1,4,-1
 358 680 l 1,5,-1
 339 600 l 1,6,-1
 565 600 l 1,7,-1
 584 680 l 1,8,-1
 716 680 l 1,9,-1
 697 600 l 1,10,-1
 761 600 l 1,11,-1
 731 481 l 1,12,-1
 670 481 l 1,13,-1
 559 0 l 1,14,-1
 427 0 l 1,15,-1
 491 278 l 1,16,-1
 265 278 l 1,17,-1
 201 0 l 1,18,-1
 69 0 l 1,19,-1
 180 481 l 1,20,-1
 115 481 l 1,0,-1
295 407 m 1,21,-1
 521 407 l 1,22,-1
 538 481 l 1,23,-1
 312 481 l 1,24,-1
 295 407 l 1,21,-1
EndSplineSet
Position2: "'cpsp' Capital Spacing in Latin lookup 0 subtable" dx=5 dy=0 dh=10 dv=0
EndChar

StartChar: hbar
Encoding: 295 295 232
Width: 513
GlyphClass: 2
Flags: W
LayerCount: 2
Fore
SplineSet
419 512 m 0,0,1
 541 512 541 512 541 371 c 0,2,3
 541 335 541 335 520 245 c 2,4,-1
 464 0 l 1,5,-1
 330 0 l 1,6,-1
 384 235 l 2,7,8
 402 310 402 310 402 339.5 c 128,-1,9
 402 369 402 369 394.5 382.5 c 128,-1,10
 387 396 387 396 368 396 c 0,11,12
 334 396 334 396 283 351 c 2,13,-1
 266 336 l 1,14,-1
 189 0 l 1,15,-1
 55 0 l 1,16,-1
 177 530 l 1,17,-1
 125 530 l 1,18,-1
 152 646 l 1,19,-1
 203 646 l 1,20,-1
 216 700 l 1,21,-1
 350 700 l 1,22,-1
 338 646 l 1,23,-1
 461 646 l 1,24,-1
 433 530 l 1,25,-1
 311 530 l 1,26,-1
 294 453 l 1,27,28
 316 475 316 475 353 493.5 c 128,-1,29
 390 512 390 512 419 512 c 0,0,1
EndSplineSet
EndChar

StartChar: Itilde
Encoding: 296 296 233
Width: 268
GlyphClass: 2
Flags: W
LayerCount: 2
Fore
SplineSet
388.5 769 m 128,-1,1
 364 769 364 769 311 790.5 c 128,-1,2
 258 812 258 812 244 812 c 0,3,4
 221 812 221 812 172 782 c 2,5,-1
 157 773 l 1,6,-1
 153 866 l 1,7,8
 183 892 183 892 215.5 911 c 128,-1,9
 248 930 248 930 275.5 930 c 128,-1,10
 303 930 303 930 355.5 909 c 128,-1,11
 408 888 408 888 418 888 c 0,12,13
 439 888 439 888 487 916 c 1,14,-1
 503 926 l 1,15,-1
 505 832 l 1,16,17
 481 808 481 808 447 788.5 c 128,-1,0
 413 769 413 769 388.5 769 c 128,-1,1
65 0 m 1,18,-1
 222 680 l 1,19,-1
 360 680 l 1,20,-1
 203 0 l 1,21,-1
 65 0 l 1,18,-1
EndSplineSet
Position2: "'cpsp' Capital Spacing in Latin lookup 0 subtable" dx=5 dy=0 dh=10 dv=0
EndChar

StartChar: itilde
Encoding: 297 297 234
Width: 243
GlyphClass: 2
Flags: W
LayerCount: 2
Fore
SplineSet
55 0 m 1,0,-1
 170 500 l 1,1,-1
 304 500 l 1,2,-1
 189 0 l 1,3,-1
 55 0 l 1,0,-1
365 608 m 128,-1,5
 334 590 334 590 310 590 c 128,-1,6
 286 590 286 590 240.5 612 c 128,-1,7
 195 634 195 634 182 634 c 0,8,9
 158 634 158 634 112 604 c 1,10,-1
 96 594 l 1,11,-1
 93 686 l 1,12,13
 101 693 101 693 113 704 c 128,-1,14
 125 715 125 715 156 733 c 128,-1,15
 187 751 187 751 213 751 c 128,-1,16
 239 751 239 751 284 729.5 c 128,-1,17
 329 708 329 708 339 708 c 0,18,19
 358 708 358 708 408 738 c 1,20,-1
 424 747 l 1,21,-1
 428 654 l 1,22,-1
 408 636 l 2,23,4
 396 626 396 626 365 608 c 128,-1,5
EndSplineSet
EndChar

StartChar: Imacron
Encoding: 298 298 235
Width: 268
GlyphClass: 2
Flags: W
LayerCount: 2
Fore
SplineSet
150 817 m 1,0,-1
 175 926 l 1,1,-1
 502 926 l 1,2,-1
 477 817 l 1,3,-1
 150 817 l 1,0,-1
65 0 m 1,4,-1
 222 680 l 1,5,-1
 360 680 l 1,6,-1
 203 0 l 1,7,-1
 65 0 l 1,4,-1
EndSplineSet
Position2: "'cpsp' Capital Spacing in Latin lookup 0 subtable" dx=5 dy=0 dh=10 dv=0
EndChar

StartChar: imacron
Encoding: 299 299 236
Width: 243
GlyphClass: 2
Flags: W
LayerCount: 2
Fore
SplineSet
55 0 m 1,0,-1
 170 500 l 1,1,-1
 304 500 l 1,2,-1
 189 0 l 1,3,-1
 55 0 l 1,0,-1
101 627 m 1,4,-1
 126 736 l 1,5,-1
 435 736 l 1,6,-1
 409 627 l 1,7,-1
 101 627 l 1,4,-1
EndSplineSet
EndChar

StartChar: Ibreve
Encoding: 300 300 237
Width: 268
GlyphClass: 2
Flags: W
LayerCount: 2
Fore
SplineSet
303 918 m 0,0,1
 303 888 303 888 340 888 c 128,-1,2
 377 888 377 888 392 927 c 1,3,-1
 514 927 l 1,4,5
 490 856 490 856 445 819.5 c 128,-1,6
 400 783 400 783 321.5 783 c 128,-1,7
 243 783 243 783 211.5 816.5 c 128,-1,8
 180 850 180 850 180 900 c 0,9,10
 180 913 180 913 182 927 c 1,11,-1
 304 927 l 1,12,13
 303 922 303 922 303 918 c 0,0,1
65 0 m 1,14,-1
 222 680 l 1,15,-1
 360 680 l 1,16,-1
 203 0 l 1,17,-1
 65 0 l 1,14,-1
EndSplineSet
Position2: "'cpsp' Capital Spacing in Latin lookup 0 subtable" dx=5 dy=0 dh=10 dv=0
EndChar

StartChar: ibreve
Encoding: 301 301 238
Width: 243
GlyphClass: 2
Flags: W
LayerCount: 2
Fore
SplineSet
55 0 m 1,0,-1
 170 500 l 1,1,-1
 304 500 l 1,2,-1
 189 0 l 1,3,-1
 55 0 l 1,0,-1
233 739 m 0,4,5
 233 702 233 702 277.5 702 c 128,-1,6
 322 702 322 702 338 746 c 1,7,-1
 459 746 l 1,8,9
 407 590 407 590 241 590 c 0,10,11
 109 590 109 590 109 710 c 0,12,13
 109 727 109 727 112 746 c 1,14,-1
 233 746 l 1,15,16
 233 742 233 742 233 739 c 0,4,5
EndSplineSet
EndChar

StartChar: Iogonek
Encoding: 302 302 239
Width: 268
GlyphClass: 2
Flags: W
LayerCount: 2
Fore
SplineSet
151 -38 m 128,-1,1
 125 -65 125 -65 125 -80.5 c 128,-1,2
 125 -96 125 -96 138 -96 c 1,3,-1
 175 -93 l 1,4,-1
 162 -203 l 1,5,6
 105 -214 105 -214 65 -214 c 128,-1,7
 25 -214 25 -214 3 -194.5 c 128,-1,8
 -19 -175 -19 -175 -19 -137 c 0,9,10
 -19 -73 -19 -73 71 0 c 1,11,-1
 65 0 l 1,12,-1
 222 680 l 1,13,-1
 360 680 l 1,14,-1
 203 0 l 1,15,0
 177 -11 177 -11 151 -38 c 128,-1,1
EndSplineSet
Position2: "'cpsp' Capital Spacing in Latin lookup 0 subtable" dx=5 dy=0 dh=10 dv=0
EndChar

StartChar: iogonek
Encoding: 303 303 240
Width: 243
GlyphClass: 2
Flags: W
LayerCount: 2
Fore
SplineSet
144 -203 m 1,0,1
 87 -214 87 -214 47 -214 c 128,-1,2
 7 -214 7 -214 -15 -194.5 c 128,-1,3
 -37 -175 -37 -175 -37 -138.5 c 128,-1,4
 -37 -102 -37 -102 -9 -64 c 128,-1,5
 19 -26 19 -26 55 2 c 1,6,-1
 170 500 l 1,7,-1
 304 500 l 1,8,-1
 189 0 l 1,9,10
 161 -14 161 -14 134 -39.5 c 128,-1,11
 107 -65 107 -65 107 -80.5 c 128,-1,12
 107 -96 107 -96 120 -96 c 1,13,-1
 157 -93 l 1,14,-1
 144 -203 l 1,0,1
181 552 m 1,15,-1
 213 689 l 1,16,-1
 348 689 l 1,17,-1
 317 552 l 1,18,-1
 181 552 l 1,15,-1
EndSplineSet
EndChar

StartChar: Idotaccent
Encoding: 304 304 241
Width: 268
GlyphClass: 2
Flags: W
LayerCount: 2
Fore
SplineSet
251 771 m 1,0,-1
 283 909 l 1,1,-1
 401 909 l 1,2,-1
 367 771 l 1,3,-1
 251 771 l 1,0,-1
65 0 m 1,4,-1
 222 680 l 1,5,-1
 360 680 l 1,6,-1
 203 0 l 1,7,-1
 65 0 l 1,4,-1
EndSplineSet
Position2: "'cpsp' Capital Spacing in Latin lookup 0 subtable" dx=5 dy=0 dh=10 dv=0
EndChar

StartChar: dotlessi
Encoding: 305 305 242
Width: 244
GlyphClass: 2
Flags: W
LayerCount: 2
Fore
SplineSet
55 0 m 1,0,-1
 170 500 l 1,1,-1
 304 500 l 1,2,-1
 189 0 l 1,3,-1
 55 0 l 1,0,-1
EndSplineSet
EndChar

StartChar: Jcircumflex
Encoding: 308 308 243
Width: 283
GlyphClass: 2
Flags: W
LayerCount: 2
Fore
SplineSet
378 680 m 1,0,-1
 252 135 l 2,1,2
 229 34 229 34 198 -15 c 0,3,4
 182 -40 182 -40 155 -50 c 0,5,6
 104 -69 104 -69 6 -69 c 1,7,-1
 29 51 l 1,8,9
 71 53 71 53 86 66 c 128,-1,10
 101 79 101 79 114 135 c 2,11,-1
 240 680 l 1,12,-1
 378 680 l 1,0,-1
144 779 m 1,13,-1
 320 931 l 1,14,-1
 400 931 l 1,15,-1
 496 779 l 1,16,-1
 374 779 l 1,17,-1
 348 834 l 1,18,-1
 286 779 l 1,19,-1
 144 779 l 1,13,-1
EndSplineSet
Position2: "'cpsp' Capital Spacing in Latin lookup 0 subtable" dx=5 dy=0 dh=10 dv=0
EndChar

StartChar: jcircumflex
Encoding: 309 309 244
Width: 243
GlyphClass: 2
Flags: W
LayerCount: 2
Fore
SplineSet
55 0 m 2,0,-1
 170 500 l 1,1,-1
 304 500 l 1,2,-1
 189 0 l 2,3,4
 180 -40 180 -40 174.5 -60 c 128,-1,5
 169 -80 169 -80 157 -103.5 c 128,-1,6
 145 -127 145 -127 134 -138.5 c 128,-1,7
 123 -150 123 -150 98 -166 c 1,8,9
 64 -190 64 -190 -28 -230 c 1,10,-1
 -70 -123 l 1,11,12
 7 -83 7 -83 25.5 -64.5 c 128,-1,13
 44 -46 44 -46 55 0 c 2,0,-1
80 575 m 1,14,-1
 248 750 l 1,15,-1
 328 750 l 1,16,-1
 414 575 l 1,17,-1
 292 575 l 1,18,-1
 268 639 l 1,19,-1
 210 575 l 1,20,-1
 80 575 l 1,14,-1
EndSplineSet
EndChar

StartChar: Kcommaaccent
Encoding: 310 310 245
Width: 540
GlyphClass: 2
Flags: W
LayerCount: 2
Fore
SplineSet
215 -72 m 1,0,-1
 338 -72 l 1,1,-1
 231 -309 l 1,2,-1
 118 -309 l 1,3,-1
 215 -72 l 1,0,-1
384 0 m 1,4,-1
 340 273 l 1,5,-1
 264 266 l 1,6,-1
 203 0 l 1,7,-1
 65 0 l 1,8,-1
 222 680 l 1,9,-1
 360 680 l 1,10,-1
 292 386 l 1,11,-1
 356 394 l 1,12,-1
 532 680 l 1,13,-1
 683 680 l 1,14,-1
 466 339 l 1,15,-1
 529 0 l 1,16,-1
 384 0 l 1,4,-1
EndSplineSet
Position2: "'cpsp' Capital Spacing in Latin lookup 0 subtable" dx=5 dy=0 dh=10 dv=0
EndChar

StartChar: kcommaaccent
Encoding: 311 311 246
Width: 467
GlyphClass: 2
Flags: W
LayerCount: 2
Fore
SplineSet
74 -309 m 1,0,-1
 171 -72 l 1,1,-1
 294 -72 l 1,2,-1
 187 -309 l 1,3,-1
 74 -309 l 1,0,-1
189 0 m 1,4,-1
 55 0 l 1,5,-1
 216 700 l 1,6,-1
 350 700 l 1,7,-1
 260 311 l 1,8,-1
 294 318 l 1,9,-1
 421 499 l 1,10,-1
 568 499 l 1,11,-1
 394 259 l 1,12,-1
 460 0 l 1,13,-1
 323 0 l 1,14,-1
 275 207 l 1,15,-1
 235 201 l 1,16,-1
 189 0 l 1,4,-1
EndSplineSet
EndChar

StartChar: Lacute
Encoding: 313 313 247
Width: 422
GlyphClass: 2
Flags: W
LayerCount: 2
Fore
SplineSet
300 765 m 1,0,-1
 290 871 l 1,1,-1
 554 962 l 1,2,-1
 564 842 l 1,3,-1
 300 765 l 1,0,-1
419 0 m 1,4,-1
 65 0 l 1,5,-1
 222 680 l 1,6,-1
 360 680 l 1,7,-1
 231 120 l 1,8,-1
 446 120 l 1,9,-1
 419 0 l 1,4,-1
EndSplineSet
Position2: "'cpsp' Capital Spacing in Latin lookup 0 subtable" dx=5 dy=0 dh=10 dv=0
EndChar

StartChar: lacute
Encoding: 314 314 248
Width: 244
GlyphClass: 2
Flags: W
LayerCount: 2
Fore
SplineSet
55 0 m 1,0,-1
 216 700 l 1,1,-1
 350 700 l 1,2,-1
 189 0 l 1,3,-1
 55 0 l 1,0,-1
235 765 m 1,4,-1
 225 871 l 1,5,-1
 489 962 l 1,6,-1
 499 842 l 1,7,-1
 235 765 l 1,4,-1
EndSplineSet
EndChar

StartChar: Lcommaaccent
Encoding: 315 315 249
Width: 422
GlyphClass: 2
Flags: W
LayerCount: 2
Fore
SplineSet
165 -72 m 1,0,-1
 288 -72 l 1,1,-1
 181 -309 l 1,2,-1
 68 -309 l 1,3,-1
 165 -72 l 1,0,-1
419 0 m 1,4,-1
 65 0 l 1,5,-1
 222 680 l 1,6,-1
 360 680 l 1,7,-1
 231 120 l 1,8,-1
 446 120 l 1,9,-1
 419 0 l 1,4,-1
EndSplineSet
Position2: "'cpsp' Capital Spacing in Latin lookup 0 subtable" dx=5 dy=0 dh=10 dv=0
EndChar

StartChar: lcommaaccent
Encoding: 316 316 250
Width: 244
GlyphClass: 2
Flags: W
LayerCount: 2
Fore
SplineSet
46 -72 m 1,0,-1
 169 -72 l 1,1,-1
 62 -309 l 1,2,-1
 -51 -309 l 1,3,-1
 46 -72 l 1,0,-1
55 0 m 1,4,-1
 216 700 l 1,5,-1
 350 700 l 1,6,-1
 189 0 l 1,7,-1
 55 0 l 1,4,-1
EndSplineSet
EndChar

StartChar: Lcaron
Encoding: 317 317 251
Width: 464
GlyphClass: 2
Flags: W
LayerCount: 2
Fore
SplineSet
590 680 m 1,0,-1
 530 429 l 1,1,-1
 407 429 l 1,2,-1
 468 680 l 1,3,-1
 590 680 l 1,0,-1
419 0 m 1,4,-1
 65 0 l 1,5,-1
 222 680 l 1,6,-1
 360 680 l 1,7,-1
 231 120 l 1,8,-1
 446 120 l 1,9,-1
 419 0 l 1,4,-1
EndSplineSet
Position2: "'cpsp' Capital Spacing in Latin lookup 0 subtable" dx=5 dy=0 dh=10 dv=0
EndChar

StartChar: lcaron
Encoding: 318 318 252
Width: 353
GlyphClass: 2
Flags: W
LayerCount: 2
Fore
SplineSet
520 680 m 1,0,-1
 460 429 l 1,1,-1
 337 429 l 1,2,-1
 398 680 l 1,3,-1
 520 680 l 1,0,-1
55 0 m 1,4,-1
 216 700 l 1,5,-1
 350 700 l 1,6,-1
 189 0 l 1,7,-1
 55 0 l 1,4,-1
EndSplineSet
EndChar

StartChar: Lslash
Encoding: 321 321 253
Width: 423
GlyphClass: 2
Flags: W
LayerCount: 2
Fore
SplineSet
421 0 m 1,0,-1
 67 0 l 1,1,-1
 115 208 l 1,2,-1
 87 191 l 1,3,-1
 46 284 l 1,4,-1
 147 346 l 1,5,-1
 224 680 l 1,6,-1
 362 680 l 1,7,-1
 308 446 l 1,8,-1
 404 506 l 1,9,-1
 445 414 l 1,10,-1
 276 309 l 1,11,-1
 233 120 l 1,12,-1
 448 120 l 1,13,-1
 421 0 l 1,0,-1
EndSplineSet
Position2: "'cpsp' Capital Spacing in Latin lookup 0 subtable" dx=5 dy=0 dh=10 dv=0
EndChar

StartChar: lslash
Encoding: 322 322 254
Width: 292
GlyphClass: 2
Flags: W
LayerCount: 2
Fore
SplineSet
77 0 m 1,0,-1
 127 220 l 1,1,-1
 90 197 l 1,2,-1
 49 290 l 1,3,-1
 159 359 l 1,4,-1
 238 700 l 1,5,-1
 372 700 l 1,6,-1
 316 456 l 1,7,-1
 356 481 l 1,8,-1
 397 389 l 1,9,-1
 284 318 l 1,10,-1
 211 0 l 1,11,-1
 77 0 l 1,0,-1
EndSplineSet
EndChar

StartChar: Nacute
Encoding: 323 323 255
Width: 651
GlyphClass: 2
Flags: W
LayerCount: 2
Fore
SplineSet
389 765 m 1,0,-1
 379 871 l 1,1,-1
 643 962 l 1,2,-1
 653 842 l 1,3,-1
 389 765 l 1,0,-1
65 0 m 1,4,-1
 222 680 l 1,5,-1
 441 680 l 1,6,-1
 477 147 l 1,7,-1
 489 147 l 1,8,-1
 610 680 l 1,9,-1
 743 680 l 1,10,-1
 586 0 l 1,11,-1
 378 0 l 1,12,-1
 334 543 l 1,13,-1
 322 543 l 1,14,-1
 195 0 l 1,15,-1
 65 0 l 1,4,-1
EndSplineSet
Position2: "'cpsp' Capital Spacing in Latin lookup 0 subtable" dx=5 dy=0 dh=10 dv=0
EndChar

StartChar: nacute
Encoding: 324 324 256
Width: 513
GlyphClass: 2
Flags: W
LayerCount: 2
Fore
SplineSet
266 336 m 1,0,-1
 189 0 l 1,1,-1
 55 0 l 1,2,-1
 170 500 l 1,3,-1
 298 500 l 1,4,-1
 292 451 l 1,5,-1
 309 466 l 2,6,7
 326 482 326 482 358 497 c 128,-1,8
 390 512 390 512 419 512 c 0,9,10
 541 512 541 512 541 371 c 0,11,12
 541 335 541 335 520 245 c 2,13,-1
 464 0 l 1,14,-1
 330 0 l 1,15,-1
 384 235 l 2,16,17
 402 310 402 310 402 339.5 c 128,-1,18
 402 369 402 369 394.5 382.5 c 128,-1,19
 387 396 387 396 358 396 c 128,-1,20
 329 396 329 396 266 336 c 1,0,-1
288 576 m 1,21,-1
 278 683 l 1,22,-1
 542 774 l 1,23,-1
 552 654 l 1,24,-1
 288 576 l 1,21,-1
EndSplineSet
EndChar

StartChar: Ncommaaccent
Encoding: 325 325 257
Width: 651
GlyphClass: 2
Flags: W
LayerCount: 2
Fore
SplineSet
280 -72 m 1,0,-1
 403 -72 l 1,1,-1
 296 -309 l 1,2,-1
 183 -309 l 1,3,-1
 280 -72 l 1,0,-1
65 0 m 1,4,-1
 222 680 l 1,5,-1
 441 680 l 1,6,-1
 477 147 l 1,7,-1
 489 147 l 1,8,-1
 610 680 l 1,9,-1
 743 680 l 1,10,-1
 586 0 l 1,11,-1
 378 0 l 1,12,-1
 334 543 l 1,13,-1
 322 543 l 1,14,-1
 195 0 l 1,15,-1
 65 0 l 1,4,-1
EndSplineSet
Position2: "'cpsp' Capital Spacing in Latin lookup 0 subtable" dx=5 dy=0 dh=10 dv=0
EndChar

StartChar: ncommaaccent
Encoding: 326 326 258
Width: 513
GlyphClass: 2
Flags: W
LayerCount: 2
Fore
SplineSet
419 512 m 0,0,1
 541 512 541 512 541 371 c 0,2,3
 541 335 541 335 520 245 c 2,4,-1
 464 0 l 1,5,-1
 330 0 l 1,6,-1
 384 235 l 2,7,8
 402 310 402 310 402 339.5 c 128,-1,9
 402 369 402 369 394.5 382.5 c 128,-1,10
 387 396 387 396 367 396 c 0,11,12
 332 396 332 396 282 351 c 1,13,-1
 266 336 l 1,14,-1
 189 0 l 1,15,-1
 55 0 l 1,16,-1
 170 500 l 1,17,-1
 298 500 l 1,18,-1
 292 451 l 1,19,20
 315 474 315 474 352.5 493 c 128,-1,21
 390 512 390 512 419 512 c 0,0,1
96 -309 m 1,22,-1
 193 -72 l 1,23,-1
 316 -72 l 1,24,-1
 209 -309 l 1,25,-1
 96 -309 l 1,22,-1
EndSplineSet
EndChar

StartChar: Ncaron
Encoding: 327 327 259
Width: 651
GlyphClass: 2
Flags: W
LayerCount: 2
Fore
SplineSet
690 926 m 1,0,-1
 530 775 l 1,1,-1
 438 775 l 1,2,-1
 345 926 l 1,3,-1
 477 926 l 1,4,-1
 506 869 l 1,5,-1
 559 926 l 1,6,-1
 690 926 l 1,0,-1
65 0 m 1,7,-1
 222 680 l 1,8,-1
 441 680 l 1,9,-1
 477 147 l 1,10,-1
 489 147 l 1,11,-1
 610 680 l 1,12,-1
 743 680 l 1,13,-1
 586 0 l 1,14,-1
 378 0 l 1,15,-1
 334 543 l 1,16,-1
 322 543 l 1,17,-1
 195 0 l 1,18,-1
 65 0 l 1,7,-1
EndSplineSet
Position2: "'cpsp' Capital Spacing in Latin lookup 0 subtable" dx=5 dy=0 dh=10 dv=0
EndChar

StartChar: ncaron
Encoding: 328 328 260
Width: 513
GlyphClass: 2
Flags: W
LayerCount: 2
Fore
SplineSet
419 512 m 0,0,1
 541 512 541 512 541 371 c 0,2,3
 541 335 541 335 520 245 c 2,4,-1
 464 0 l 1,5,-1
 330 0 l 1,6,-1
 384 235 l 2,7,8
 402 310 402 310 402 339.5 c 128,-1,9
 402 369 402 369 394.5 382.5 c 128,-1,10
 387 396 387 396 367 396 c 0,11,12
 332 396 332 396 282 351 c 1,13,-1
 266 336 l 1,14,-1
 189 0 l 1,15,-1
 55 0 l 1,16,-1
 170 500 l 1,17,-1
 298 500 l 1,18,-1
 292 451 l 1,19,20
 315 474 315 474 352.5 493 c 128,-1,21
 390 512 390 512 419 512 c 0,0,1
429 575 m 1,22,-1
 344 575 l 1,23,-1
 262 750 l 1,24,-1
 385 750 l 1,25,-1
 414 684 l 1,26,-1
 467 750 l 1,27,-1
 596 750 l 1,28,-1
 429 575 l 1,22,-1
EndSplineSet
EndChar

StartChar: Eng
Encoding: 330 330 261
Width: 651
GlyphClass: 2
Flags: W
LayerCount: 2
Fore
SplineSet
711 539 m 1,0,-1
 585 -6 l 2,1,2
 568 -79 568 -79 554.5 -115.5 c 128,-1,3
 541 -152 541 -152 513 -175.5 c 128,-1,4
 485 -199 485 -199 449.5 -204.5 c 128,-1,5
 414 -210 414 -210 345 -210 c 1,6,-1
 368 -90 l 1,7,8
 410 -88 410 -88 425 -75 c 128,-1,9
 440 -62 440 -62 453 -6 c 1,10,-1
 454 0 l 1,11,-1
 378 0 l 1,12,-1
 334 543 l 1,13,-1
 322 543 l 1,14,-1
 195 0 l 1,15,-1
 65 0 l 1,16,-1
 222 680 l 1,17,-1
 441 680 l 1,18,-1
 477 147 l 1,19,-1
 488 147 l 1,20,-1
 610 680 l 1,21,-1
 743 680 l 1,22,-1
 710 539 l 1,23,-1
 711 539 l 1,0,-1
EndSplineSet
Position2: "'cpsp' Capital Spacing in Latin lookup 0 subtable" dx=5 dy=0 dh=10 dv=0
EndChar

StartChar: eng
Encoding: 331 331 262
Width: 502
GlyphClass: 2
Flags: W
LayerCount: 2
Fore
SplineSet
398 332 m 0,0,1
 398 386 398 386 355 386 c 0,2,3
 327 386 327 386 276 353 c 2,4,-1
 259 342 l 1,5,-1
 179 0 l 1,6,-1
 52 0 l 1,7,-1
 170 499 l 1,8,-1
 297 499 l 1,9,-1
 285 452 l 1,10,11
 362 511 362 511 411 511 c 0,12,13
 530 511 530 511 530 381 c 0,14,15
 530 331 530 331 514 261 c 2,16,-1
 453 7 l 2,17,18
 429 -94 429 -94 383.5 -145.5 c 128,-1,19
 338 -197 338 -197 226 -246 c 1,20,-1
 194 -132 l 1,21,22
 270 -94 270 -94 292 -71.5 c 128,-1,23
 314 -49 314 -49 326 2 c 2,24,-1
 388 261 l 2,25,26
 398 302 398 302 398 332 c 0,0,1
EndSplineSet
EndChar

StartChar: Omacron
Encoding: 332 332 263
Width: 615
GlyphClass: 2
Flags: W
LayerCount: 2
Fore
SplineSet
264.5 131.5 m 128,-1,1
 286 108 286 108 337.5 108 c 128,-1,2
 389 108 389 108 423 142 c 0,3,4
 470 189 470 189 498.5 284 c 128,-1,5
 527 379 527 379 527 470 c 0,6,7
 527 525 527 525 506 548.5 c 128,-1,8
 485 572 485 572 433 572 c 128,-1,9
 381 572 381 572 351 542 c 0,10,11
 301 493 301 493 272 393.5 c 128,-1,12
 243 294 243 294 243 224.5 c 128,-1,0
 243 155 243 155 264.5 131.5 c 128,-1,1
628 228.5 m 128,-1,14
 587 110 587 110 508.5 49 c 128,-1,15
 430 -12 430 -12 322 -12 c 0,16,17
 101 -12 101 -12 101 196 c 0,18,19
 101 327 101 327 141 443 c 128,-1,20
 181 559 181 559 258 625.5 c 128,-1,21
 335 692 335 692 448 692 c 0,22,23
 669 692 669 692 669 484 c 0,24,13
 669 347 669 347 628 228.5 c 128,-1,14
317 806 m 1,25,-1
 342 915 l 1,26,-1
 669 915 l 1,27,-1
 644 806 l 1,28,-1
 317 806 l 1,25,-1
EndSplineSet
Position2: "'cpsp' Capital Spacing in Latin lookup 0 subtable" dx=5 dy=0 dh=10 dv=0
EndChar

StartChar: omacron
Encoding: 333 333 264
Width: 496
GlyphClass: 2
Flags: W
LayerCount: 2
Fore
SplineSet
333 511 m 0,0,1
 530 511 530 511 530 322 c 0,2,3
 530 241 530 241 503 167 c 128,-1,4
 476 93 476 93 416.5 40.5 c 128,-1,5
 357 -12 357 -12 277 -12 c 0,6,7
 80 -12 80 -12 80 177 c 0,8,9
 80 257 80 257 109 332 c 128,-1,10
 138 407 138 407 197.5 459 c 128,-1,11
 257 511 257 511 333 511 c 0,0,1
277 102 m 0,12,13
 331 102 331 102 364 170.5 c 128,-1,14
 397 239 397 239 397 324 c 0,15,16
 397 397 397 397 333 397 c 0,17,18
 279 397 279 397 246 328.5 c 128,-1,19
 213 260 213 260 213 175 c 0,20,21
 213 102 213 102 277 102 c 0,12,13
224 627 m 1,22,-1
 249 736 l 1,23,-1
 558 736 l 1,24,-1
 532 627 l 1,25,-1
 224 627 l 1,22,-1
EndSplineSet
EndChar

StartChar: Obreve
Encoding: 334 334 265
Width: 615
GlyphClass: 2
Flags: W
LayerCount: 2
Fore
SplineSet
464 918 m 0,0,1
 464 888 464 888 501 888 c 128,-1,2
 538 888 538 888 553 927 c 1,3,-1
 675 927 l 1,4,5
 651 856 651 856 606 819.5 c 128,-1,6
 561 783 561 783 482.5 783 c 128,-1,7
 404 783 404 783 372.5 816.5 c 128,-1,8
 341 850 341 850 341 900 c 0,9,10
 341 913 341 913 343 927 c 1,11,-1
 465 927 l 1,12,13
 464 922 464 922 464 918 c 0,0,1
264.5 131.5 m 128,-1,15
 286 108 286 108 337.5 108 c 128,-1,16
 389 108 389 108 423 142 c 0,17,18
 470 189 470 189 498.5 284 c 128,-1,19
 527 379 527 379 527 470 c 0,20,21
 527 525 527 525 506 548.5 c 128,-1,22
 485 572 485 572 433 572 c 128,-1,23
 381 572 381 572 351 542 c 0,24,25
 301 493 301 493 272 393.5 c 128,-1,26
 243 294 243 294 243 224.5 c 128,-1,14
 243 155 243 155 264.5 131.5 c 128,-1,15
628 228.5 m 128,-1,28
 587 110 587 110 508.5 49 c 128,-1,29
 430 -12 430 -12 322 -12 c 0,30,31
 101 -12 101 -12 101 196 c 0,32,33
 101 327 101 327 141 443 c 128,-1,34
 181 559 181 559 258 625.5 c 128,-1,35
 335 692 335 692 448 692 c 0,36,37
 669 692 669 692 669 484 c 0,38,27
 669 347 669 347 628 228.5 c 128,-1,28
EndSplineSet
Position2: "'cpsp' Capital Spacing in Latin lookup 0 subtable" dx=5 dy=0 dh=10 dv=0
EndChar

StartChar: obreve
Encoding: 335 335 266
Width: 496
GlyphClass: 2
Flags: W
LayerCount: 2
Fore
SplineSet
333 511 m 0,0,1
 530 511 530 511 530 322 c 0,2,3
 530 241 530 241 503 167 c 128,-1,4
 476 93 476 93 416.5 40.5 c 128,-1,5
 357 -12 357 -12 277 -12 c 0,6,7
 80 -12 80 -12 80 177 c 0,8,9
 80 257 80 257 109 332 c 128,-1,10
 138 407 138 407 197.5 459 c 128,-1,11
 257 511 257 511 333 511 c 0,0,1
277 102 m 0,12,13
 331 102 331 102 364 170.5 c 128,-1,14
 397 239 397 239 397 324 c 0,15,16
 397 397 397 397 333 397 c 0,17,18
 279 397 279 397 246 328.5 c 128,-1,19
 213 260 213 260 213 175 c 0,20,21
 213 102 213 102 277 102 c 0,12,13
345 739 m 0,22,23
 345 702 345 702 389.5 702 c 128,-1,24
 434 702 434 702 450 746 c 1,25,-1
 571 746 l 1,26,27
 519 590 519 590 353 590 c 0,28,29
 221 590 221 590 221 710 c 0,30,31
 221 727 221 727 224 746 c 1,32,-1
 345 746 l 1,33,34
 345 742 345 742 345 739 c 0,22,23
EndSplineSet
EndChar

StartChar: Ohungarumlaut
Encoding: 336 336 267
Width: 615
GlyphClass: 2
Flags: W
LayerCount: 2
Fore
SplineSet
623 740 m 1,0,-1
 524 780 l 1,1,-1
 635 978 l 1,2,-1
 744 933 l 1,3,-1
 623 740 l 1,0,-1
419 741 m 1,4,-1
 319 780 l 1,5,-1
 431 979 l 1,6,-1
 540 934 l 1,7,-1
 419 741 l 1,4,-1
264.5 131.5 m 128,-1,9
 286 108 286 108 337.5 108 c 128,-1,10
 389 108 389 108 423 142 c 0,11,12
 470 189 470 189 498.5 284 c 128,-1,13
 527 379 527 379 527 470 c 0,14,15
 527 525 527 525 506 548.5 c 128,-1,16
 485 572 485 572 433 572 c 128,-1,17
 381 572 381 572 351 542 c 0,18,19
 301 493 301 493 272 393.5 c 128,-1,20
 243 294 243 294 243 224.5 c 128,-1,8
 243 155 243 155 264.5 131.5 c 128,-1,9
628 228.5 m 128,-1,22
 587 110 587 110 508.5 49 c 128,-1,23
 430 -12 430 -12 322 -12 c 0,24,25
 101 -12 101 -12 101 196 c 0,26,27
 101 327 101 327 141 443 c 128,-1,28
 181 559 181 559 258 625.5 c 128,-1,29
 335 692 335 692 448 692 c 0,30,31
 669 692 669 692 669 484 c 0,32,21
 669 347 669 347 628 228.5 c 128,-1,22
EndSplineSet
Position2: "'cpsp' Capital Spacing in Latin lookup 0 subtable" dx=5 dy=0 dh=10 dv=0
EndChar

StartChar: ohungarumlaut
Encoding: 337 337 268
Width: 496
GlyphClass: 2
Flags: W
LayerCount: 2
Fore
SplineSet
333 511 m 0,0,1
 530 511 530 511 530 322 c 0,2,3
 530 241 530 241 503 167 c 128,-1,4
 476 93 476 93 416.5 40.5 c 128,-1,5
 357 -12 357 -12 277 -12 c 0,6,7
 80 -12 80 -12 80 177 c 0,8,9
 80 257 80 257 109 332 c 128,-1,10
 138 407 138 407 197.5 459 c 128,-1,11
 257 511 257 511 333 511 c 0,0,1
277 102 m 0,12,13
 331 102 331 102 364 170.5 c 128,-1,14
 397 239 397 239 397 324 c 0,15,16
 397 397 397 397 333 397 c 0,17,18
 279 397 279 397 246 328.5 c 128,-1,19
 213 260 213 260 213 175 c 0,20,21
 213 102 213 102 277 102 c 0,12,13
468 563 m 1,22,-1
 387 628 l 1,23,-1
 543 818 l 1,24,-1
 632 751 l 1,25,-1
 468 563 l 1,22,-1
274 563 m 1,26,-1
 194 628 l 1,27,-1
 349 817 l 1,28,-1
 438 751 l 1,29,-1
 274 563 l 1,26,-1
EndSplineSet
EndChar

StartChar: OE
Encoding: 338 338 269
Width: 831
GlyphClass: 2
Flags: W
LayerCount: 2
Fore
SplineSet
279 -12 m 0,0,1
 94 -12 94 -12 94 177 c 0,2,3
 94 249 94 249 117 345 c 0,4,5
 161 530 161 530 242.5 616 c 128,-1,6
 324 702 324 702 447 702 c 0,7,8
 489 702 489 702 555 690 c 1,9,-1
 959 690 l 1,10,-1
 929 559 l 1,11,-1
 653 559 l 1,12,-1
 614 402 l 1,13,-1
 834 402 l 1,14,-1
 805 277 l 1,15,-1
 586 279 l 1,16,-1
 551 131 l 1,17,-1
 826 131 l 1,18,-1
 796 0 l 1,19,-1
 395 0 l 1,20,21
 321 -12 321 -12 279 -12 c 0,0,1
328 120 m 0,22,23
 355 120 355 120 421 126 c 1,24,-1
 526 564 l 1,25,26
 475 570 475 570 433 570 c 0,27,28
 365 570 365 570 323 519.5 c 128,-1,29
 281 469 281 469 252 345 c 0,30,31
 232 262 232 262 232 213.5 c 128,-1,32
 232 165 232 165 254.5 142.5 c 128,-1,33
 277 120 277 120 328 120 c 0,22,23
EndSplineSet
Position2: "'cpsp' Capital Spacing in Latin lookup 0 subtable" dx=5 dy=0 dh=10 dv=0
EndChar

StartChar: oe
Encoding: 339 339 270
Width: 759
GlyphClass: 2
Flags: W
LayerCount: 2
Fore
SplineSet
495 165 m 0,0,1
 495 109 495 109 568 109 c 0,2,3
 615 109 615 109 713 116 c 2,4,-1
 741 118 l 1,5,-1
 718 16 l 1,6,7
 627 -12 627 -12 529.5 -12 c 128,-1,8
 432 -12 432 -12 395 37 c 1,9,10
 329 -12 329 -12 239 -12 c 0,11,12
 98 -12 98 -12 80 105 c 0,13,14
 76 129 76 129 76 164.5 c 128,-1,15
 76 200 76 200 89.5 254 c 128,-1,16
 103 308 103 308 121.5 350.5 c 128,-1,17
 140 393 140 393 171 432 c 0,18,19
 235 511 235 511 362 511 c 0,20,21
 455 511 455 511 498 457 c 1,22,23
 561 511 561 511 641 511 c 0,24,25
 793 511 793 511 806 390 c 0,26,27
 808 374 808 374 808 347 c 128,-1,28
 808 320 808 320 796 284 c 2,29,-1
 767 192 l 1,30,-1
 499 194 l 1,31,32
 495 178 495 178 495 165 c 0,0,1
205 172 m 0,33,34
 205 107 205 107 266 107 c 0,35,36
 330 107 330 107 360 178 c 0,37,38
 397 263 397 263 397 329 c 0,39,40
 397 361 397 361 382.5 376.5 c 128,-1,41
 368 392 368 392 334 392 c 0,42,43
 286 392 286 392 259.5 355 c 128,-1,44
 233 318 233 318 219 260.5 c 128,-1,45
 205 203 205 203 205 172 c 0,33,34
674 294 m 1,46,47
 682 326 682 326 682 339 c 128,-1,48
 682 352 682 352 681 358 c 0,49,50
 675 389 675 389 628 389 c 128,-1,51
 581 389 581 389 557 366 c 128,-1,52
 533 343 533 343 522 296 c 1,53,-1
 674 294 l 1,46,47
EndSplineSet
EndChar

StartChar: Racute
Encoding: 340 340 271
Width: 559
GlyphClass: 2
Flags: W
LayerCount: 2
Fore
SplineSet
585 327 m 128,-1,1
 542 261 542 261 476 235 c 1,2,-1
 531 0 l 1,3,-1
 393 0 l 1,4,-1
 348 216 l 1,5,-1
 253 216 l 1,6,-1
 203 0 l 1,7,-1
 65 0 l 1,8,-1
 222 680 l 1,9,-1
 418 680 l 2,10,11
 526 680 526 680 577 634.5 c 128,-1,12
 628 589 628 589 628 491 c 128,-1,0
 628 393 628 393 585 327 c 128,-1,1
469 543 m 128,-1,14
 452 562 452 562 410 562 c 2,15,-1
 333 562 l 1,16,-1
 280 334 l 1,17,-1
 369 334 l 2,18,19
 423 334 423 334 454.5 377 c 128,-1,20
 486 420 486 420 486 472 c 128,-1,13
 486 524 486 524 469 543 c 128,-1,14
331 765 m 1,21,-1
 321 871 l 1,22,-1
 585 962 l 1,23,-1
 595 842 l 1,24,-1
 331 765 l 1,21,-1
EndSplineSet
Position2: "'cpsp' Capital Spacing in Latin lookup 0 subtable" dx=5 dy=0 dh=10 dv=0
EndChar

StartChar: racute
Encoding: 341 341 272
Width: 334
GlyphClass: 2
Flags: W
LayerCount: 2
Fore
SplineSet
55 0 m 1,0,-1
 170 500 l 1,1,-1
 303 500 l 1,2,-1
 285 428 l 1,3,4
 315 455 315 455 362 481.5 c 128,-1,5
 409 508 409 508 442 512 c 1,6,-1
 403 372 l 1,7,8
 355 357 355 357 286 326 c 2,9,-1
 262 315 l 1,10,-1
 189 0 l 1,11,-1
 55 0 l 1,0,-1
187 576 m 1,12,-1
 177 683 l 1,13,-1
 441 774 l 1,14,-1
 451 654 l 1,15,-1
 187 576 l 1,12,-1
EndSplineSet
EndChar

StartChar: Rcommaaccent
Encoding: 342 342 273
Width: 559
GlyphClass: 2
Flags: W
LayerCount: 2
Fore
SplineSet
132 -309 m 1,0,-1
 229 -72 l 1,1,-1
 352 -72 l 1,2,-1
 245 -309 l 1,3,-1
 132 -309 l 1,0,-1
418 680 m 2,4,5
 526 680 526 680 577 634.5 c 128,-1,6
 628 589 628 589 628 491 c 128,-1,7
 628 393 628 393 585 327 c 128,-1,8
 542 261 542 261 476 235 c 1,9,-1
 531 0 l 1,10,-1
 393 0 l 1,11,-1
 348 216 l 1,12,-1
 253 216 l 1,13,-1
 203 0 l 1,14,-1
 65 0 l 1,15,-1
 222 680 l 1,16,-1
 418 680 l 2,4,5
454.5 377 m 128,-1,18
 486 420 486 420 486 472 c 128,-1,19
 486 524 486 524 469 543 c 128,-1,20
 452 562 452 562 410 562 c 2,21,-1
 333 562 l 1,22,-1
 280 334 l 1,23,-1
 369 334 l 2,24,17
 423 334 423 334 454.5 377 c 128,-1,18
EndSplineSet
Position2: "'cpsp' Capital Spacing in Latin lookup 0 subtable" dx=5 dy=0 dh=10 dv=0
EndChar

StartChar: rcommaaccent
Encoding: 343 343 274
Width: 334
GlyphClass: 2
Flags: W
LayerCount: 2
Fore
SplineSet
55 0 m 1,0,-1
 170 500 l 1,1,-1
 303 500 l 1,2,-1
 285 428 l 1,3,4
 315 455 315 455 362 481.5 c 128,-1,5
 409 508 409 508 442 512 c 1,6,-1
 403 372 l 1,7,8
 355 357 355 357 286 326 c 2,9,-1
 262 315 l 1,10,-1
 189 0 l 1,11,-1
 55 0 l 1,0,-1
53 -72 m 1,12,-1
 176 -72 l 1,13,-1
 69 -309 l 1,14,-1
 -44 -309 l 1,15,-1
 53 -72 l 1,12,-1
EndSplineSet
EndChar

StartChar: Rcaron
Encoding: 344 344 275
Width: 559
GlyphClass: 2
Flags: W
LayerCount: 2
Fore
SplineSet
627 927 m 1,0,-1
 467 776 l 1,1,-1
 375 776 l 1,2,-1
 282 927 l 1,3,-1
 414 927 l 1,4,-1
 443 870 l 1,5,-1
 496 927 l 1,6,-1
 627 927 l 1,0,-1
585 327 m 128,-1,8
 542 261 542 261 476 235 c 1,9,-1
 531 0 l 1,10,-1
 393 0 l 1,11,-1
 348 216 l 1,12,-1
 253 216 l 1,13,-1
 203 0 l 1,14,-1
 65 0 l 1,15,-1
 222 680 l 1,16,-1
 418 680 l 2,17,18
 526 680 526 680 577 634.5 c 128,-1,19
 628 589 628 589 628 491 c 128,-1,7
 628 393 628 393 585 327 c 128,-1,8
469 543 m 128,-1,21
 452 562 452 562 410 562 c 2,22,-1
 333 562 l 1,23,-1
 280 334 l 1,24,-1
 369 334 l 2,25,26
 423 334 423 334 454.5 377 c 128,-1,27
 486 420 486 420 486 472 c 128,-1,20
 486 524 486 524 469 543 c 128,-1,21
EndSplineSet
Position2: "'cpsp' Capital Spacing in Latin lookup 0 subtable" dx=5 dy=0 dh=10 dv=0
EndChar

StartChar: rcaron
Encoding: 345 345 276
Width: 334
GlyphClass: 2
Flags: W
LayerCount: 2
Fore
SplineSet
55 0 m 1,0,-1
 170 500 l 1,1,-1
 303 500 l 1,2,-1
 285 428 l 1,3,4
 315 455 315 455 362 481.5 c 128,-1,5
 409 508 409 508 442 512 c 1,6,-1
 403 372 l 1,7,8
 355 357 355 357 286 326 c 2,9,-1
 262 315 l 1,10,-1
 189 0 l 1,11,-1
 55 0 l 1,0,-1
336 575 m 1,12,-1
 251 575 l 1,13,-1
 169 750 l 1,14,-1
 292 750 l 1,15,-1
 321 684 l 1,16,-1
 374 750 l 1,17,-1
 503 750 l 1,18,-1
 336 575 l 1,12,-1
EndSplineSet
EndChar

StartChar: Sacute
Encoding: 346 346 277
Width: 495
GlyphClass: 2
Flags: W
LayerCount: 2
Fore
SplineSet
381 574 m 0,0,1
 337 574 337 574 311.5 549.5 c 128,-1,2
 286 525 286 525 286 491 c 128,-1,3
 286 457 286 457 302 441.5 c 128,-1,4
 318 426 318 426 390 394 c 128,-1,5
 462 362 462 362 488.5 326.5 c 128,-1,6
 515 291 515 291 515 223 c 0,7,8
 515 110 515 110 445.5 49 c 128,-1,9
 376 -12 376 -12 258 -12 c 0,10,11
 211 -12 211 -12 159 -2 c 128,-1,12
 107 8 107 8 78 18 c 1,13,-1
 50 29 l 1,14,-1
 73 128 l 1,15,16
 186 108 186 108 250.5 108 c 128,-1,17
 315 108 315 108 345 130.5 c 128,-1,18
 375 153 375 153 375 207 c 0,19,20
 375 236 375 236 357.5 251.5 c 128,-1,21
 340 267 340 267 272 298 c 128,-1,22
 204 329 204 329 175 366 c 128,-1,23
 146 403 146 403 146 469 c 0,24,25
 146 566 146 566 209 629 c 128,-1,26
 272 692 272 692 377 692 c 0,27,28
 425 692 425 692 477.5 682.5 c 128,-1,29
 530 673 530 673 558 664 c 2,30,-1
 586 654 l 1,31,-1
 561 556 l 1,32,33
 451 574 451 574 381 574 c 0,0,1
339 765 m 1,34,-1
 329 871 l 1,35,-1
 593 962 l 1,36,-1
 603 842 l 1,37,-1
 339 765 l 1,34,-1
EndSplineSet
Position2: "'cpsp' Capital Spacing in Latin lookup 0 subtable" dx=5 dy=0 dh=10 dv=0
EndChar

StartChar: sacute
Encoding: 347 347 278
Width: 432
GlyphClass: 2
Flags: W
LayerCount: 2
Fore
SplineSet
302 397 m 0,0,1
 272 397 272 397 256 383 c 128,-1,2
 240 369 240 369 240 350.5 c 128,-1,3
 240 332 240 332 254 323 c 128,-1,4
 268 314 268 314 326.5 296 c 128,-1,5
 385 278 385 278 414.5 254.5 c 128,-1,6
 444 231 444 231 444 178 c 0,7,8
 444 84 444 84 382.5 36 c 128,-1,9
 321 -12 321 -12 219 -12 c 0,10,11
 176 -12 176 -12 132.5 -3.5 c 128,-1,12
 89 5 89 5 68 14 c 1,13,-1
 46 22 l 1,14,-1
 71 120 l 1,15,16
 167 102 167 102 237 102 c 128,-1,17
 307 102 307 102 307 151 c 0,18,19
 307 164 307 164 293 171.5 c 128,-1,20
 279 179 279 179 245 189 c 0,21,22
 174 209 174 209 140 236 c 128,-1,23
 106 263 106 263 106 313 c 0,24,25
 106 406 106 406 167 458.5 c 128,-1,26
 228 511 228 511 314 511 c 0,27,28
 361 511 361 511 406 503.5 c 128,-1,29
 451 496 451 496 472 488 c 2,30,-1
 494 480 l 1,31,-1
 470 381 l 1,32,33
 367 397 367 397 302 397 c 0,0,1
256 576 m 1,34,-1
 246 683 l 1,35,-1
 510 774 l 1,36,-1
 520 654 l 1,37,-1
 256 576 l 1,34,-1
EndSplineSet
EndChar

StartChar: Scircumflex
Encoding: 348 348 279
Width: 495
GlyphClass: 2
Flags: W
LayerCount: 2
Fore
SplineSet
381 574 m 0,0,1
 337 574 337 574 311.5 549.5 c 128,-1,2
 286 525 286 525 286 491 c 128,-1,3
 286 457 286 457 302 441.5 c 128,-1,4
 318 426 318 426 390 394 c 128,-1,5
 462 362 462 362 488.5 326.5 c 128,-1,6
 515 291 515 291 515 223 c 0,7,8
 515 110 515 110 445.5 49 c 128,-1,9
 376 -12 376 -12 258 -12 c 0,10,11
 211 -12 211 -12 159 -2 c 128,-1,12
 107 8 107 8 78 18 c 1,13,-1
 50 29 l 1,14,-1
 73 128 l 1,15,16
 186 108 186 108 250.5 108 c 128,-1,17
 315 108 315 108 345 130.5 c 128,-1,18
 375 153 375 153 375 207 c 0,19,20
 375 236 375 236 357.5 251.5 c 128,-1,21
 340 267 340 267 272 298 c 128,-1,22
 204 329 204 329 175 366 c 128,-1,23
 146 403 146 403 146 469 c 0,24,25
 146 566 146 566 209 629 c 128,-1,26
 272 692 272 692 377 692 c 0,27,28
 425 692 425 692 477.5 682.5 c 128,-1,29
 530 673 530 673 558 664 c 2,30,-1
 586 654 l 1,31,-1
 561 556 l 1,32,33
 451 574 451 574 381 574 c 0,0,1
244 779 m 1,34,-1
 420 931 l 1,35,-1
 500 931 l 1,36,-1
 596 779 l 1,37,-1
 474 779 l 1,38,-1
 448 834 l 1,39,-1
 386 779 l 1,40,-1
 244 779 l 1,34,-1
EndSplineSet
Position2: "'cpsp' Capital Spacing in Latin lookup 0 subtable" dx=5 dy=0 dh=10 dv=0
EndChar

StartChar: scircumflex
Encoding: 349 349 280
Width: 432
GlyphClass: 2
Flags: W
LayerCount: 2
Fore
SplineSet
302 397 m 0,0,1
 272 397 272 397 256 383 c 128,-1,2
 240 369 240 369 240 350.5 c 128,-1,3
 240 332 240 332 254 323 c 128,-1,4
 268 314 268 314 326.5 296 c 128,-1,5
 385 278 385 278 414.5 254.5 c 128,-1,6
 444 231 444 231 444 178 c 0,7,8
 444 84 444 84 382.5 36 c 128,-1,9
 321 -12 321 -12 219 -12 c 0,10,11
 176 -12 176 -12 132.5 -3.5 c 128,-1,12
 89 5 89 5 68 14 c 1,13,-1
 46 22 l 1,14,-1
 71 120 l 1,15,16
 167 102 167 102 237 102 c 128,-1,17
 307 102 307 102 307 151 c 0,18,19
 307 164 307 164 293 171.5 c 128,-1,20
 279 179 279 179 245 189 c 0,21,22
 174 209 174 209 140 236 c 128,-1,23
 106 263 106 263 106 313 c 0,24,25
 106 406 106 406 167 458.5 c 128,-1,26
 228 511 228 511 314 511 c 0,27,28
 361 511 361 511 406 503.5 c 128,-1,29
 451 496 451 496 472 488 c 2,30,-1
 494 480 l 1,31,-1
 470 381 l 1,32,33
 367 397 367 397 302 397 c 0,0,1
178 575 m 1,34,-1
 346 750 l 1,35,-1
 426 750 l 1,36,-1
 512 575 l 1,37,-1
 390 575 l 1,38,-1
 366 639 l 1,39,-1
 308 575 l 1,40,-1
 178 575 l 1,34,-1
EndSplineSet
EndChar

StartChar: Scedilla
Encoding: 350 350 281
Width: 495
GlyphClass: 2
Flags: W
LayerCount: 2
Fore
SplineSet
266 -33 m 2,0,1
 359 -33 359 -33 359 -94 c 0,2,3
 359 -107 359 -107 355 -124 c 0,4,5
 330 -229 330 -229 226 -229 c 0,6,7
 186 -229 186 -229 154 -221 c 2,8,-1
 142 -218 l 1,9,-1
 162 -137 l 1,10,11
 192 -138 192 -138 208 -138 c 0,12,13
 244 -138 244 -138 250 -114 c 0,14,15
 253 -102 253 -102 245.5 -98 c 128,-1,16
 238 -94 238 -94 219 -94 c 2,17,-1
 197 -94 l 1,18,-1
 215 -10 l 1,19,20
 133 -2 133 -2 72 21 c 2,21,-1
 50 29 l 1,22,-1
 73 128 l 1,23,24
 186 108 186 108 250.5 108 c 128,-1,25
 315 108 315 108 345 130.5 c 128,-1,26
 375 153 375 153 375 207 c 0,27,28
 375 236 375 236 357.5 251.5 c 128,-1,29
 340 267 340 267 272 298 c 128,-1,30
 204 329 204 329 175 366 c 128,-1,31
 146 403 146 403 146 469 c 0,32,33
 146 566 146 566 209 629 c 128,-1,34
 272 692 272 692 377 692 c 0,35,36
 425 692 425 692 477.5 682.5 c 128,-1,37
 530 673 530 673 558 664 c 2,38,-1
 586 654 l 1,39,-1
 561 556 l 1,40,41
 451 574 451 574 381 574 c 0,42,43
 337 574 337 574 311.5 549.5 c 128,-1,44
 286 525 286 525 286 491 c 128,-1,45
 286 457 286 457 302 441.5 c 128,-1,46
 318 426 318 426 390 394 c 128,-1,47
 462 362 462 362 488.5 326.5 c 128,-1,48
 515 291 515 291 515 223 c 0,49,50
 515 112 515 112 448 51 c 128,-1,51
 381 -10 381 -10 266 -12 c 1,52,-1
 260 -33 l 1,53,-1
 266 -33 l 2,0,1
EndSplineSet
Substitution2: "'locl' Localized Forms in Latin lookup 0 subtable" Scommaaccent
Position2: "'cpsp' Capital Spacing in Latin lookup 0 subtable" dx=5 dy=0 dh=10 dv=0
EndChar

